SplineFontDB: 3.0
FontName: TitilliumWeb-ThinItalic
FullName: Titillium WebThin Italic
FamilyName: Titillium Web
Weight: Extra-Light
Copyright: Copyright (c) 2009-2011 by Accademia di Belle Arti di Urbino and students of MA course of Visual design. Some rights reserved.
Version: 1.001;PS 57.000;hotconv 1.0.70;makeotf.lib2.5.55311
ItalicAngle: -13
UnderlinePosition: -70
UnderlineWidth: 30
Ascent: 800
Descent: 200
sfntRevision: 0x00010000
LayerCount: 2
Layer: 0 1 "Back"  1
Layer: 1 1 "Fore"  0
XUID: [1021 375 703960121 662073]
FSType: 8
OS2Version: 3
OS2_WeightWidthSlopeOnly: 0
OS2_UseTypoMetrics: 1
CreationTime: 1349090882
ModificationTime: 1349108894
PfmFamily: 81
TTFWeight: 200
TTFWidth: 5
LineGap: 0
VLineGap: 0
Panose: 0 0 3 0 0 0 0 0 0 0
OS2TypoAscent: 1133
OS2TypoAOffset: 0
OS2TypoDescent: -388
OS2TypoDOffset: 0
OS2TypoLinegap: 0
OS2WinAscent: 1133
OS2WinAOffset: 0
OS2WinDescent: 388
OS2WinDOffset: 0
HheadAscent: 1133
HheadAOffset: 0
HheadDescent: -388
HheadDOffset: 0
OS2SubXSize: 650
OS2SubYSize: 600
OS2SubXOff: -17
OS2SubYOff: 75
OS2SupXSize: 650
OS2SupYSize: 600
OS2SupXOff: 81
OS2SupYOff: 350
OS2StrikeYSize: 30
OS2StrikeYPos: 300
OS2Vendor: 'UKWN'
OS2CodePages: 20000093.00000000
OS2UnicodeRanges: 00000007.00000001.00000000.00000000
Lookup: 1 0 0 "'locl' Localized Forms in Latin lookup 0"  {"'locl' Localized Forms in Latin lookup 0 subtable"  } ['locl' ('DFLT' <'dflt' > 'latn' <'dflt' > ) ]
Lookup: 1 0 0 "'frac' Diagonal Fractions in Latin lookup 1"  {"'frac' Diagonal Fractions in Latin lookup 1 subtable"  } ['frac' ('DFLT' <'dflt' > 'latn' <'dflt' > ) ]
Lookup: 6 0 0 "'frac' Diagonal Fractions in Latin lookup 2"  {"'frac' Diagonal Fractions in Latin lookup 2 subtable"  } ['frac' ('DFLT' <'dflt' > 'latn' <'dflt' > ) ]
Lookup: 1 0 0 "'frac' Diagonal Fractions in Latin lookup 3"  {"'frac' Diagonal Fractions in Latin lookup 3 subtable"  } ['frac' ('DFLT' <'dflt' > 'latn' <'dflt' > ) ]

StartChar: exclam
Encoding: 33 33 4
Width: 207
GlyphClass: 2
Flags: W
LayerCount: 2
Fore
SplineSet
135 211 m 1,0,-1
 248 700 l 1,1,-1
 281 700 l 1,2,-1
 163 211 l 1,3,-1
 135 211 l 1,0,-1
89 0 m 1,4,-1
 108 83 l 1,5,-1
 144 83 l 1,6,-1
 125 0 l 1,7,-1
 89 0 l 1,4,-1
EndSplineSet
EndChar

StartChar: quotedbl
Encoding: 34 34 5
Width: 317
GlyphClass: 2
Flags: W
LayerCount: 2
Fore
SplineSet
356 486 m 1,0,-1
 323 486 l 1,1,-1
 371 698 l 1,2,-1
 406 698 l 1,3,-1
 356 486 l 1,0,-1
217 486 m 1,4,-1
 184 486 l 1,5,-1
 232 698 l 1,6,-1
 267 698 l 1,7,-1
 217 486 l 1,4,-1
EndSplineSet
EndChar

StartChar: numbersign
Encoding: 35 35 6
Width: 560
GlyphClass: 2
Flags: W
LayerCount: 2
Fore
SplineSet
571 190 m 1,0,-1
 451 190 l 1,1,-1
 405 0 l 1,2,-1
 369 0 l 1,3,-1
 415 190 l 1,4,-1
 227 190 l 1,5,-1
 181 0 l 1,6,-1
 145 0 l 1,7,-1
 191 190 l 1,8,-1
 71 190 l 1,9,-1
 79 222 l 1,10,-1
 199 222 l 1,11,-1
 255 448 l 1,12,-1
 135 448 l 1,13,-1
 143 480 l 1,14,-1
 263 480 l 1,15,-1
 311 670 l 1,16,-1
 347 670 l 1,17,-1
 299 480 l 1,18,-1
 487 480 l 1,19,-1
 535 670 l 1,20,-1
 571 670 l 1,21,-1
 523 480 l 1,22,-1
 643 480 l 1,23,-1
 635 448 l 1,24,-1
 515 448 l 1,25,-1
 459 222 l 1,26,-1
 579 222 l 1,27,-1
 571 190 l 1,0,-1
423 222 m 1,28,-1
 479 448 l 1,29,-1
 291 448 l 1,30,-1
 235 222 l 1,31,-1
 423 222 l 1,28,-1
EndSplineSet
EndChar

StartChar: dollar
Encoding: 36 36 7
Width: 560
GlyphClass: 2
Flags: W
LayerCount: 2
Fore
SplineSet
442 670 m 1,0,-1
 460 669 l 1,1,-1
 503 790 l 1,2,-1
 536 790 l 1,3,-1
 492 667 l 1,4,5
 544 663 544 663 589 654 c 2,6,-1
 604 651 l 1,7,-1
 598 622 l 1,8,9
 538 632 538 632 481 637 c 1,10,-1
 380 356 l 1,11,12
 452 334 452 334 483 307 c 128,-1,13
 514 280 514 280 514 220 c 0,14,15
 514 115 514 115 452 53 c 128,-1,16
 390 -9 390 -9 285 -9 c 0,17,18
 261 -9 261 -9 249 -8 c 1,19,-1
 209 -120 l 1,20,-1
 178 -120 l 1,21,-1
 218 -6 l 1,22,-1
 100 8 l 1,23,-1
 106 39 l 1,24,25
 168 30 168 30 230 25 c 1,26,-1
 340 333 l 1,27,28
 269 354 269 354 237.5 381 c 128,-1,29
 206 408 206 408 206 465 c 0,30,31
 206 566 206 566 269.5 618 c 128,-1,32
 333 670 333 670 442 670 c 1,0,-1
478 219 m 0,33,34
 478 266 478 266 455.5 286.5 c 128,-1,35
 433 307 433 307 369 325 c 1,36,-1
 260 23 l 1,37,-1
 291 23 l 2,38,39
 379 23 379 23 428.5 76 c 128,-1,40
 478 129 478 129 478 219 c 0,33,34
241 465 m 0,41,42
 241 423 241 423 265.5 403.5 c 128,-1,43
 290 384 290 384 351 365 c 1,44,-1
 449 639 l 1,45,-1
 435 639 l 2,46,47
 344 639 344 639 292.5 595 c 128,-1,48
 241 551 241 551 241 465 c 0,41,42
EndSplineSet
EndChar

StartChar: percent
Encoding: 37 37 8
Width: 560
GlyphClass: 2
Flags: W
LayerCount: 2
Fore
SplineSet
351 620 m 0,0,1
 351 670 351 670 301 670 c 0,2,3
 265 670 265 670 242.5 645 c 128,-1,4
 220 620 220 620 209.5 579.5 c 128,-1,5
 199 539 199 539 199 517 c 0,6,7
 199 462 199 462 249 462 c 0,8,9
 285 462 285 462 307.5 488.5 c 128,-1,10
 330 515 330 515 340.5 556.5 c 128,-1,11
 351 598 351 598 351 620 c 0,0,1
186 6 m 1,12,-1
 503 701 l 1,13,-1
 535 696 l 1,14,-1
 218 1 l 1,15,-1
 186 6 l 1,12,-1
309 702 m 0,16,17
 386 702 386 702 386 626 c 0,18,19
 386 601 386 601 378 568 c 0,20,21
 361 499 361 499 324.5 464.5 c 128,-1,22
 288 430 288 430 240.5 430 c 128,-1,23
 193 430 193 430 174 464 c 0,24,25
 164 483 164 483 164 509.5 c 128,-1,26
 164 536 164 536 172 569 c 0,27,28
 206 702 206 702 309 702 c 0,16,17
482 272 m 0,29,30
 560 272 560 272 560 196 c 0,31,32
 560 171 560 171 552 138 c 0,33,34
 535 69 535 69 498.5 34.5 c 128,-1,35
 462 0 462 0 414.5 0 c 128,-1,36
 367 0 367 0 348 34 c 0,37,38
 338 53 338 53 338 79.5 c 128,-1,39
 338 106 338 106 346 139 c 0,40,41
 380 272 380 272 482 272 c 0,29,30
525 189 m 0,42,43
 525 240 525 240 474 240 c 0,44,45
 438 240 438 240 416 215.5 c 128,-1,46
 394 191 394 191 384 150 c 128,-1,47
 374 109 374 109 374 88 c 0,48,49
 374 32 374 32 422 32 c 0,50,51
 490 32 490 32 517 138 c 0,52,53
 525 168 525 168 525 189 c 0,42,43
EndSplineSet
EndChar

StartChar: ampersand
Encoding: 38 38 9
Width: 631
GlyphClass: 2
Flags: W
LayerCount: 2
Fore
SplineSet
451 709 m 0,0,1
 572 709 572 709 572 605 c 0,2,3
 572 448 572 448 362 371 c 1,4,-1
 496 185 l 1,5,6
 538 258 538 258 562 329 c 1,7,-1
 600 329 l 1,8,9
 572 240 572 240 520 156 c 1,10,-1
 623 21 l 1,11,-1
 598 -3 l 1,12,-1
 499 125 l 1,13,14
 398 -9 398 -9 260 -9 c 0,15,16
 171 -9 171 -9 127 26.5 c 128,-1,17
 83 62 83 62 83 142 c 0,18,19
 83 248 83 248 131.5 309.5 c 128,-1,20
 180 371 180 371 295 413 c 1,21,22
 271 465 271 465 271 507 c 0,23,24
 271 599 271 599 318.5 654 c 128,-1,25
 366 709 366 709 451 709 c 0,0,1
260 25 m 0,26,27
 389 25 389 25 476 154 c 1,28,-1
 312 383 l 1,29,30
 207 346 207 346 164 290 c 128,-1,31
 121 234 121 234 121 142 c 0,32,33
 121 25 121 25 260 25 c 0,26,27
344.5 629.5 m 128,-1,35
 309 582 309 582 309 516.5 c 128,-1,36
 309 451 309 451 345 399 c 1,37,38
 444 437 444 437 489 486 c 128,-1,39
 534 535 534 535 534 606 c 128,-1,40
 534 677 534 677 448 677 c 0,41,34
 380 677 380 677 344.5 629.5 c 128,-1,35
EndSplineSet
EndChar

StartChar: quotesingle
Encoding: 39 39 10
Width: 178
GlyphClass: 2
Flags: W
LayerCount: 2
Fore
SplineSet
217 486 m 1,0,-1
 184 486 l 1,1,-1
 232 698 l 1,2,-1
 267 698 l 1,3,-1
 217 486 l 1,0,-1
EndSplineSet
EndChar

StartChar: parenleft
Encoding: 40 40 11
Width: 223
GlyphClass: 2
Flags: W
LayerCount: 2
Fore
SplineSet
160 288.5 m 128,-1,1
 136 188 136 188 136 113 c 0,2,3
 136 -26 136 -26 146 -100 c 1,4,-1
 150 -124 l 1,5,-1
 117 -124 l 1,6,7
 101 -45 101 -45 101 74 c 128,-1,8
 101 193 101 193 123.5 294 c 128,-1,9
 146 395 146 395 178 472 c 0,10,11
 245 632 245 632 298 714 c 1,12,-1
 321 748 l 1,13,-1
 356 748 l 1,14,15
 322 696 322 696 282 616 c 128,-1,16
 242 536 242 536 213 462.5 c 128,-1,0
 184 389 184 389 160 288.5 c 128,-1,1
EndSplineSet
Substitution2: "'case' Case-Sensitive Forms in Latin lookup 4 subtable" parenleft.cap
EndChar

StartChar: parenright
Encoding: 41 41 12
Width: 222
GlyphClass: 2
Flags: W
LayerCount: 2
Fore
SplineSet
207 341.5 m 128,-1,1
 231 442 231 442 231 517 c 0,2,3
 231 656 231 656 220 730 c 1,4,-1
 217 754 l 1,5,-1
 250 754 l 1,6,7
 266 675 266 675 266 556 c 128,-1,8
 266 437 266 437 243.5 336 c 128,-1,9
 221 235 221 235 188 158 c 1,10,11
 122 -2 122 -2 68 -84 c 2,12,-1
 46 -118 l 1,13,-1
 11 -118 l 1,14,15
 45 -66 45 -66 85 14 c 128,-1,16
 125 94 125 94 154 167.5 c 128,-1,0
 183 241 183 241 207 341.5 c 128,-1,1
EndSplineSet
Substitution2: "'case' Case-Sensitive Forms in Latin lookup 4 subtable" parenright.cap
EndChar

StartChar: asterisk
Encoding: 42 42 13
Width: 407
GlyphClass: 2
Flags: W
LayerCount: 2
Fore
SplineSet
480 519 m 1,0,-1
 343 519 l 1,1,-1
 385 390 l 1,2,-1
 353 380 l 1,3,-1
 311 510 l 1,4,-1
 201 431 l 1,5,-1
 182 458 l 1,6,-1
 292 538 l 1,7,-1
 183 618 l 1,8,-1
 203 645 l 1,9,-1
 313 564 l 1,10,-1
 355 693 l 1,11,-1
 387 683 l 1,12,-1
 345 553 l 1,13,-1
 480 553 l 1,14,-1
 480 519 l 1,0,-1
EndSplineSet
EndChar

StartChar: plus
Encoding: 43 43 14
Width: 560
GlyphClass: 2
Flags: W
LayerCount: 2
Fore
SplineSet
117 234 m 1,0,-1
 117 268 l 1,1,-1
 319 268 l 1,2,-1
 319 480 l 1,3,-1
 355 480 l 1,4,-1
 355 268 l 1,5,-1
 559 268 l 1,6,-1
 559 234 l 1,7,-1
 355 234 l 1,8,-1
 355 20 l 1,9,-1
 319 20 l 1,10,-1
 319 234 l 1,11,-1
 117 234 l 1,0,-1
EndSplineSet
EndChar

StartChar: comma
Encoding: 44 44 15
Width: 189
GlyphClass: 2
Flags: W
LayerCount: 2
Fore
SplineSet
43 -129 m 1,0,-1
 15 -129 l 1,1,-1
 101 83 l 1,2,-1
 141 83 l 1,3,-1
 43 -129 l 1,0,-1
EndSplineSet
EndChar

StartChar: hyphen
Encoding: 45 45 16
Width: 383
GlyphClass: 2
Flags: W
LayerCount: 2
Fore
SplineSet
128 252 m 1,0,-1
 136 287 l 1,1,-1
 380 287 l 1,2,-1
 371 252 l 1,3,-1
 128 252 l 1,0,-1
EndSplineSet
EndChar

StartChar: period
Encoding: 46 46 17
Width: 179
GlyphClass: 2
Flags: W
LayerCount: 2
Fore
SplineSet
72 0 m 1,0,-1
 91 83 l 1,1,-1
 127 83 l 1,2,-1
 108 0 l 1,3,-1
 72 0 l 1,0,-1
EndSplineSet
EndChar

StartChar: slash
Encoding: 47 47 18
Width: 386
GlyphClass: 2
Flags: W
LayerCount: 2
Fore
SplineSet
78 -1 m 1,0,-1
 45 12 l 1,1,-1
 470 700 l 1,2,-1
 503 686 l 1,3,-1
 78 -1 l 1,0,-1
EndSplineSet
Substitution2: "'frac' Diagonal Fractions in Latin lookup 3 subtable" fraction
EndChar

StartChar: zero
Encoding: 48 48 19
Width: 560
GlyphClass: 2
Flags: W
LayerCount: 2
Fore
SplineSet
278.5 621.5 m 128,-1,1
 340 670 340 670 424 670 c 128,-1,2
 508 670 508 670 557 623 c 128,-1,3
 606 576 606 576 606 485 c 0,4,5
 606 367 606 367 571.5 256.5 c 128,-1,6
 537 146 537 146 463 68.5 c 128,-1,7
 389 -9 389 -9 296.5 -9 c 128,-1,8
 204 -9 204 -9 155 36.5 c 128,-1,9
 106 82 106 82 106 167 c 128,-1,10
 106 252 106 252 125.5 336.5 c 128,-1,11
 145 421 145 421 181 497 c 128,-1,0
 217 573 217 573 278.5 621.5 c 128,-1,1
530 598 m 128,-1,13
 490 637 490 637 419.5 637 c 128,-1,14
 349 637 349 637 294 590.5 c 128,-1,15
 239 544 239 544 207 472 c 0,16,17
 142 324 142 324 142 173 c 0,18,19
 142 98 142 98 182 61 c 128,-1,20
 222 24 222 24 290 24 c 128,-1,21
 358 24 358 24 412.5 67 c 128,-1,22
 467 110 467 110 500 178 c 0,23,24
 570 321 570 321 570 485 c 0,25,12
 570 559 570 559 530 598 c 128,-1,13
EndSplineSet
Substitution2: "'frac' Diagonal Fractions in Latin lookup 1 subtable" zerosuperior
EndChar

StartChar: one
Encoding: 49 49 20
Width: 560
GlyphClass: 2
Flags: W
LayerCount: 2
Fore
SplineSet
256 533 m 1,0,-1
 485 661 l 1,1,-1
 517 661 l 1,2,-1
 366 0 l 1,3,-1
 330 0 l 1,4,-1
 470 614 l 1,5,-1
 264 501 l 1,6,-1
 256 533 l 1,0,-1
EndSplineSet
Substitution2: "'frac' Diagonal Fractions in Latin lookup 1 subtable" onesuperior
EndChar

StartChar: two
Encoding: 50 50 21
Width: 560
GlyphClass: 2
Flags: W
LayerCount: 2
Fore
SplineSet
562 530 m 0,0,1
 562 638 562 638 418 638 c 0,2,3
 340 638 340 638 252 620 c 1,4,-1
 221 613 l 1,5,-1
 223 644 l 1,6,7
 326 671 326 671 418 671 c 0,8,9
 598 671 598 671 598 530 c 0,10,11
 598 460 598 460 549 397.5 c 128,-1,12
 500 335 500 335 408 261 c 2,13,-1
 128 33 l 1,14,-1
 499 33 l 1,15,-1
 491 0 l 1,16,-1
 70 0 l 1,17,-1
 77 30 l 1,18,-1
 371 273 l 2,19,20
 465 350 465 350 513.5 409 c 128,-1,21
 562 468 562 468 562 530 c 0,0,1
EndSplineSet
Substitution2: "'frac' Diagonal Fractions in Latin lookup 1 subtable" twosuperior
EndChar

StartChar: three
Encoding: 51 51 22
Width: 560
GlyphClass: 2
Flags: W
LayerCount: 2
Fore
SplineSet
424 670 m 0,0,1
 589 670 589 670 589 539 c 0,2,3
 589 470 589 470 547 422 c 128,-1,4
 505 374 505 374 443 353 c 1,5,6
 533 319 533 319 533 215 c 128,-1,7
 533 111 533 111 458 51 c 128,-1,8
 383 -9 383 -9 273 -9 c 0,9,10
 231 -9 231 -9 182.5 -1 c 128,-1,11
 134 7 134 7 107 16 c 2,12,-1
 80 24 l 1,13,-1
 89 56 l 1,14,15
 193 24 193 24 280.5 24 c 128,-1,16
 368 24 368 24 432.5 76 c 128,-1,17
 497 128 497 128 497 212 c 0,18,19
 497 268 497 268 463.5 300.5 c 128,-1,20
 430 333 430 333 361 333 c 2,21,-1
 230 333 l 1,22,-1
 239 366 l 1,23,-1
 369 366 l 2,24,25
 431 366 431 366 492 414 c 128,-1,26
 553 462 553 462 553 532 c 0,27,28
 553 588 553 588 521.5 612.5 c 128,-1,29
 490 637 490 637 434 637 c 0,30,31
 336 637 336 637 252 620 c 1,32,-1
 224 615 l 1,33,-1
 227 647 l 1,34,35
 327 670 327 670 424 670 c 0,0,1
EndSplineSet
Substitution2: "'frac' Diagonal Fractions in Latin lookup 1 subtable" threesuperior
EndChar

StartChar: four
Encoding: 52 52 23
Width: 560
GlyphClass: 2
Flags: W
LayerCount: 2
Fore
SplineSet
384 0 m 1,0,-1
 414 132 l 1,1,-1
 82 132 l 1,2,-1
 89 161 l 1,3,-1
 429 660 l 1,4,-1
 470 660 l 1,5,-1
 129 165 l 1,6,-1
 422 165 l 1,7,-1
 477 405 l 1,8,-1
 513 405 l 1,9,-1
 458 165 l 1,10,-1
 550 165 l 1,11,-1
 542 132 l 1,12,-1
 450 132 l 1,13,-1
 420 0 l 1,14,-1
 384 0 l 1,0,-1
EndSplineSet
Substitution2: "'frac' Diagonal Fractions in Latin lookup 1 subtable" foursuperior
EndChar

StartChar: five
Encoding: 53 53 24
Width: 560
GlyphClass: 2
Flags: W
LayerCount: 2
Fore
SplineSet
384 411 m 0,0,1
 553 411 553 411 553 275 c 0,2,3
 553 158 553 158 471 75.5 c 128,-1,4
 389 -7 389 -7 272 -7 c 0,5,6
 192 -7 192 -7 105 14 c 2,7,-1
 76 21 l 1,8,-1
 86 53 l 1,9,10
 195 26 195 26 276 26 c 0,11,12
 376 26 376 26 446.5 98.5 c 128,-1,13
 517 171 517 171 517 275 c 0,14,15
 517 325 517 325 481 351.5 c 128,-1,16
 445 378 445 378 378 378 c 0,17,18
 341 378 341 378 293.5 364 c 128,-1,19
 246 350 246 350 217 336 c 2,20,-1
 188 323 l 1,21,-1
 155 327 l 1,22,-1
 257 660 l 1,23,-1
 623 660 l 1,24,-1
 615 627 l 1,25,-1
 281 627 l 1,26,-1
 198 361 l 1,27,28
 302 411 302 411 384 411 c 0,0,1
EndSplineSet
Substitution2: "'frac' Diagonal Fractions in Latin lookup 1 subtable" fivesuperior
EndChar

StartChar: six
Encoding: 54 54 25
Width: 560
GlyphClass: 2
Flags: W
LayerCount: 2
Fore
SplineSet
619 620 m 1,0,1
 537 637 537 637 473.5 637 c 128,-1,2
 410 637 410 637 367 618.5 c 128,-1,3
 324 600 324 600 294.5 571.5 c 128,-1,4
 265 543 265 543 240 504 c 0,5,6
 200 440 200 440 178 358 c 1,7,8
 279 406 279 406 376 406 c 128,-1,9
 473 406 473 406 516.5 366 c 128,-1,10
 560 326 560 326 560 256 c 0,11,12
 560 137 560 137 489.5 64 c 128,-1,13
 419 -9 419 -9 297 -9 c 0,14,15
 211 -9 211 -9 166 48.5 c 128,-1,16
 121 106 121 106 121 213 c 0,17,18
 121 335 121 335 172 450 c 0,19,20
 200 512 200 512 239 560.5 c 128,-1,21
 278 609 278 609 338 639.5 c 128,-1,22
 398 670 398 670 469 670 c 0,23,24
 535 670 535 670 606 656 c 1,25,-1
 628 651 l 1,26,-1
 619 620 l 1,0,1
377 373 m 0,27,28
 335 373 335 373 283 360.5 c 128,-1,29
 231 348 231 348 200 336 c 2,30,-1
 169 323 l 1,31,32
 158 290 158 290 158 213 c 0,33,34
 158 24 158 24 296 24 c 0,35,36
 405 24 405 24 464.5 87 c 128,-1,37
 524 150 524 150 524 242 c 0,38,39
 524 308 524 308 490.5 340.5 c 128,-1,40
 457 373 457 373 377 373 c 0,27,28
EndSplineSet
Substitution2: "'frac' Diagonal Fractions in Latin lookup 1 subtable" sixsuperior
EndChar

StartChar: seven
Encoding: 55 55 26
Width: 560
GlyphClass: 2
Flags: W
LayerCount: 2
Fore
SplineSet
229 626 m 1,0,-1
 237 660 l 1,1,-1
 626 660 l 1,2,-1
 608 585 l 1,3,-1
 198 -9 l 1,4,-1
 166 5 l 1,5,-1
 572 592 l 1,6,-1
 580 626 l 1,7,-1
 229 626 l 1,0,-1
EndSplineSet
Substitution2: "'frac' Diagonal Fractions in Latin lookup 1 subtable" sevensuperior
EndChar

StartChar: eight
Encoding: 56 56 27
Width: 560
GlyphClass: 2
Flags: W
LayerCount: 2
Fore
SplineSet
440 670 m 0,0,1
 639 670 639 670 639 537 c 0,2,3
 639 478 639 478 590.5 422 c 128,-1,4
 542 366 542 366 456 348 c 1,5,6
 521 328 521 328 544.5 297 c 128,-1,7
 568 266 568 266 568 220 c 0,8,9
 568 201 568 201 564.5 179.5 c 128,-1,10
 561 158 561 158 543 122 c 128,-1,11
 525 86 525 86 496 59 c 128,-1,12
 467 32 467 32 408 11.5 c 128,-1,13
 349 -9 349 -9 270 -9 c 0,14,15
 66 -9 66 -9 66 118 c 0,16,17
 66 209 66 209 117 263 c 128,-1,18
 168 317 168 317 254 348 c 1,19,20
 202 368 202 368 182 395 c 128,-1,21
 162 422 162 422 162 463.5 c 128,-1,22
 162 505 162 505 176.5 538.5 c 128,-1,23
 191 572 191 572 221.5 602.5 c 128,-1,24
 252 633 252 633 308.5 651.5 c 128,-1,25
 365 670 365 670 440 670 c 0,0,1
150 50 m 128,-1,27
 195 24 195 24 264.5 24 c 128,-1,28
 334 24 334 24 378.5 37.5 c 128,-1,29
 423 51 423 51 450.5 71.5 c 128,-1,30
 478 92 478 92 497 118 c 0,31,32
 531 163 531 163 531 214 c 128,-1,33
 531 265 531 265 501.5 288.5 c 128,-1,34
 472 312 472 312 404 330 c 1,35,-1
 295 330 l 1,36,37
 216 309 216 309 160.5 259 c 128,-1,38
 105 209 105 209 105 122 c 0,39,26
 105 76 105 76 150 50 c 128,-1,27
431 637 m 0,40,41
 307 637 307 637 252.5 587.5 c 128,-1,42
 198 538 198 538 198 468 c 0,43,44
 198 393 198 393 303 362 c 1,45,-1
 412 362 l 1,46,47
 450 369 450 369 489 386 c 128,-1,48
 528 403 528 403 564 442 c 128,-1,49
 600 481 600 481 600 534 c 128,-1,50
 600 587 600 587 560.5 612 c 128,-1,51
 521 637 521 637 431 637 c 0,40,41
EndSplineSet
Substitution2: "'frac' Diagonal Fractions in Latin lookup 1 subtable" eightsuperior
EndChar

StartChar: nine
Encoding: 57 57 28
Width: 560
GlyphClass: 2
Flags: W
LayerCount: 2
Fore
SplineSet
433 670 m 0,0,1
 595 670 595 670 595 485 c 0,2,3
 595 416 595 416 571 324 c 0,4,5
 526 144 526 144 443.5 67.5 c 128,-1,6
 361 -9 361 -9 242 -9 c 0,7,8
 172 -9 172 -9 102 6 c 1,9,-1
 78 12 l 1,10,-1
 92 44 l 1,11,12
 174 25 174 25 251 25 c 0,13,14
 457 25 457 25 528 298 c 1,15,16
 396 256 396 256 308.5 256 c 128,-1,17
 221 256 221 256 180 306 c 0,18,19
 153 338 153 338 153 390 c 0,20,21
 153 420 153 420 162 457 c 0,22,23
 187 555 187 555 263 612.5 c 128,-1,24
 339 670 339 670 433 670 c 0,0,1
329 290 m 0,25,26
 391 290 391 290 502 322 c 1,27,-1
 538 333 l 1,28,29
 558 417 558 417 558 478 c 0,30,31
 558 636 558 636 424 636 c 0,32,33
 344 636 344 636 282.5 588 c 128,-1,34
 221 540 221 540 200 457 c 0,35,36
 192 425 192 425 192 391 c 128,-1,37
 192 357 192 357 213 332 c 0,38,39
 247 290 247 290 329 290 c 0,25,26
EndSplineSet
Substitution2: "'frac' Diagonal Fractions in Latin lookup 1 subtable" ninesuperior
EndChar

StartChar: colon
Encoding: 58 58 29
Width: 179
GlyphClass: 2
Flags: W
LayerCount: 2
Fore
SplineSet
152 352 m 1,0,-1
 171 435 l 1,1,-1
 207 435 l 1,2,-1
 188 352 l 1,3,-1
 152 352 l 1,0,-1
72 0 m 1,4,-1
 91 83 l 1,5,-1
 127 83 l 1,6,-1
 108 0 l 1,7,-1
 72 0 l 1,4,-1
EndSplineSet
EndChar

StartChar: semicolon
Encoding: 59 59 30
Width: 218
GlyphClass: 2
Flags: W
LayerCount: 2
Fore
SplineSet
32 -129 m 1,0,-1
 118 83 l 1,1,-1
 158 83 l 1,2,-1
 60 -129 l 1,3,-1
 32 -129 l 1,0,-1
174 352 m 1,4,-1
 193 435 l 1,5,-1
 229 435 l 1,6,-1
 210 352 l 1,7,-1
 174 352 l 1,4,-1
EndSplineSet
EndChar

StartChar: less
Encoding: 60 60 31
Width: 560
GlyphClass: 2
Flags: W
LayerCount: 2
Fore
SplineSet
525 446 m 1,0,-1
 134 251 l 1,1,-1
 525 56 l 1,2,-1
 525 15 l 1,3,-1
 101 233 l 1,4,-1
 101 269 l 1,5,-1
 525 485 l 1,6,-1
 525 446 l 1,0,-1
EndSplineSet
EndChar

StartChar: equal
Encoding: 61 61 32
Width: 560
GlyphClass: 2
Flags: W
LayerCount: 2
Fore
SplineSet
126 318 m 1,0,-1
 126 352 l 1,1,-1
 550 352 l 1,2,-1
 550 318 l 1,3,-1
 126 318 l 1,0,-1
126 149 m 1,4,-1
 126 183 l 1,5,-1
 550 183 l 1,6,-1
 550 149 l 1,7,-1
 126 149 l 1,4,-1
EndSplineSet
EndChar

StartChar: greater
Encoding: 62 62 33
Width: 560
GlyphClass: 2
Flags: W
LayerCount: 2
Fore
SplineSet
539 251 m 1,0,-1
 148 446 l 1,1,-1
 148 485 l 1,2,-1
 572 269 l 1,3,-1
 572 233 l 1,4,-1
 148 15 l 1,5,-1
 148 56 l 1,6,-1
 539 251 l 1,0,-1
EndSplineSet
EndChar

StartChar: question
Encoding: 63 63 34
Width: 403
GlyphClass: 2
Flags: W
LayerCount: 2
Fore
SplineSet
450.5 681.5 m 128,-1,1
 492 654 492 654 492 598.5 c 128,-1,2
 492 543 492 543 475 506.5 c 128,-1,3
 458 470 458 470 427 439.5 c 128,-1,4
 396 409 396 409 319 346 c 128,-1,5
 242 283 242 283 231 227 c 2,6,-1
 223 188 l 1,7,-1
 189 188 l 1,8,9
 191 210 191 210 195 231 c 0,10,11
 209 301 209 301 302 376 c 128,-1,12
 395 451 395 451 424.5 491.5 c 128,-1,13
 454 532 454 532 454 595 c 0,14,15
 454 675 454 675 334 675 c 0,16,17
 287 675 287 675 214 658 c 1,18,-1
 189 653 l 1,19,-1
 189 685 l 1,20,21
 276 709 276 709 342.5 709 c 128,-1,0
 409 709 409 709 450.5 681.5 c 128,-1,1
155 1 m 1,22,-1
 172 83 l 1,23,-1
 209 83 l 1,24,-1
 191 1 l 1,25,-1
 155 1 l 1,22,-1
EndSplineSet
EndChar

StartChar: at
Encoding: 64 64 35
Width: 916
GlyphClass: 2
Flags: W
LayerCount: 2
Fore
SplineSet
641 717 m 0,0,1
 731 717 731 717 795.5 695 c 128,-1,2
 860 673 860 673 895 636 c 0,3,4
 958 569 958 569 958 449 c 0,5,6
 958 386 958 386 938.5 300.5 c 128,-1,7
 919 215 919 215 897.5 157.5 c 128,-1,8
 876 100 876 100 856.5 67.5 c 128,-1,9
 837 35 837 35 810.5 17.5 c 128,-1,10
 784 0 784 0 762 -5 c 128,-1,11
 740 -10 740 -10 708 -10 c 0,12,13
 623 -10 623 -10 620 54 c 1,14,15
 494 -9 494 -9 428 -9 c 0,16,17
 346 -9 346 -9 325 48 c 0,18,19
 315 76 315 76 315 95.5 c 128,-1,20
 315 115 315 115 315 132 c 0,21,22
 316 153 316 153 324 198 c 0,23,24
 378 509 378 509 579 509 c 0,25,26
 641 509 641 509 741 489 c 1,27,28
 654 148 654 148 654 72 c 0,29,30
 654 41 654 41 667.5 32.5 c 128,-1,31
 681 24 681 24 710.5 24 c 128,-1,32
 740 24 740 24 758 29 c 128,-1,33
 776 34 776 34 796.5 50.5 c 128,-1,34
 817 67 817 67 834 98 c 0,35,36
 871 164 871 164 904 307 c 0,37,38
 923 390 923 390 923 439 c 128,-1,39
 923 488 923 488 911 533 c 128,-1,40
 899 578 899 578 868 610 c 0,41,42
 798 682 798 682 633 682 c 0,43,44
 434 682 434 682 322.5 587 c 128,-1,45
 211 492 211 492 154 261 c 0,46,47
 130 161 130 161 130 106.5 c 128,-1,48
 130 52 130 52 140.5 4.5 c 128,-1,49
 151 -43 151 -43 184 -80 c 0,50,51
 257 -162 257 -162 433 -162 c 1,52,-1
 569 -152 l 1,53,-1
 564 -188 l 1,54,55
 470 -197 470 -197 410 -197 c 128,-1,56
 350 -197 350 -197 291.5 -182 c 128,-1,57
 233 -167 233 -167 196.5 -142.5 c 128,-1,58
 160 -118 160 -118 136 -81 c 0,59,60
 92 -14 92 -14 92 88 c 0,61,62
 92 163 92 163 115 261 c 0,63,64
 173 510 173 510 295 613.5 c 128,-1,65
 417 717 417 717 641 717 c 0,0,1
574 477 m 0,66,67
 486 477 486 477 437 408 c 128,-1,68
 388 339 388 339 359 197 c 0,69,70
 351 156 351 156 351 125 c 0,71,72
 351 27 351 27 435 27 c 0,73,74
 504 27 504 27 620 88 c 1,75,76
 622 113 622 113 649 238.5 c 128,-1,77
 676 364 676 364 700 462 c 1,78,79
 640 477 640 477 574 477 c 0,66,67
EndSplineSet
EndChar

StartChar: A
Encoding: 65 65 36
Width: 556
GlyphClass: 2
Flags: W
LayerCount: 2
Fore
SplineSet
32 0 m 1,0,-1
 403 700 l 1,1,-1
 492 700 l 1,2,-1
 530 0 l 1,3,-1
 494 0 l 1,4,-1
 482 216 l 1,5,-1
 183 216 l 1,6,-1
 69 0 l 1,7,-1
 32 0 l 1,0,-1
423 667 m 1,8,-1
 201 248 l 1,9,-1
 480 248 l 1,10,-1
 459 667 l 1,11,-1
 423 667 l 1,8,-1
EndSplineSet
Position2: "'cpsp' Capital Spacing in Latin lookup 0 subtable" dx=5 dy=0 dh=10 dv=0
EndChar

StartChar: B
Encoding: 66 66 37
Width: 580
GlyphClass: 2
Flags: W
LayerCount: 2
Fore
SplineSet
462 700 m 2,0,1
 543 700 543 700 581.5 671 c 128,-1,2
 620 642 620 642 620 567.5 c 128,-1,3
 620 493 620 493 579 437.5 c 128,-1,4
 538 382 538 382 479 363 c 1,5,6
 575 338 575 338 575 243 c 0,7,8
 575 128 575 128 506.5 64 c 128,-1,9
 438 0 438 0 313 0 c 2,10,-1
 86 0 l 1,11,-1
 247 700 l 1,12,-1
 462 700 l 2,0,1
388 343 m 2,13,-1
 201 343 l 1,14,-1
 130 33 l 1,15,-1
 321 33 l 2,16,17
 424 33 424 33 480.5 89 c 128,-1,18
 537 145 537 145 537 242 c 0,19,20
 537 299 537 299 497.5 321 c 128,-1,21
 458 343 458 343 388 343 c 2,13,-1
455 667 m 2,22,-1
 275 667 l 1,23,-1
 208 376 l 1,24,-1
 396 376 l 2,25,26
 479 376 479 376 531 432.5 c 128,-1,27
 583 489 583 489 583 571 c 0,28,29
 583 626 583 626 553.5 646.5 c 128,-1,30
 524 667 524 667 455 667 c 2,22,-1
EndSplineSet
Position2: "'cpsp' Capital Spacing in Latin lookup 0 subtable" dx=5 dy=0 dh=10 dv=0
EndChar

StartChar: C
Encoding: 67 67 38
Width: 510
GlyphClass: 2
Flags: W
LayerCount: 2
Fore
SplineSet
306 -9 m 0,0,1
 121 -9 121 -9 121 190 c 0,2,3
 121 333 121 333 176 465 c 0,4,5
 238 615 238 615 342 676 c 1,6,7
 401 709 401 709 469 709 c 0,8,9
 543 709 543 709 608 695 c 2,10,-1
 632 690 l 1,11,-1
 624 658 l 1,12,13
 537 675 537 675 464.5 675 c 128,-1,14
 392 675 392 675 331.5 627.5 c 128,-1,15
 271 580 271 580 234 506 c 0,16,17
 159 353 159 353 159 190 c 0,18,19
 159 105 159 105 195.5 65 c 128,-1,20
 232 25 232 25 311 25 c 0,21,22
 387 25 387 25 451 39 c 2,23,-1
 474 44 l 1,24,-1
 473 11 l 1,25,26
 386 -9 386 -9 306 -9 c 0,0,1
EndSplineSet
Position2: "'cpsp' Capital Spacing in Latin lookup 0 subtable" dx=5 dy=0 dh=10 dv=0
EndChar

StartChar: D
Encoding: 68 68 39
Width: 608
GlyphClass: 2
Flags: W
LayerCount: 2
Fore
SplineSet
323 0 m 2,0,-1
 86 0 l 1,1,-1
 248 700 l 1,2,-1
 476 700 l 2,3,4
 567 700 567 700 606.5 650 c 128,-1,5
 646 600 646 600 646 508 c 128,-1,6
 646 416 646 416 626 332 c 128,-1,7
 606 248 606 248 568.5 172.5 c 128,-1,8
 531 97 531 97 466.5 48.5 c 128,-1,9
 402 0 402 0 323 0 c 2,0,-1
589.5 344 m 128,-1,11
 608 423 608 423 608 504 c 128,-1,12
 608 585 608 585 576.5 626 c 128,-1,13
 545 667 545 667 469 667 c 2,14,-1
 276 667 l 1,15,-1
 131 33 l 1,16,-1
 332 33 l 2,17,18
 396 33 396 33 450 78.5 c 128,-1,19
 504 124 504 124 537.5 194.5 c 128,-1,10
 571 265 571 265 589.5 344 c 128,-1,11
EndSplineSet
Position2: "'cpsp' Capital Spacing in Latin lookup 0 subtable" dx=5 dy=0 dh=10 dv=0
EndChar

StartChar: E
Encoding: 69 69 40
Width: 510
GlyphClass: 2
Flags: W
LayerCount: 2
Fore
SplineSet
86 0 m 1,0,-1
 248 700 l 1,1,-1
 625 700 l 1,2,-1
 617 667 l 1,3,-1
 276 667 l 1,4,-1
 209 376 l 1,5,-1
 494 376 l 1,6,-1
 486 343 l 1,7,-1
 201 343 l 1,8,-1
 130 33 l 1,9,-1
 471 33 l 1,10,-1
 463 0 l 1,11,-1
 86 0 l 1,0,-1
EndSplineSet
Position2: "'cpsp' Capital Spacing in Latin lookup 0 subtable" dx=5 dy=0 dh=10 dv=0
EndChar

StartChar: F
Encoding: 70 70 41
Width: 485
GlyphClass: 2
Flags: W
LayerCount: 2
Fore
SplineSet
86 0 m 1,0,-1
 248 700 l 1,1,-1
 615 700 l 1,2,-1
 607 667 l 1,3,-1
 276 667 l 1,4,-1
 203 349 l 1,5,-1
 490 349 l 1,6,-1
 482 316 l 1,7,-1
 195 316 l 1,8,-1
 122 0 l 1,9,-1
 86 0 l 1,0,-1
EndSplineSet
Position2: "'cpsp' Capital Spacing in Latin lookup 0 subtable" dx=5 dy=0 dh=10 dv=0
EndChar

StartChar: G
Encoding: 71 71 42
Width: 575
GlyphClass: 2
Flags: W
LayerCount: 2
Fore
SplineSet
318 -9 m 0,0,1
 121 -9 121 -9 121 175 c 0,2,3
 121 331 121 331 175 466 c 0,4,5
 203 536 203 536 242.5 590 c 128,-1,6
 282 644 282 644 341.5 676.5 c 128,-1,7
 401 709 401 709 471 709 c 0,8,9
 550 709 550 709 638 690 c 2,10,-1
 665 684 l 1,11,-1
 655 654 l 1,12,13
 553 676 553 676 463 676 c 0,14,15
 402 676 402 676 351 644 c 128,-1,16
 300 612 300 612 265 560 c 128,-1,17
 230 508 230 508 206 442 c 0,18,19
 159 317 159 317 159 175 c 0,20,21
 159 24 159 24 320 24 c 0,22,23
 383 24 383 24 456 40 c 1,24,-1
 481 46 l 1,25,-1
 543 313 l 1,26,-1
 411 313 l 1,27,-1
 419 346 l 1,28,-1
 587 346 l 1,29,-1
 511 19 l 1,30,31
 409 -9 409 -9 318 -9 c 0,0,1
EndSplineSet
Position2: "'cpsp' Capital Spacing in Latin lookup 0 subtable" dx=5 dy=0 dh=10 dv=0
EndChar

StartChar: H
Encoding: 72 72 43
Width: 626
GlyphClass: 2
Flags: W
LayerCount: 2
Fore
SplineSet
504 0 m 1,0,-1
 581 334 l 1,1,-1
 199 334 l 1,2,-1
 122 0 l 1,3,-1
 86 0 l 1,4,-1
 248 700 l 1,5,-1
 284 700 l 1,6,-1
 207 367 l 1,7,-1
 589 367 l 1,8,-1
 666 700 l 1,9,-1
 702 700 l 1,10,-1
 540 0 l 1,11,-1
 504 0 l 1,0,-1
EndSplineSet
Position2: "'cpsp' Capital Spacing in Latin lookup 0 subtable" dx=5 dy=0 dh=10 dv=0
EndChar

StartChar: I
Encoding: 73 73 44
Width: 208
GlyphClass: 2
Flags: W
LayerCount: 2
Fore
SplineSet
86 0 m 1,0,-1
 248 700 l 1,1,-1
 284 700 l 1,2,-1
 122 0 l 1,3,-1
 86 0 l 1,0,-1
EndSplineSet
Position2: "'cpsp' Capital Spacing in Latin lookup 0 subtable" dx=5 dy=0 dh=10 dv=0
EndChar

StartChar: J
Encoding: 74 74 45
Width: 253
GlyphClass: 2
Flags: W
LayerCount: 2
Fore
SplineSet
332 700 m 1,0,-1
 195 107 l 2,1,2
 181 46 181 46 171 17 c 128,-1,3
 161 -12 161 -12 140.5 -35 c 128,-1,4
 120 -58 120 -58 90 -64.5 c 128,-1,5
 60 -71 60 -71 7 -71 c 1,6,-1
 13 -38 l 1,7,8
 88 -38 88 -38 113 -11 c 128,-1,9
 138 16 138 16 161 116 c 2,10,-1
 296 700 l 1,11,-1
 332 700 l 1,0,-1
EndSplineSet
Position2: "'cpsp' Capital Spacing in Latin lookup 0 subtable" dx=5 dy=0 dh=10 dv=0
EndChar

StartChar: K
Encoding: 75 75 46
Width: 508
GlyphClass: 2
Flags: W
LayerCount: 2
Fore
SplineSet
448 0 m 1,0,-1
 314 329 l 1,1,-1
 198 329 l 1,2,-1
 122 0 l 1,3,-1
 86 0 l 1,4,-1
 248 700 l 1,5,-1
 284 700 l 1,6,-1
 205 362 l 1,7,-1
 315 362 l 1,8,-1
 605 700 l 1,9,-1
 648 700 l 1,10,-1
 344 346 l 1,11,-1
 486 0 l 1,12,-1
 448 0 l 1,0,-1
EndSplineSet
Position2: "'cpsp' Capital Spacing in Latin lookup 0 subtable" dx=5 dy=0 dh=10 dv=0
EndChar

StartChar: L
Encoding: 76 76 47
Width: 441
GlyphClass: 2
Flags: W
LayerCount: 2
Fore
SplineSet
432 0 m 1,0,-1
 86 0 l 1,1,-1
 248 700 l 1,2,-1
 284 700 l 1,3,-1
 130 33 l 1,4,-1
 440 33 l 1,5,-1
 432 0 l 1,0,-1
EndSplineSet
Position2: "'cpsp' Capital Spacing in Latin lookup 0 subtable" dx=5 dy=0 dh=10 dv=0
EndChar

StartChar: M
Encoding: 77 77 48
Width: 774
GlyphClass: 2
Flags: W
LayerCount: 2
Fore
SplineSet
86 0 m 1,0,-1
 248 700 l 1,1,-1
 321 700 l 1,2,-1
 393 54 l 1,3,-1
 777 700 l 1,4,-1
 850 700 l 1,5,-1
 688 0 l 1,6,-1
 652 0 l 1,7,-1
 807 667 l 1,8,-1
 794 667 l 1,9,-1
 412 21 l 1,10,-1
 366 21 l 1,11,-1
 290 667 l 1,12,-1
 276 667 l 1,13,-1
 122 0 l 1,14,-1
 86 0 l 1,0,-1
EndSplineSet
Position2: "'cpsp' Capital Spacing in Latin lookup 0 subtable" dx=5 dy=0 dh=10 dv=0
EndChar

StartChar: N
Encoding: 78 78 49
Width: 617
GlyphClass: 2
Flags: W
LayerCount: 2
Fore
SplineSet
86 0 m 1,0,-1
 248 700 l 1,1,-1
 329 700 l 1,2,-1
 479 33 l 1,3,-1
 503 33 l 1,4,-1
 657 700 l 1,5,-1
 693 700 l 1,6,-1
 531 0 l 1,7,-1
 452 0 l 1,8,-1
 301 667 l 1,9,-1
 276 667 l 1,10,-1
 122 0 l 1,11,-1
 86 0 l 1,0,-1
EndSplineSet
Position2: "'cpsp' Capital Spacing in Latin lookup 0 subtable" dx=5 dy=0 dh=10 dv=0
EndChar

StartChar: O
Encoding: 79 79 50
Width: 636
GlyphClass: 2
Flags: W
LayerCount: 2
Fore
SplineSet
198.5 63 m 128,-1,1
 238 24 238 24 323 24 c 128,-1,2
 408 24 408 24 469 69 c 0,3,4
 550 130 550 130 593 253.5 c 128,-1,5
 636 377 636 377 636 504 c 0,6,7
 636 593 636 593 594 634.5 c 128,-1,8
 552 676 552 676 473.5 676 c 128,-1,9
 395 676 395 676 336 633 c 0,10,11
 253 572 253 572 206 445 c 128,-1,12
 159 318 159 318 159 196 c 0,13,0
 159 102 159 102 198.5 63 c 128,-1,1
631 246 m 128,-1,15
 588 123 588 123 509 57 c 128,-1,16
 430 -9 430 -9 324 -9 c 128,-1,17
 218 -9 218 -9 170 37.5 c 128,-1,18
 122 84 122 84 122 203.5 c 128,-1,19
 122 323 122 323 164.5 443 c 128,-1,20
 207 563 207 563 285 636 c 128,-1,21
 363 709 363 709 466.5 709 c 128,-1,22
 570 709 570 709 622 659 c 128,-1,23
 674 609 674 609 674 503 c 0,24,14
 674 369 674 369 631 246 c 128,-1,15
EndSplineSet
Position2: "'cpsp' Capital Spacing in Latin lookup 0 subtable" dx=5 dy=0 dh=10 dv=0
EndChar

StartChar: P
Encoding: 80 80 51
Width: 547
GlyphClass: 2
Flags: W
LayerCount: 2
Fore
SplineSet
377 256 m 2,0,-1
 181 256 l 1,1,-1
 122 0 l 1,2,-1
 86 0 l 1,3,-1
 248 700 l 1,4,-1
 481 700 l 2,5,6
 626 700 626 700 626 555 c 0,7,8
 626 428 626 428 561.5 342 c 128,-1,9
 497 256 497 256 377 256 c 2,0,-1
385 290 m 2,10,11
 485 290 485 290 536.5 367 c 128,-1,12
 588 444 588 444 588 555 c 0,13,14
 588 611 588 611 561 638.5 c 128,-1,15
 534 666 534 666 473 666 c 2,16,-1
 276 666 l 1,17,-1
 189 290 l 1,18,-1
 385 290 l 2,10,11
EndSplineSet
Position2: "'cpsp' Capital Spacing in Latin lookup 0 subtable" dx=5 dy=0 dh=10 dv=0
EndChar

StartChar: Q
Encoding: 81 81 52
Width: 636
GlyphClass: 2
Flags: W
LayerCount: 2
Fore
SplineSet
333 -9 m 0,0,1
 218 -9 218 -9 170 37.5 c 128,-1,2
 122 84 122 84 122 203.5 c 128,-1,3
 122 323 122 323 164.5 443 c 128,-1,4
 207 563 207 563 285 636 c 128,-1,5
 363 709 363 709 466.5 709 c 128,-1,6
 570 709 570 709 622 659 c 128,-1,7
 674 609 674 609 674 503 c 0,8,9
 674 369 674 369 631 246 c 0,10,11
 574 83 574 83 453 19 c 1,12,-1
 501 -128 l 1,13,-1
 467 -139 l 1,14,-1
 420 5 l 1,15,16
 378 -9 378 -9 333 -9 c 0,0,1
198.5 63 m 128,-1,18
 238 24 238 24 323 24 c 128,-1,19
 408 24 408 24 469 69 c 0,20,21
 550 130 550 130 593 253.5 c 128,-1,22
 636 377 636 377 636 504 c 0,23,24
 636 593 636 593 594 634.5 c 128,-1,25
 552 676 552 676 473.5 676 c 128,-1,26
 395 676 395 676 336 633 c 0,27,28
 253 572 253 572 206 445 c 128,-1,29
 159 318 159 318 159 196 c 0,30,17
 159 102 159 102 198.5 63 c 128,-1,18
EndSplineSet
Position2: "'cpsp' Capital Spacing in Latin lookup 0 subtable" dx=5 dy=0 dh=10 dv=0
EndChar

StartChar: R
Encoding: 82 82 53
Width: 568
GlyphClass: 2
Flags: W
LayerCount: 2
Fore
SplineSet
470 700 m 2,0,1
 550 700 550 700 589.5 665.5 c 128,-1,2
 629 631 629 631 629 560 c 128,-1,3
 629 489 629 489 610 439 c 128,-1,4
 591 389 591 389 560 360 c 0,5,6
 502 305 502 305 435 292 c 1,7,-1
 524 0 l 1,8,-1
 488 0 l 1,9,-1
 400 288 l 1,10,-1
 189 288 l 1,11,-1
 122 0 l 1,12,-1
 86 0 l 1,13,-1
 248 700 l 1,14,-1
 470 700 l 2,0,1
591 551 m 0,15,16
 591 615 591 615 560.5 641 c 128,-1,17
 530 667 530 667 462 667 c 2,18,-1
 276 667 l 1,19,-1
 196 321 l 1,20,-1
 383 321 l 2,21,22
 477 321 477 321 534 384 c 128,-1,23
 591 447 591 447 591 551 c 0,15,16
EndSplineSet
Position2: "'cpsp' Capital Spacing in Latin lookup 0 subtable" dx=5 dy=0 dh=10 dv=0
EndChar

StartChar: S
Encoding: 83 83 54
Width: 502
GlyphClass: 2
Flags: W
LayerCount: 2
Fore
SplineSet
415 676 m 0,0,1
 318 676 318 676 263.5 629.5 c 128,-1,2
 209 583 209 583 209 492 c 0,3,4
 209 444 209 444 239.5 423.5 c 128,-1,5
 270 403 270 403 351 379 c 128,-1,6
 432 355 432 355 465 326 c 128,-1,7
 498 297 498 297 498 233 c 0,8,9
 498 122 498 122 432.5 56.5 c 128,-1,10
 367 -9 367 -9 256 -9 c 0,11,12
 171 -9 171 -9 90 4 c 1,13,-1
 60 8 l 1,14,-1
 67 41 l 1,15,16
 185 24 185 24 270 24 c 128,-1,17
 355 24 355 24 407.5 80.5 c 128,-1,18
 460 137 460 137 460 232 c 0,19,20
 460 282 460 282 435 303.5 c 128,-1,21
 410 325 410 325 329.5 347.5 c 128,-1,22
 249 370 249 370 210.5 399 c 128,-1,23
 172 428 172 428 172 492 c 0,24,25
 172 598 172 598 239.5 653.5 c 128,-1,26
 307 709 307 709 422 709 c 0,27,28
 488 709 488 709 568 693 c 2,29,-1
 593 688 l 1,30,-1
 587 658 l 1,31,32
 485 676 485 676 415 676 c 0,0,1
EndSplineSet
Position2: "'cpsp' Capital Spacing in Latin lookup 0 subtable" dx=5 dy=0 dh=10 dv=0
EndChar

StartChar: T
Encoding: 84 84 55
Width: 477
GlyphClass: 2
Flags: W
LayerCount: 2
Fore
SplineSet
164 667 m 1,0,-1
 172 700 l 1,1,-1
 626 700 l 1,2,-1
 618 667 l 1,3,-1
 409 667 l 1,4,-1
 255 0 l 1,5,-1
 219 0 l 1,6,-1
 373 667 l 1,7,-1
 164 667 l 1,0,-1
EndSplineSet
Position2: "'cpsp' Capital Spacing in Latin lookup 0 subtable" dx=5 dy=0 dh=10 dv=0
EndChar

StartChar: U
Encoding: 85 85 56
Width: 593
GlyphClass: 2
Flags: W
LayerCount: 2
Fore
SplineSet
155 130 m 0,0,1
 155 25 155 25 313 25 c 0,2,3
 403 25 403 25 452 67.5 c 128,-1,4
 501 110 501 110 521 198 c 2,5,-1
 637 700 l 1,6,-1
 673 700 l 1,7,-1
 557 197 l 2,8,9
 533 93 533 93 475.5 42 c 128,-1,10
 418 -9 418 -9 320 -9 c 0,11,12
 119 -9 119 -9 119 129 c 0,13,14
 119 167 119 167 129 207 c 2,15,-1
 243 700 l 1,16,-1
 279 700 l 1,17,-1
 165 207 l 2,18,19
 155 165 155 165 155 130 c 0,0,1
EndSplineSet
Position2: "'cpsp' Capital Spacing in Latin lookup 0 subtable" dx=5 dy=0 dh=10 dv=0
EndChar

StartChar: V
Encoding: 86 86 57
Width: 538
GlyphClass: 2
Flags: W
LayerCount: 2
Fore
SplineSet
628 700 m 1,0,-1
 664 700 l 1,1,-1
 320 0 l 1,2,-1
 212 0 l 1,3,-1
 189 700 l 1,4,-1
 225 700 l 1,5,-1
 245 33 l 1,6,-1
 299 33 l 1,7,-1
 628 700 l 1,0,-1
EndSplineSet
Position2: "'cpsp' Capital Spacing in Latin lookup 0 subtable" dx=5 dy=0 dh=10 dv=0
EndChar

StartChar: W
Encoding: 87 87 58
Width: 805
GlyphClass: 2
Flags: W
LayerCount: 2
Fore
SplineSet
195 700 m 1,0,-1
 231 700 l 1,1,-1
 206 33 l 1,2,-1
 241 33 l 1,3,-1
 539 690 l 1,4,-1
 577 690 l 1,5,-1
 568 33 l 1,6,-1
 601 33 l 1,7,-1
 889 700 l 1,8,-1
 925 700 l 1,9,-1
 623 0 l 1,10,-1
 534 0 l 1,11,-1
 544 621 l 1,12,-1
 262 0 l 1,13,-1
 171 0 l 1,14,-1
 195 700 l 1,0,-1
EndSplineSet
Position2: "'cpsp' Capital Spacing in Latin lookup 0 subtable" dx=5 dy=0 dh=10 dv=0
EndChar

StartChar: X
Encoding: 88 88 59
Width: 509
GlyphClass: 2
Flags: W
LayerCount: 2
Fore
SplineSet
227 700 m 1,0,-1
 343 379 l 1,1,-1
 607 700 l 1,2,-1
 651 700 l 1,3,-1
 357 344 l 1,4,-1
 482 0 l 1,5,-1
 446 0 l 1,6,-1
 330 316 l 1,7,-1
 64 0 l 1,8,-1
 20 0 l 1,9,-1
 315 350 l 1,10,-1
 191 700 l 1,11,-1
 227 700 l 1,0,-1
EndSplineSet
Position2: "'cpsp' Capital Spacing in Latin lookup 0 subtable" dx=5 dy=0 dh=10 dv=0
EndChar

StartChar: Y
Encoding: 89 89 60
Width: 485
GlyphClass: 2
Flags: W
LayerCount: 2
Fore
SplineSet
627 700 m 1,0,-1
 326 301 l 1,1,-1
 256 0 l 1,2,-1
 220 0 l 1,3,-1
 291 308 l 1,4,-1
 178 700 l 1,5,-1
 214 700 l 1,6,-1
 317 339 l 1,7,-1
 587 700 l 1,8,-1
 627 700 l 1,0,-1
EndSplineSet
Position2: "'cpsp' Capital Spacing in Latin lookup 0 subtable" dx=5 dy=0 dh=10 dv=0
EndChar

StartChar: Z
Encoding: 90 90 61
Width: 498
GlyphClass: 2
Flags: W
LayerCount: 2
Fore
SplineSet
196 667 m 1,0,-1
 204 700 l 1,1,-1
 619 700 l 1,2,-1
 601 622 l 1,3,-1
 89 58 l 1,4,-1
 83 33 l 1,5,-1
 462 33 l 1,6,-1
 454 0 l 1,7,-1
 39 0 l 1,8,-1
 56 74 l 1,9,-1
 568 638 l 1,10,-1
 575 667 l 1,11,-1
 196 667 l 1,0,-1
EndSplineSet
Position2: "'cpsp' Capital Spacing in Latin lookup 0 subtable" dx=5 dy=0 dh=10 dv=0
EndChar

StartChar: bracketleft
Encoding: 91 91 62
Width: 296
GlyphClass: 2
Flags: W
LayerCount: 2
Fore
SplineSet
255 747 m 1,0,-1
 428 747 l 1,1,-1
 421 714 l 1,2,-1
 282 714 l 1,3,-1
 93 -89 l 1,4,-1
 232 -89 l 1,5,-1
 223 -122 l 1,6,-1
 51 -122 l 1,7,-1
 255 747 l 1,0,-1
EndSplineSet
Substitution2: "'case' Case-Sensitive Forms in Latin lookup 4 subtable" bracketleft.cap
EndChar

StartChar: backslash
Encoding: 92 92 63
Width: 387
GlyphClass: 2
Flags: W
LayerCount: 2
Fore
SplineSet
358 14 m 1,0,-1
 320 0 l 1,1,-1
 190 687 l 1,2,-1
 228 701 l 1,3,-1
 358 14 l 1,0,-1
EndSplineSet
EndChar

StartChar: bracketright
Encoding: 93 93 64
Width: 296
GlyphClass: 2
Flags: W
LayerCount: 2
Fore
SplineSet
186 -121 m 1,0,-1
 13 -121 l 1,1,-1
 20 -88 l 1,2,-1
 159 -88 l 1,3,-1
 348 715 l 1,4,-1
 209 715 l 1,5,-1
 218 748 l 1,6,-1
 390 748 l 1,7,-1
 186 -121 l 1,0,-1
EndSplineSet
Substitution2: "'case' Case-Sensitive Forms in Latin lookup 4 subtable" bracketright.cap
EndChar

StartChar: asciicircum
Encoding: 94 94 65
Width: 560
GlyphClass: 2
Flags: W
LayerCount: 2
Fore
SplineSet
522 323 m 1,0,-1
 355 624 l 1,1,-1
 197 323 l 1,2,-1
 157 323 l 1,3,-1
 337 660 l 1,4,-1
 373 660 l 1,5,-1
 562 323 l 1,6,-1
 522 323 l 1,0,-1
EndSplineSet
EndChar

StartChar: underscore
Encoding: 95 95 66
Width: 643
GlyphClass: 2
Flags: W
LayerCount: 2
Fore
SplineSet
79 -79 m 1,0,-1
 528 -79 l 1,1,-1
 518 -117 l 1,2,-1
 71 -117 l 1,3,-1
 79 -79 l 1,0,-1
EndSplineSet
EndChar

StartChar: grave
Encoding: 96 96 67
Width: 518
GlyphClass: 2
Flags: W
LayerCount: 2
Fore
SplineSet
322 721 m 1,0,-1
 482 626 l 1,1,-1
 464 604 l 1,2,-1
 304 696 l 1,3,-1
 322 721 l 1,0,-1
EndSplineSet
EndChar

StartChar: a
Encoding: 97 97 68
Width: 482
GlyphClass: 2
Flags: W
LayerCount: 2
Fore
SplineSet
215 -9 m 0,0,1
 95 -9 95 -9 95 118 c 0,2,3
 95 206 95 206 123 294 c 128,-1,4
 151 382 151 382 210 445.5 c 128,-1,5
 269 509 269 509 345 509 c 0,6,7
 396 509 396 509 489 494 c 2,8,-1
 520 489 l 1,9,-1
 444 163 l 2,10,11
 433 117 433 117 419 28 c 2,12,-1
 415 1 l 1,13,-1
 382 -1 l 1,14,15
 399 103 399 103 404 126 c 1,16,17
 400 121 400 121 393 111.5 c 128,-1,18
 386 102 386 102 364.5 79 c 128,-1,19
 343 56 343 56 321.5 38 c 128,-1,20
 300 20 300 20 270.5 5.5 c 128,-1,21
 241 -9 241 -9 215 -9 c 0,0,1
479 462 m 1,22,23
 406 477 406 477 342.5 477 c 128,-1,24
 279 477 279 477 228.5 416.5 c 128,-1,25
 178 356 178 356 155 276 c 128,-1,26
 132 196 132 196 132 118 c 0,27,28
 132 71 132 71 153 47.5 c 128,-1,29
 174 24 174 24 222 24 c 0,30,31
 276 24 276 24 369 126 c 0,32,33
 390 149 390 149 402 166 c 2,34,-1
 414 182 l 1,35,-1
 479 462 l 1,22,23
EndSplineSet
EndChar

StartChar: b
Encoding: 98 98 69
Width: 481
GlyphClass: 2
Flags: W
LayerCount: 2
Fore
SplineSet
378 509 m 0,0,1
 450 509 450 509 475.5 472.5 c 128,-1,2
 501 436 501 436 501 363 c 0,3,4
 501 284 501 284 467 190 c 0,5,6
 448 138 448 138 420.5 94 c 128,-1,7
 393 50 393 50 348.5 20.5 c 128,-1,8
 304 -9 304 -9 250 -9 c 0,9,10
 192 -9 192 -9 105 6 c 2,11,-1
 76 11 l 1,12,-1
 242 730 l 1,13,-1
 277 730 l 1,14,-1
 204 416 l 1,15,16
 210 423 210 423 234.5 443.5 c 128,-1,17
 259 464 259 464 278 476 c 0,18,19
 329 509 329 509 378 509 c 0,0,1
117 38 m 1,20,21
 203 23 203 23 254.5 23 c 128,-1,22
 306 23 306 23 351 65 c 128,-1,23
 396 107 396 107 418 166 c 0,24,25
 464 287 464 287 464 354 c 128,-1,26
 464 421 464 421 445.5 448.5 c 128,-1,27
 427 476 427 476 368 476 c 0,28,29
 334 476 334 476 290.5 449 c 128,-1,30
 247 422 247 422 220 394 c 2,31,-1
 193 367 l 1,32,-1
 117 38 l 1,20,21
EndSplineSet
EndChar

StartChar: c
Encoding: 99 99 70
Width: 403
GlyphClass: 2
Flags: W
LayerCount: 2
Fore
SplineSet
363 509 m 0,0,1
 411 509 411 509 456 501 c 2,2,-1
 472 498 l 1,3,-1
 463 467 l 1,4,5
 406 477 406 477 363 477 c 0,6,7
 288 477 288 477 235 426 c 0,8,9
 136 329 136 329 136 132 c 0,10,11
 136 78 136 78 164.5 50.5 c 128,-1,12
 193 23 193 23 257 23 c 0,13,14
 294 23 294 23 352 37 c 2,15,-1
 372 42 l 1,16,-1
 372 10 l 1,17,18
 305 -9 305 -9 249 -9 c 0,19,20
 99 -9 99 -9 99 129 c 0,21,22
 99 347 99 347 215 452 c 0,23,24
 277 509 277 509 363 509 c 0,0,1
EndSplineSet
EndChar

StartChar: d
Encoding: 100 100 71
Width: 481
GlyphClass: 2
Flags: W
LayerCount: 2
Fore
SplineSet
209 -9 m 0,0,1
 95 -9 95 -9 95 117 c 0,2,3
 95 207 95 207 123.5 295 c 128,-1,4
 152 383 152 383 210.5 446 c 128,-1,5
 269 509 269 509 343 509 c 0,6,7
 406 509 406 509 466 497 c 2,8,-1
 486 493 l 1,9,-1
 541 730 l 1,10,-1
 576 730 l 1,11,-1
 407 0 l 1,12,-1
 373 0 l 1,13,-1
 399 114 l 1,14,15
 395 109 395 109 388.5 100.5 c 128,-1,16
 382 92 382 92 361 71 c 128,-1,17
 340 50 340 50 319 34 c 128,-1,18
 298 18 298 18 267.5 4.5 c 128,-1,19
 237 -9 237 -9 209 -9 c 0,0,1
479 462 m 1,20,21
 409 477 409 477 344 477 c 128,-1,22
 279 477 279 477 228.5 416.5 c 128,-1,23
 178 356 178 356 155 275.5 c 128,-1,24
 132 195 132 195 132 117 c 0,25,26
 132 23 132 23 219 23 c 0,27,28
 243 23 243 23 272 38.5 c 128,-1,29
 301 54 301 54 325 76 c 0,30,31
 374 121 374 121 400 156 c 2,32,-1
 412 172 l 1,33,-1
 479 462 l 1,20,21
EndSplineSet
EndChar

StartChar: e
Encoding: 101 101 72
Width: 452
GlyphClass: 2
Flags: W
LayerCount: 2
Fore
SplineSet
163.5 54.5 m 128,-1,1
 193 25 193 25 236 25 c 0,2,3
 310 25 310 25 385 47 c 2,4,-1
 409 54 l 1,5,-1
 409 21 l 1,6,7
 323 -9 323 -9 237 -9 c 0,8,9
 173 -9 173 -9 135 27.5 c 128,-1,10
 97 64 97 64 97 130 c 128,-1,11
 97 196 97 196 113.5 261 c 128,-1,12
 130 326 130 326 161.5 382.5 c 128,-1,13
 193 439 193 439 245.5 474 c 128,-1,14
 298 509 298 509 364 509 c 0,15,16
 494 509 494 509 494 406 c 0,17,18
 494 321 494 321 425 285.5 c 128,-1,19
 356 250 356 250 212 250 c 2,20,-1
 149 250 l 1,21,22
 134 190 134 190 134 137 c 128,-1,0
 134 84 134 84 163.5 54.5 c 128,-1,1
221 282 m 2,23,24
 344 282 344 282 401 308.5 c 128,-1,25
 458 335 458 335 458 406 c 128,-1,26
 458 477 458 477 363 477 c 0,27,28
 217 477 217 477 156 282 c 1,29,-1
 221 282 l 2,23,24
EndSplineSet
EndChar

StartChar: f
Encoding: 102 102 73
Width: 297
GlyphClass: 2
Flags: W
LayerCount: 2
Fore
SplineSet
381 739 m 0,0,1
 410 739 410 739 446 733 c 2,2,-1
 458 731 l 1,3,-1
 450 700 l 1,4,5
 408 707 408 707 367 707 c 128,-1,6
 326 707 326 707 300.5 673.5 c 128,-1,7
 275 640 275 640 254 557 c 2,8,-1
 240 500 l 1,9,-1
 394 500 l 1,10,-1
 385 468 l 1,11,-1
 234 468 l 1,12,-1
 125 0 l 1,13,-1
 66 -230 l 1,14,-1
 37 -230 l 1,15,-1
 198 468 l 1,16,-1
 134 468 l 1,17,-1
 142 500 l 1,18,-1
 205 500 l 1,19,-1
 219 559 l 2,20,21
 243 658 243 658 280 698.5 c 128,-1,22
 317 739 317 739 381 739 c 0,0,1
EndSplineSet
EndChar

StartChar: g
Encoding: 103 103 74
Width: 458
GlyphClass: 2
Flags: W
LayerCount: 2
Fore
SplineSet
329 509 m 0,0,1
 378 509 378 509 408 494 c 1,2,-1
 557 500 l 1,3,-1
 549 465 l 1,4,-1
 439 465 l 1,5,6
 464 433 464 433 464 392.5 c 128,-1,7
 464 352 464 352 452 317.5 c 128,-1,8
 440 283 440 283 416 251 c 128,-1,9
 392 219 392 219 349 198.5 c 128,-1,10
 306 178 306 178 252 178 c 1,11,-1
 226 180 l 1,12,13
 185 127 185 127 185 94 c 0,14,15
 185 74 185 74 203.5 66 c 128,-1,16
 222 58 222 58 294.5 50 c 128,-1,17
 367 42 367 42 400 16.5 c 128,-1,18
 433 -9 433 -9 433 -62 c 0,19,20
 433 -132 433 -132 362 -185.5 c 128,-1,21
 291 -239 291 -239 177 -239 c 0,22,23
 107 -239 107 -239 65.5 -203 c 128,-1,24
 24 -167 24 -167 24 -112 c 0,25,26
 24 -22 24 -22 163 53 c 1,27,28
 150 64 150 64 150 87 c 128,-1,29
 150 110 150 110 163 134.5 c 128,-1,30
 176 159 176 159 188 174 c 1,31,-1
 201 188 l 1,32,33
 131 216 131 216 131 304 c 0,34,35
 131 378 131 378 184.5 443.5 c 128,-1,36
 238 509 238 509 329 509 c 0,0,1
98.5 -29 m 128,-1,38
 61 -66 61 -66 61 -108.5 c 128,-1,39
 61 -151 61 -151 93 -179 c 128,-1,40
 125 -207 125 -207 185 -207 c 0,41,42
 272 -207 272 -207 334 -165.5 c 128,-1,43
 396 -124 396 -124 396 -62 c 0,44,45
 396 -23 396 -23 370.5 -6.5 c 128,-1,46
 345 10 345 10 280 16.5 c 128,-1,47
 215 23 215 23 189 34 c 1,48,37
 136 8 136 8 98.5 -29 c 128,-1,38
260 210 m 0,49,50
 303 210 303 210 337 227.5 c 128,-1,51
 371 245 371 245 390 272 c 0,52,53
 428 324 428 324 428 375.5 c 128,-1,54
 428 427 428 427 404.5 452 c 128,-1,55
 381 477 381 477 325 477 c 0,56,57
 253 477 253 477 210 421 c 128,-1,58
 167 365 167 365 167 306 c 0,59,60
 167 210 167 210 260 210 c 0,49,50
EndSplineSet
EndChar

StartChar: h
Encoding: 104 104 75
Width: 489
GlyphClass: 2
Flags: W
LayerCount: 2
Fore
SplineSet
198 385 m 1,0,1
 297 509 297 509 384 509 c 0,2,3
 438 509 438 509 468.5 478 c 128,-1,4
 499 447 499 447 499 394 c 128,-1,5
 499 341 499 341 479 257 c 2,6,-1
 419 0 l 1,7,-1
 385 0 l 1,8,-1
 445 258 l 2,9,10
 464 336 464 336 464 384 c 0,11,12
 464 476 464 476 378 476 c 0,13,14
 353 476 353 476 324 461 c 128,-1,15
 295 446 295 446 272 424 c 0,16,17
 226 381 226 381 196 343 c 1,18,-1
 185 328 l 1,19,-1
 109 0 l 1,20,-1
 74 0 l 1,21,-1
 243 730 l 1,22,-1
 278 730 l 1,23,-1
 198 385 l 1,0,1
EndSplineSet
EndChar

StartChar: i
Encoding: 105 105 76
Width: 182
GlyphClass: 2
Flags: W
LayerCount: 2
Fore
SplineSet
73 0 m 1,0,-1
 189 500 l 1,1,-1
 224 500 l 1,2,-1
 108 0 l 1,3,-1
 73 0 l 1,0,-1
220 638 m 1,4,-1
 234 698 l 1,5,-1
 270 698 l 1,6,-1
 256 638 l 1,7,-1
 220 638 l 1,4,-1
EndSplineSet
EndChar

StartChar: j
Encoding: 106 106 77
Width: 182
GlyphClass: 2
Flags: W
LayerCount: 2
Fore
SplineSet
73 0 m 2,0,-1
 189 500 l 1,1,-1
 224 500 l 1,2,-1
 108 0 l 2,3,4
 81 -115 81 -115 51 -151.5 c 128,-1,5
 21 -188 21 -188 -87 -239 c 1,6,-1
 -99 -209 l 1,7,8
 -1 -160 -1 -160 25 -128.5 c 128,-1,9
 51 -97 51 -97 73 0 c 2,0,-1
223 642 m 1,10,-1
 236 700 l 1,11,-1
 271 700 l 1,12,-1
 258 642 l 1,13,-1
 223 642 l 1,10,-1
EndSplineSet
EndChar

StartChar: k
Encoding: 107 107 78
Width: 431
GlyphClass: 2
Flags: W
LayerCount: 2
Fore
SplineSet
109 0 m 1,0,-1
 74 0 l 1,1,-1
 243 730 l 1,2,-1
 278 730 l 1,3,-1
 177 293 l 1,4,-1
 261 293 l 1,5,-1
 478 500 l 1,6,-1
 524 500 l 1,7,-1
 288 274 l 1,8,-1
 401 0 l 1,9,-1
 362 0 l 1,10,-1
 253 261 l 1,11,-1
 169 261 l 1,12,-1
 109 0 l 1,0,-1
EndSplineSet
EndChar

StartChar: l
Encoding: 108 108 79
Width: 195
GlyphClass: 2
Flags: W
LayerCount: 2
Fore
SplineSet
80 0 m 1,0,-1
 249 730 l 1,1,-1
 284 730 l 1,2,-1
 115 0 l 1,3,-1
 80 0 l 1,0,-1
EndSplineSet
EndChar

StartChar: m
Encoding: 109 109 80
Width: 774
GlyphClass: 2
Flags: W
LayerCount: 2
Fore
SplineSet
198 387 m 1,0,1
 296 509 296 509 383 509 c 0,2,3
 414 509 414 509 436.5 498.5 c 128,-1,4
 459 488 459 488 470 473 c 0,5,6
 492 441 492 441 494 418 c 2,7,-1
 495 408 l 1,8,9
 505 419 505 419 521.5 436 c 128,-1,10
 538 453 538 453 584 481 c 128,-1,11
 630 509 630 509 676.5 509 c 128,-1,12
 723 509 723 509 753.5 478 c 128,-1,13
 784 447 784 447 784 396.5 c 128,-1,14
 784 346 784 346 764 257 c 2,15,-1
 704 0 l 1,16,-1
 669 0 l 1,17,-1
 729 258 l 2,18,19
 748 336 748 336 748 383 c 128,-1,20
 748 430 748 430 725 453 c 128,-1,21
 702 476 702 476 664.5 476 c 128,-1,22
 627 476 627 476 585.5 448 c 128,-1,23
 544 420 544 420 520 392 c 2,24,-1
 496 365 l 1,25,26
 495 327 495 327 478 257 c 2,27,-1
 418 0 l 1,28,-1
 383 0 l 1,29,-1
 443 258 l 2,30,31
 462 336 462 336 462 383.5 c 128,-1,32
 462 431 462 431 439.5 453.5 c 128,-1,33
 417 476 417 476 384.5 476 c 128,-1,34
 352 476 352 476 323 461 c 128,-1,35
 294 446 294 446 270 424 c 0,36,37
 221 379 221 379 196 345 c 2,38,-1
 185 330 l 1,39,-1
 108 0 l 1,40,-1
 73 0 l 1,41,-1
 189 500 l 1,42,-1
 224 500 l 1,43,-1
 198 387 l 1,0,1
EndSplineSet
EndChar

StartChar: n
Encoding: 110 110 81
Width: 488
GlyphClass: 2
Flags: W
LayerCount: 2
Fore
SplineSet
198 387 m 1,0,1
 296 509 296 509 383 509 c 0,2,3
 437 509 437 509 467.5 478 c 128,-1,4
 498 447 498 447 498 395.5 c 128,-1,5
 498 344 498 344 479 260 c 2,6,-1
 418 0 l 1,7,-1
 384 0 l 1,8,-1
 444 258 l 2,9,10
 463 336 463 336 463 384 c 0,11,12
 463 476 463 476 377 476 c 0,13,14
 352 476 352 476 323 461 c 128,-1,15
 294 446 294 446 270 424 c 0,16,17
 221 379 221 379 196 345 c 2,18,-1
 185 330 l 1,19,-1
 108 0 l 1,20,-1
 73 0 l 1,21,-1
 189 500 l 1,22,-1
 224 500 l 1,23,-1
 198 387 l 1,0,1
EndSplineSet
EndChar

StartChar: o
Encoding: 111 111 82
Width: 493
GlyphClass: 2
Flags: W
LayerCount: 2
Fore
SplineSet
349 509 m 0,0,1
 507 509 507 509 507 352 c 0,2,3
 507 198 507 198 436 94.5 c 128,-1,4
 365 -9 365 -9 252 -9 c 0,5,6
 99 -9 99 -9 99 139 c 0,7,8
 99 295 99 295 171 402 c 128,-1,9
 243 509 243 509 349 509 c 0,0,1
252 23 m 0,10,11
 349 23 349 23 410 118.5 c 128,-1,12
 471 214 471 214 471 352 c 0,13,14
 471 409 471 409 440.5 443 c 128,-1,15
 410 477 410 477 349 477 c 0,16,17
 256 477 256 477 195.5 377.5 c 128,-1,18
 135 278 135 278 135 139 c 0,19,20
 135 23 135 23 252 23 c 0,10,11
EndSplineSet
EndChar

StartChar: p
Encoding: 112 112 83
Width: 480
GlyphClass: 2
Flags: W
LayerCount: 2
Fore
SplineSet
381 509 m 0,0,1
 501 509 501 509 501 377 c 0,2,3
 501 293 501 293 473.5 206.5 c 128,-1,4
 446 120 446 120 387 55.5 c 128,-1,5
 328 -9 328 -9 253 -9 c 0,6,7
 187 -9 187 -9 130 4 c 1,8,-1
 110 8 l 1,9,-1
 55 -230 l 1,10,-1
 20 -230 l 1,11,-1
 189 500 l 1,12,-1
 223 500 l 1,13,-1
 197 386 l 1,14,15
 201 391 201 391 207.5 399.5 c 128,-1,16
 214 408 214 408 234.5 429 c 128,-1,17
 255 450 255 450 275.5 466 c 128,-1,18
 296 482 296 482 325.5 495.5 c 128,-1,19
 355 509 355 509 381 509 c 0,0,1
464 377 m 0,20,21
 464 476 464 476 380 476 c 0,22,23
 338 476 338 476 290.5 439 c 128,-1,24
 243 402 243 402 214 365 c 2,25,-1
 184 328 l 1,26,-1
 117 39 l 1,27,28
 187 23 187 23 244.5 23 c 128,-1,29
 302 23 302 23 344 59 c 128,-1,30
 386 95 386 95 411 150 c 0,31,32
 464 267 464 267 464 377 c 0,20,21
EndSplineSet
EndChar

StartChar: q
Encoding: 113 113 84
Width: 479
GlyphClass: 2
Flags: W
LayerCount: 2
Fore
SplineSet
397 113 m 1,0,1
 299 -9 299 -9 213 -9 c 0,2,3
 94 -9 94 -9 94 120 c 0,4,5
 94 250 94 250 158 374 c 0,6,7
 188 433 188 433 236.5 471 c 128,-1,8
 285 509 285 509 342 509 c 0,9,10
 403 509 403 509 490 494 c 2,11,-1
 519 489 l 1,12,-1
 355 -220 l 1,13,-1
 321 -220 l 1,14,-1
 397 113 l 1,0,1
478 462 m 1,15,16
 410 477 410 477 344.5 477 c 128,-1,17
 279 477 279 477 228.5 417 c 128,-1,18
 178 357 178 357 154.5 277.5 c 128,-1,19
 131 198 131 198 131 135 c 128,-1,20
 131 72 131 72 152.5 48 c 128,-1,21
 174 24 174 24 222 24 c 0,22,23
 245 24 245 24 273 39 c 128,-1,24
 301 54 301 54 324 76 c 0,25,26
 373 121 373 121 400 156 c 1,27,-1
 411 171 l 1,28,-1
 478 462 l 1,15,16
EndSplineSet
EndChar

StartChar: r
Encoding: 114 114 85
Width: 304
GlyphClass: 2
Flags: W
LayerCount: 2
Fore
SplineSet
73 0 m 1,0,-1
 190 500 l 1,1,-1
 224 500 l 1,2,-1
 207 424 l 1,3,4
 307 487 307 487 404 510 c 1,5,-1
 396 475 l 1,6,7
 332 459 332 459 232 406 c 1,8,-1
 199 389 l 1,9,-1
 109 0 l 1,10,-1
 73 0 l 1,0,-1
EndSplineSet
EndChar

StartChar: s
Encoding: 115 115 86
Width: 427
GlyphClass: 2
Flags: W
LayerCount: 2
Fore
SplineSet
470 464 m 1,0,1
 381 477 381 477 316.5 477 c 128,-1,2
 252 477 252 477 211 439 c 128,-1,3
 170 401 170 401 170 348 c 0,4,5
 170 318 170 318 191 303.5 c 128,-1,6
 212 289 212 289 282.5 273.5 c 128,-1,7
 353 258 353 258 384 237.5 c 128,-1,8
 415 217 415 217 415 168 c 0,9,10
 415 83 415 83 354.5 37 c 128,-1,11
 294 -9 294 -9 203 -9 c 0,12,13
 146 -9 146 -9 77 3 c 2,14,-1
 54 7 l 1,15,-1
 61 39 l 1,16,17
 151 23 151 23 216 23 c 128,-1,18
 281 23 281 23 330 58 c 128,-1,19
 379 93 379 93 379 161 c 0,20,21
 379 199 379 199 355.5 213 c 128,-1,22
 332 227 332 227 262 242.5 c 128,-1,23
 192 258 192 258 163 277.5 c 128,-1,24
 134 297 134 297 134 342 c 0,25,26
 134 413 134 413 187 461 c 128,-1,27
 240 509 240 509 324 509 c 0,28,29
 379 509 379 509 454 498 c 1,30,-1
 479 495 l 1,31,-1
 470 464 l 1,0,1
EndSplineSet
EndChar

StartChar: t
Encoding: 116 116 87
Width: 311
GlyphClass: 2
Flags: W
LayerCount: 2
Fore
SplineSet
159 82 m 0,0,1
 159 23 159 23 223 23 c 1,2,-1
 307 30 l 1,3,-1
 305 -1 l 1,4,5
 254 -9 254 -9 218 -9 c 0,6,7
 122 -9 122 -9 122 77 c 0,8,9
 122 114 122 114 139 182 c 1,10,-1
 206 468 l 1,11,-1
 133 468 l 1,12,-1
 141 500 l 1,13,-1
 215 500 l 1,14,-1
 254 662 l 1,15,-1
 289 662 l 1,16,-1
 249 500 l 1,17,-1
 412 500 l 1,18,-1
 404 468 l 1,19,-1
 241 468 l 1,20,-1
 174 182 l 2,21,22
 159 118 159 118 159 82 c 0,0,1
EndSplineSet
EndChar

StartChar: u
Encoding: 117 117 88
Width: 488
GlyphClass: 2
Flags: W
LayerCount: 2
Fore
SplineSet
405 113 m 1,0,1
 307 -9 307 -9 220 -9 c 0,2,3
 167 -9 167 -9 136 22 c 128,-1,4
 105 53 105 53 105 104.5 c 128,-1,5
 105 156 105 156 124 240 c 2,6,-1
 185 500 l 1,7,-1
 219 500 l 1,8,-1
 159 242 l 2,9,10
 140 164 140 164 140 117 c 128,-1,11
 140 70 140 70 163 47 c 128,-1,12
 186 24 186 24 218.5 24 c 128,-1,13
 251 24 251 24 280 39 c 128,-1,14
 309 54 309 54 332 76 c 0,15,16
 382 121 382 121 407 155 c 2,17,-1
 418 170 l 1,18,-1
 495 500 l 1,19,-1
 530 500 l 1,20,-1
 414 0 l 1,21,-1
 379 0 l 1,22,-1
 405 113 l 1,0,1
EndSplineSet
EndChar

StartChar: v
Encoding: 118 118 89
Width: 448
GlyphClass: 2
Flags: W
LayerCount: 2
Fore
SplineSet
147 500 m 1,0,-1
 183 500 l 1,1,-1
 206 32 l 1,2,-1
 246 32 l 1,3,-1
 494 500 l 1,4,-1
 532 500 l 1,5,-1
 266 0 l 1,6,-1
 172 0 l 1,7,-1
 147 500 l 1,0,-1
EndSplineSet
EndChar

StartChar: w
Encoding: 119 119 90
Width: 710
GlyphClass: 2
Flags: W
LayerCount: 2
Fore
SplineSet
150 500 m 1,0,-1
 185 500 l 1,1,-1
 191 32 l 1,2,-1
 207 32 l 1,3,-1
 443 490 l 1,4,-1
 488 490 l 1,5,-1
 508 32 l 1,6,-1
 525 32 l 1,7,-1
 752 500 l 1,8,-1
 789 500 l 1,9,-1
 547 0 l 1,10,-1
 473 0 l 1,11,-1
 456 447 l 1,12,-1
 229 0 l 1,13,-1
 157 0 l 1,14,-1
 150 500 l 1,0,-1
EndSplineSet
EndChar

StartChar: x
Encoding: 120 120 91
Width: 411
GlyphClass: 2
Flags: W
LayerCount: 2
Fore
SplineSet
145 500 m 1,0,-1
 183 500 l 1,1,-1
 269 273 l 1,2,-1
 459 500 l 1,3,-1
 502 500 l 1,4,-1
 286 247 l 1,5,-1
 380 0 l 1,6,-1
 341 0 l 1,7,-1
 258 223 l 1,8,-1
 70 0 l 1,9,-1
 27 0 l 1,10,-1
 240 250 l 1,11,-1
 145 500 l 1,0,-1
EndSplineSet
EndChar

StartChar: y
Encoding: 121 121 92
Width: 448
GlyphClass: 2
Flags: W
LayerCount: 2
Fore
SplineSet
147 500 m 1,0,-1
 183 500 l 1,1,-1
 206 32 l 1,2,-1
 246 32 l 1,3,-1
 494 500 l 1,4,-1
 532 500 l 1,5,-1
 145 -228 l 1,6,-1
 107 -228 l 1,7,-1
 230 0 l 1,8,-1
 172 0 l 1,9,-1
 147 500 l 1,0,-1
EndSplineSet
EndChar

StartChar: z
Encoding: 122 122 93
Width: 420
GlyphClass: 2
Flags: W
LayerCount: 2
Fore
SplineSet
148 468 m 1,0,-1
 156 500 l 1,1,-1
 495 500 l 1,2,-1
 490 468 l 1,3,-1
 90 32 l 1,4,-1
 387 32 l 1,5,-1
 380 0 l 1,6,-1
 41 0 l 1,7,-1
 44 32 l 1,8,-1
 444 468 l 1,9,-1
 148 468 l 1,0,-1
EndSplineSet
EndChar

StartChar: braceleft
Encoding: 123 123 94
Width: 329
GlyphClass: 2
Flags: W
LayerCount: 2
Fore
SplineSet
207 224 m 0,0,1
 207 206 207 206 182 118.5 c 128,-1,2
 157 31 157 31 157 -4 c 0,3,4
 157 -87 157 -87 266 -87 c 1,5,-1
 256 -123 l 1,6,7
 186 -120 186 -120 154 -93.5 c 128,-1,8
 122 -67 122 -67 122 -22 c 128,-1,9
 122 23 122 23 147 110.5 c 128,-1,10
 172 198 172 198 172 213 c 0,11,12
 172 247 172 247 154 264.5 c 128,-1,13
 136 282 136 282 96 292 c 1,14,-1
 104 327 l 1,15,16
 170 345 170 345 195.5 373 c 128,-1,17
 221 401 221 401 233 461 c 0,18,19
 236 475 236 475 241 504 c 0,20,21
 251 565 251 565 261 596 c 0,22,23
 286 673 286 673 332 709 c 128,-1,24
 378 745 378 745 462 749 c 1,25,-1
 456 713 l 1,26,27
 377 709 377 709 339 674.5 c 128,-1,28
 301 640 301 640 286 568 c 0,29,30
 283 552 283 552 276 511 c 128,-1,31
 269 470 269 470 265 453 c 0,32,33
 251 388 251 388 224.5 358.5 c 128,-1,34
 198 329 198 329 143 311 c 1,35,36
 207 288 207 288 207 224 c 0,0,1
EndSplineSet
Substitution2: "'case' Case-Sensitive Forms in Latin lookup 4 subtable" braceleft.cap
EndChar

StartChar: bar
Encoding: 124 124 95
Width: 296
GlyphClass: 2
Flags: W
LayerCount: 2
Fore
SplineSet
188 -230 m 1,0,-1
 188 730 l 1,1,-1
 223 730 l 1,2,-1
 223 -230 l 1,3,-1
 188 -230 l 1,0,-1
EndSplineSet
EndChar

StartChar: braceright
Encoding: 125 125 96
Width: 329
GlyphClass: 2
Flags: W
LayerCount: 2
Fore
SplineSet
266 399 m 0,0,1
 266 417 266 417 291 504.5 c 128,-1,2
 316 592 316 592 316 627 c 0,3,4
 316 710 316 710 207 710 c 1,5,-1
 217 746 l 1,6,7
 287 743 287 743 319 716.5 c 128,-1,8
 351 690 351 690 351 645 c 128,-1,9
 351 600 351 600 326 512.5 c 128,-1,10
 301 425 301 425 301 410 c 0,11,12
 301 376 301 376 319 358.5 c 128,-1,13
 337 341 337 341 377 331 c 1,14,-1
 369 296 l 1,15,16
 303 278 303 278 277.5 250 c 128,-1,17
 252 222 252 222 240 162 c 0,18,19
 237 148 237 148 232 118 c 0,20,21
 222 58 222 58 212 27 c 0,22,23
 187 -50 187 -50 141 -86 c 128,-1,24
 95 -122 95 -122 11 -126 c 1,25,-1
 17 -90 l 1,26,27
 96 -86 96 -86 134 -51.5 c 128,-1,28
 172 -17 172 -17 187 55 c 0,29,30
 190 71 190 71 197 112 c 128,-1,31
 204 153 204 153 208 170 c 0,32,33
 222 235 222 235 248.5 264.5 c 128,-1,34
 275 294 275 294 330 312 c 1,35,36
 266 335 266 335 266 399 c 0,0,1
EndSplineSet
Substitution2: "'case' Case-Sensitive Forms in Latin lookup 4 subtable" braceright.cap
EndChar

StartChar: asciitilde
Encoding: 126 126 97
Width: 560
GlyphClass: 2
Flags: W
LayerCount: 2
Fore
SplineSet
441 212 m 0,0,1
 411 212 411 212 337.5 248.5 c 128,-1,2
 264 285 264 285 246 285 c 128,-1,3
 228 285 228 285 202.5 272 c 128,-1,4
 177 259 177 259 160 246 c 2,5,-1
 142 233 l 1,6,-1
 131 265 l 1,7,8
 193 319 193 319 243 319 c 0,9,10
 273 319 273 319 346.5 282.5 c 128,-1,11
 420 246 420 246 438 246 c 128,-1,12
 456 246 456 246 481.5 259 c 128,-1,13
 507 272 507 272 524 285 c 2,14,-1
 542 298 l 1,15,-1
 553 267 l 1,16,17
 491 212 491 212 441 212 c 0,0,1
EndSplineSet
EndChar

StartChar: exclamdown
Encoding: 161 161 99
Width: 189
GlyphClass: 2
Flags: W
LayerCount: 2
Fore
SplineSet
178 289 m 1,0,-1
 65 -200 l 1,1,-1
 32 -200 l 1,2,-1
 150 289 l 1,3,-1
 178 289 l 1,0,-1
224 500 m 1,4,-1
 205 417 l 1,5,-1
 169 417 l 1,6,-1
 188 500 l 1,7,-1
 224 500 l 1,4,-1
EndSplineSet
Substitution2: "'case' Case-Sensitive Forms in Latin lookup 4 subtable" exclamdown.cap
EndChar

StartChar: cent
Encoding: 162 162 100
Width: 560
GlyphClass: 2
Flags: W
LayerCount: 2
Fore
SplineSet
162 160 m 0,0,1
 162 198 162 198 175 247 c 0,2,3
 202 350 202 350 257 403.5 c 128,-1,4
 312 457 312 457 389 459 c 1,5,-1
 420 590 l 1,6,-1
 453 590 l 1,7,-1
 422 460 l 1,8,-1
 529 450 l 1,9,-1
 519 415 l 1,10,11
 430 425 430 425 394 425 c 0,12,13
 326 425 326 425 279.5 377.5 c 128,-1,14
 233 330 233 330 213 247 c 1,15,16
 200 185 200 185 200 153.5 c 128,-1,17
 200 122 200 122 226 99 c 128,-1,18
 252 76 252 76 312 76 c 1,19,-1
 446 84 l 1,20,-1
 437 50 l 1,21,22
 381 43 381 43 325 43 c 1,23,-1
 295 -84 l 1,24,-1
 261 -84 l 1,25,-1
 291 41 l 1,26,27
 162 41 162 41 162 160 c 0,0,1
EndSplineSet
EndChar

StartChar: sterling
Encoding: 163 163 101
Width: 560
GlyphClass: 2
Flags: W
LayerCount: 2
Fore
SplineSet
589 638 m 1,0,1
 515 646 515 646 476 646 c 128,-1,2
 437 646 437 646 419 641 c 128,-1,3
 401 636 401 636 387.5 622 c 128,-1,4
 374 608 374 608 365.5 596.5 c 128,-1,5
 357 585 357 585 348 558 c 0,6,7
 338 528 338 528 322 464 c 2,8,-1
 308 406 l 1,9,-1
 527 406 l 1,10,-1
 519 373 l 1,11,-1
 300 373 l 1,12,-1
 224 33 l 1,13,-1
 393 33 l 1,14,-1
 474 49 l 1,15,-1
 474 18 l 1,16,-1
 393 0 l 1,17,-1
 83 0 l 1,18,-1
 91 33 l 1,19,-1
 187 33 l 1,20,-1
 264 373 l 1,21,-1
 192 373 l 1,22,-1
 200 406 l 1,23,-1
 272 406 l 1,24,-1
 286 468 l 2,25,26
 299 523 299 523 310 555 c 128,-1,27
 321 587 321 587 340 619 c 0,28,29
 377 679 377 679 468 679 c 0,30,31
 523 679 523 679 576 671 c 2,32,-1
 596 668 l 1,33,-1
 589 638 l 1,0,1
EndSplineSet
EndChar

StartChar: currency
Encoding: 164 164 102
Width: 560
GlyphClass: 2
Flags: W
LayerCount: 2
Fore
SplineSet
337.5 82 m 128,-1,1
 277 82 277 82 230 120 c 1,2,-1
 160 49 l 1,3,-1
 134 75 l 1,4,-1
 205 145 l 1,5,6
 167 191 167 191 167 251.5 c 128,-1,7
 167 312 167 312 205 359 c 1,8,-1
 134 429 l 1,9,-1
 160 455 l 1,10,-1
 230 384 l 1,11,12
 276 422 276 422 337 422 c 128,-1,13
 398 422 398 422 444 384 c 1,14,-1
 514 455 l 1,15,-1
 540 429 l 1,16,-1
 469 359 l 1,17,18
 507 312 507 312 507 251.5 c 128,-1,19
 507 191 507 191 469 145 c 1,20,-1
 540 75 l 1,21,-1
 514 49 l 1,22,-1
 444 120 l 1,23,0
 398 82 398 82 337.5 82 c 128,-1,1
337 119 m 128,-1,25
 393 119 393 119 432 157 c 1,26,27
 470 196 470 196 470 252 c 128,-1,28
 470 308 470 308 432 347 c 1,29,30
 393 385 393 385 337 385 c 128,-1,31
 281 385 281 385 242 347 c 1,32,33
 204 308 204 308 204 252 c 128,-1,34
 204 196 204 196 242 157 c 1,35,24
 281 119 281 119 337 119 c 128,-1,25
EndSplineSet
EndChar

StartChar: yen
Encoding: 165 165 103
Width: 560
GlyphClass: 2
Flags: W
LayerCount: 2
Fore
SplineSet
143 332 m 1,0,-1
 151 365 l 1,1,-1
 313 365 l 1,2,-1
 195 661 l 1,3,-1
 233 661 l 1,4,-1
 356 350 l 1,5,-1
 622 661 l 1,6,-1
 668 661 l 1,7,-1
 412 365 l 1,8,-1
 569 365 l 1,9,-1
 562 332 l 1,10,-1
 384 332 l 1,11,-1
 367 312 l 1,12,-1
 345 216 l 1,13,-1
 535 216 l 1,14,-1
 527 183 l 1,15,-1
 337 183 l 1,16,-1
 294 0 l 1,17,-1
 259 0 l 1,18,-1
 301 183 l 1,19,-1
 108 183 l 1,20,-1
 116 216 l 1,21,-1
 308 216 l 1,22,-1
 331 314 l 1,23,-1
 326 332 l 1,24,-1
 143 332 l 1,0,-1
EndSplineSet
EndChar

StartChar: brokenbar
Encoding: 166 166 104
Width: 306
GlyphClass: 2
Flags: W
LayerCount: 2
Fore
SplineSet
193 730 m 1,0,-1
 228 730 l 1,1,-1
 228 354 l 1,2,-1
 193 354 l 1,3,-1
 193 730 l 1,0,-1
193 146 m 1,4,-1
 228 146 l 1,5,-1
 228 -230 l 1,6,-1
 193 -230 l 1,7,-1
 193 146 l 1,4,-1
EndSplineSet
EndChar

StartChar: section
Encoding: 167 167 105
Width: 459
GlyphClass: 2
Flags: W
LayerCount: 2
Fore
SplineSet
380 623 m 0,0,1
 303 623 303 623 262.5 583 c 128,-1,2
 222 543 222 543 222 476 c 0,3,4
 222 435 222 435 244.5 421 c 128,-1,5
 267 407 267 407 332 396 c 0,6,7
 463 375 463 375 463 295 c 0,8,9
 463 262 463 262 444.5 220.5 c 128,-1,10
 426 179 426 179 408 154 c 2,11,-1
 390 129 l 1,12,13
 407 109 407 109 407 78.5 c 128,-1,14
 407 48 407 48 396.5 18.5 c 128,-1,15
 386 -11 386 -11 364.5 -44 c 128,-1,16
 343 -77 343 -77 300 -99.5 c 128,-1,17
 257 -122 257 -122 201 -122 c 0,18,19
 143 -122 143 -122 72 -112 c 1,20,-1
 45 -109 l 1,21,-1
 56 -73 l 1,22,23
 158 -87 158 -87 209 -87 c 0,24,25
 282 -87 282 -87 325 -37 c 128,-1,26
 368 13 368 13 368 66 c 0,27,28
 368 99 368 99 346 113.5 c 128,-1,29
 324 128 324 128 252 138 c 128,-1,30
 180 148 180 148 149.5 175 c 128,-1,31
 119 202 119 202 119 242 c 128,-1,32
 119 282 119 282 139.5 321.5 c 128,-1,33
 160 361 160 361 180 382 c 2,34,-1
 201 403 l 1,35,36
 181 432 181 432 181 474 c 0,37,38
 181 550 181 550 236 604.5 c 128,-1,39
 291 659 291 659 388 659 c 0,40,41
 432 659 432 659 509 649 c 2,42,-1
 532 646 l 1,43,-1
 522 610 l 1,44,45
 425 623 425 623 380 623 c 0,0,1
175 319 m 128,-1,47
 156 285 156 285 156 253.5 c 128,-1,48
 156 222 156 222 180.5 202.5 c 128,-1,49
 205 183 205 183 271 173.5 c 128,-1,50
 337 164 337 164 366 147 c 1,51,52
 428 230 428 230 428 286 c 0,53,54
 428 315 428 315 403 332.5 c 128,-1,55
 378 350 378 350 309 361.5 c 128,-1,56
 240 373 240 373 225 386 c 1,57,58
 217 378 217 378 205.5 365.5 c 128,-1,46
 194 353 194 353 175 319 c 128,-1,47
EndSplineSet
EndChar

StartChar: dieresis
Encoding: 168 168 106
Width: 791
GlyphClass: 2
Flags: W
LayerCount: 2
Fore
SplineSet
260 633 m 1,0,-1
 275 698 l 1,1,-1
 304 698 l 1,2,-1
 289 633 l 1,3,-1
 260 633 l 1,0,-1
435 633 m 1,4,-1
 448 698 l 1,5,-1
 477 698 l 1,6,-1
 462 633 l 1,7,-1
 435 633 l 1,4,-1
EndSplineSet
EndChar

StartChar: copyright
Encoding: 169 169 107
Width: 646
GlyphClass: 2
Flags: W
LayerCount: 2
Fore
SplineSet
168 434 m 128,-1,1
 168 545 168 545 241 622.5 c 128,-1,2
 314 700 314 700 423 700 c 128,-1,3
 532 700 532 700 605.5 622.5 c 128,-1,4
 679 545 679 545 679 434 c 128,-1,5
 679 323 679 323 605.5 246 c 128,-1,6
 532 169 532 169 423 169 c 128,-1,7
 314 169 314 169 241 246 c 128,-1,0
 168 323 168 323 168 434 c 128,-1,1
200 434 m 128,-1,9
 200 336 200 336 263.5 268.5 c 128,-1,10
 327 201 327 201 423 201 c 128,-1,11
 519 201 519 201 583 268.5 c 128,-1,12
 647 336 647 336 647 434 c 128,-1,13
 647 532 647 532 583 600 c 128,-1,14
 519 668 519 668 423 668 c 128,-1,15
 327 668 327 668 263.5 600 c 128,-1,8
 200 532 200 532 200 434 c 128,-1,9
423 281 m 0,16,17
 361 281 361 281 337.5 319.5 c 128,-1,18
 314 358 314 358 314 433.5 c 128,-1,19
 314 509 314 509 337 548 c 128,-1,20
 360 587 360 587 423 587 c 0,21,22
 462 587 462 587 487 582 c 2,23,-1
 497 580 l 1,24,-1
 496 548 l 1,25,26
 455 555 455 555 423 555 c 0,27,28
 374 555 374 555 360 527 c 128,-1,29
 346 499 346 499 346 435 c 128,-1,30
 346 371 346 371 362 342 c 128,-1,31
 378 313 378 313 423 313 c 1,32,-1
 496 321 l 1,33,-1
 497 289 l 1,34,35
 454 281 454 281 423 281 c 0,16,17
EndSplineSet
EndChar

StartChar: ordfeminine
Encoding: 170 170 108
Width: 354
GlyphClass: 2
Flags: W
LayerCount: 2
Fore
SplineSet
215 386 m 0,0,1
 184 386 184 386 170 408 c 0,2,3
 161 422 161 422 161 437 c 128,-1,4
 161 452 161 452 164 466 c 0,5,6
 173 503 173 503 194.5 521 c 128,-1,7
 216 539 216 539 257 542 c 2,8,-1
 359 549 l 1,9,-1
 365 572 l 2,10,11
 368 586 368 586 368 598 c 128,-1,12
 368 610 368 610 361.5 619.5 c 128,-1,13
 355 629 355 629 328 629 c 1,14,-1
 223 622 l 1,15,-1
 227 651 l 1,16,17
 298 659 298 659 338 659 c 0,18,19
 402 659 402 659 402 606 c 0,20,21
 402 591 402 591 397 571 c 2,22,-1
 365 434 l 1,23,24
 371 418 371 418 396 413 c 1,25,-1
 388 386 l 1,26,27
 357 387 357 387 339 408 c 1,28,29
 271 386 271 386 215 386 c 0,0,1
195 445 m 0,30,31
 195 417 195 417 226 417 c 0,32,33
 266 417 266 417 316 430 c 1,34,-1
 332 435 l 1,35,-1
 352 520 l 1,36,-1
 257 514 l 2,37,38
 209 511 209 511 198 464 c 0,39,40
 195 453 195 453 195 445 c 0,30,31
EndSplineSet
EndChar

StartChar: guillemotleft
Encoding: 171 171 109
Width: 422
GlyphClass: 2
Flags: W
LayerCount: 2
Fore
SplineSet
445 391 m 1,0,-1
 433 350 l 1,1,-1
 289 249 l 1,2,-1
 383 139 l 1,3,-1
 372 104 l 1,4,-1
 248 241 l 1,5,-1
 256 263 l 1,6,-1
 445 391 l 1,0,-1
295 391 m 1,7,-1
 283 350 l 1,8,-1
 139 249 l 1,9,-1
 233 139 l 1,10,-1
 222 104 l 1,11,-1
 98 241 l 1,12,-1
 106 263 l 1,13,-1
 295 391 l 1,7,-1
EndSplineSet
EndChar

StartChar: logicalnot
Encoding: 172 172 110
Width: 560
GlyphClass: 2
Flags: W
LayerCount: 2
Fore
SplineSet
130 332 m 1,0,-1
 552 332 l 1,1,-1
 552 126 l 1,2,-1
 516 126 l 1,3,-1
 516 298 l 1,4,-1
 130 298 l 1,5,-1
 130 332 l 1,0,-1
EndSplineSet
EndChar

StartChar: registered
Encoding: 174 174 111
Width: 646
GlyphClass: 2
Flags: W
LayerCount: 2
Fore
SplineSet
168 434 m 128,-1,1
 168 545 168 545 241 622.5 c 128,-1,2
 314 700 314 700 423 700 c 128,-1,3
 532 700 532 700 605.5 622.5 c 128,-1,4
 679 545 679 545 679 434 c 128,-1,5
 679 323 679 323 605.5 246 c 128,-1,6
 532 169 532 169 423 169 c 128,-1,7
 314 169 314 169 241 246 c 128,-1,0
 168 323 168 323 168 434 c 128,-1,1
200 434 m 128,-1,9
 200 336 200 336 263.5 268.5 c 128,-1,10
 327 201 327 201 423 201 c 128,-1,11
 519 201 519 201 583 268.5 c 128,-1,12
 647 336 647 336 647 434 c 128,-1,13
 647 532 647 532 583 600 c 128,-1,14
 519 668 519 668 423 668 c 128,-1,15
 327 668 327 668 263.5 600 c 128,-1,8
 200 532 200 532 200 434 c 128,-1,9
353 402 m 1,16,-1
 353 286 l 1,17,-1
 321 286 l 1,18,-1
 321 581 l 1,19,-1
 414 581 l 2,20,21
 473 581 473 581 500 561 c 128,-1,22
 527 541 527 541 527 492 c 0,23,24
 527 420 527 420 468 405 c 1,25,-1
 533 286 l 1,26,-1
 497 286 l 1,27,-1
 434 402 l 1,28,-1
 353 402 l 1,16,-1
353 550 m 1,29,-1
 353 433 l 1,30,-1
 433 433 l 2,31,32
 467 433 467 433 481 446 c 128,-1,33
 495 459 495 459 495 492 c 128,-1,34
 495 525 495 525 476 537.5 c 128,-1,35
 457 550 457 550 415 550 c 2,36,-1
 353 550 l 1,29,-1
EndSplineSet
EndChar

StartChar: macron
Encoding: 175 175 112
Width: 424
GlyphClass: 2
Flags: W
LayerCount: 2
Fore
SplineSet
237 647 m 1,0,-1
 243 673 l 1,1,-1
 496 673 l 1,2,-1
 489 647 l 1,3,-1
 237 647 l 1,0,-1
EndSplineSet
EndChar

StartChar: degree
Encoding: 176 176 113
Width: 560
GlyphClass: 2
Flags: W
LayerCount: 2
Fore
SplineSet
275 573 m 128,-1,1
 275 634 275 634 312.5 671.5 c 128,-1,2
 350 709 350 709 411 709 c 128,-1,3
 472 709 472 709 509.5 671.5 c 128,-1,4
 547 634 547 634 547 573 c 128,-1,5
 547 512 547 512 509.5 475 c 128,-1,6
 472 438 472 438 411 438 c 128,-1,7
 350 438 350 438 312.5 475 c 128,-1,0
 275 512 275 512 275 573 c 128,-1,1
309 573 m 128,-1,9
 309 526 309 526 337 498 c 128,-1,10
 365 470 365 470 411.5 470 c 128,-1,11
 458 470 458 470 486.5 498.5 c 128,-1,12
 515 527 515 527 515 573.5 c 128,-1,13
 515 620 515 620 486.5 648.5 c 128,-1,14
 458 677 458 677 411.5 677 c 128,-1,15
 365 677 365 677 337 648.5 c 128,-1,8
 309 620 309 620 309 573 c 128,-1,9
EndSplineSet
EndChar

StartChar: plusminus
Encoding: 177 177 114
Width: 560
GlyphClass: 2
Flags: W
LayerCount: 2
Fore
SplineSet
105 308 m 1,0,-1
 105 342 l 1,1,-1
 307 342 l 1,2,-1
 307 480 l 1,3,-1
 343 480 l 1,4,-1
 343 342 l 1,5,-1
 547 342 l 1,6,-1
 547 308 l 1,7,-1
 343 308 l 1,8,-1
 343 164 l 1,9,-1
 307 164 l 1,10,-1
 307 308 l 1,11,-1
 105 308 l 1,0,-1
105 84 m 1,12,-1
 547 84 l 1,13,-1
 547 50 l 1,14,-1
 105 50 l 1,15,-1
 105 84 l 1,12,-1
EndSplineSet
EndChar

StartChar: twosuperior
Encoding: 178 178 115
Width: 280
GlyphClass: 2
Flags: W
LayerCount: 2
Fore
SplineSet
360 731 m 0,0,1
 360 765 360 765 313 765 c 0,2,3
 282 765 282 765 236 756 c 2,4,-1
 220 753 l 1,5,-1
 226 786 l 1,6,7
 281 799 281 799 323 799 c 0,8,9
 398 799 398 799 398 743 c 0,10,11
 398 695 398 695 363 654 c 0,12,13
 340 628 340 628 298 593 c 2,14,-1
 202 512 l 1,15,-1
 350 512 l 1,16,-1
 342 478 l 1,17,-1
 147 478 l 1,18,-1
 155 512 l 1,19,-1
 279 616 l 2,20,21
 360 683 360 683 360 731 c 0,0,1
EndSplineSet
Substitution2: "Single Substitution lookup 5 subtable" twoinferior
EndChar

StartChar: threesuperior
Encoding: 179 179 116
Width: 280
GlyphClass: 2
Flags: W
LayerCount: 2
Fore
SplineSet
335 641 m 1,0,1
 378 627 378 627 378 595 c 0,2,3
 378 582 378 582 373 562 c 0,4,5
 350 469 350 469 249 469 c 0,6,7
 200 469 200 469 160 477 c 2,8,-1
 145 480 l 1,9,-1
 156 512 l 1,10,11
 208 503 208 503 258 503 c 0,12,13
 321 503 321 503 335 561 c 0,14,15
 338 574 338 574 338 584 c 0,16,17
 338 622 338 622 291 622 c 2,18,-1
 226 622 l 1,19,-1
 234 656 l 1,20,-1
 299 656 l 2,21,22
 317 656 317 656 338 675 c 0,23,24
 368 701 368 701 368 734 c 0,25,26
 368 747 368 747 359.5 756 c 128,-1,27
 351 765 351 765 325 765 c 0,28,29
 286 765 286 765 236 758 c 2,30,-1
 221 756 l 1,31,-1
 226 788 l 1,32,33
 282 799 282 799 329 799 c 128,-1,34
 376 799 376 799 391.5 783.5 c 128,-1,35
 407 768 407 768 407 751 c 128,-1,36
 407 734 407 734 403 719 c 0,37,38
 388 662 388 662 335 641 c 1,0,1
EndSplineSet
Substitution2: "Single Substitution lookup 5 subtable" threeinferior
EndChar

StartChar: acute
Encoding: 180 180 117
Width: 537
GlyphClass: 2
Flags: W
LayerCount: 2
Fore
SplineSet
296 610 m 1,0,-1
 291 635 l 1,1,-1
 494 730 l 1,2,-1
 500 700 l 1,3,-1
 296 610 l 1,0,-1
EndSplineSet
EndChar

StartChar: mu
Encoding: 181 181 118
Width: 560
GlyphClass: 2
Flags: W
LayerCount: 2
Fore
SplineSet
443 113 m 1,0,1
 345 -9 345 -9 262.5 -9 c 128,-1,2
 180 -9 180 -9 153 52 c 1,3,-1
 88 -230 l 1,4,-1
 53 -230 l 1,5,-1
 156 216 l 1,6,-1
 168 265 l 1,7,-1
 223 500 l 1,8,-1
 257 500 l 1,9,-1
 203 270 l 1,10,-1
 204 270 l 1,11,-1
 188 201 l 1,12,13
 178 151 178 151 178 110.5 c 128,-1,14
 178 70 178 70 201 47 c 128,-1,15
 224 24 224 24 256.5 24 c 128,-1,16
 289 24 289 24 318 39 c 128,-1,17
 347 54 347 54 370 76 c 0,18,19
 420 121 420 121 445 155 c 2,20,-1
 456 170 l 1,21,-1
 533 500 l 1,22,-1
 568 500 l 1,23,-1
 452 0 l 1,24,-1
 417 0 l 1,25,-1
 443 113 l 1,0,1
EndSplineSet
EndChar

StartChar: paragraph
Encoding: 182 182 119
Width: 551
GlyphClass: 2
Flags: W
LayerCount: 2
Fore
SplineSet
149 481 m 0,0,1
 149 561 149 561 213.5 630.5 c 128,-1,2
 278 700 278 700 370 700 c 2,3,-1
 679 700 l 1,4,-1
 672 664 l 1,5,-1
 580 664 l 1,6,-1
 422 0 l 1,7,-1
 388 0 l 1,8,-1
 546 664 l 1,9,-1
 403 664 l 1,10,-1
 244 0 l 1,11,-1
 210 0 l 1,12,-1
 295 349 l 1,13,14
 222 350 222 350 185.5 387.5 c 128,-1,15
 149 425 149 425 149 481 c 0,0,1
EndSplineSet
EndChar

StartChar: periodcentered
Encoding: 183 183 120
Width: 182
GlyphClass: 2
Flags: W
LayerCount: 2
Fore
SplineSet
134 270 m 1,0,-1
 152 353 l 1,1,-1
 190 353 l 1,2,-1
 172 270 l 1,3,-1
 134 270 l 1,0,-1
EndSplineSet
Substitution2: "'case' Case-Sensitive Forms in Latin lookup 4 subtable" periodcentered.cap
EndChar

StartChar: cedilla
Encoding: 184 184 121
Width: 791
GlyphClass: 2
Flags: W
LayerCount: 2
Fore
SplineSet
420 -53 m 2,0,1
 499 -53 499 -53 499 -105 c 0,2,3
 499 -114 499 -114 497 -124 c 0,4,5
 480 -199 480 -199 402 -199 c 1,6,-1
 326 -195 l 1,7,-1
 334 -164 l 1,8,9
 375 -168 375 -168 407 -168 c 0,10,11
 452 -168 452 -168 463 -124 c 0,12,13
 465 -117 465 -117 465 -110 c 0,14,15
 465 -83 465 -83 428 -83 c 2,16,-1
 377 -83 l 1,17,-1
 398 5 l 1,18,-1
 430 5 l 1,19,-1
 415 -53 l 1,20,-1
 420 -53 l 2,0,1
EndSplineSet
EndChar

StartChar: onesuperior
Encoding: 185 185 122
Width: 280
GlyphClass: 2
Flags: W
LayerCount: 2
Fore
SplineSet
211 723 m 1,0,-1
 326 790 l 1,1,-1
 362 790 l 1,2,-1
 285 478 l 1,3,-1
 249 478 l 1,4,-1
 317 751 l 1,5,-1
 221 695 l 1,6,-1
 211 723 l 1,0,-1
EndSplineSet
Substitution2: "Single Substitution lookup 5 subtable" oneinferior
EndChar

StartChar: ordmasculine
Encoding: 186 186 123
Width: 339
GlyphClass: 2
Flags: W
LayerCount: 2
Fore
SplineSet
321 658 m 0,0,1
 406 658 406 658 406 580 c 0,2,3
 406 552 406 552 398 515 c 0,4,5
 369 383 369 383 257 383 c 0,6,7
 171 383 171 383 171 466 c 0,8,9
 171 493 171 493 178 522 c 0,10,11
 196 595 196 595 229.5 626.5 c 128,-1,12
 263 658 263 658 321 658 c 0,0,1
264 419 m 0,13,14
 305 419 305 419 328 442.5 c 128,-1,15
 351 466 351 466 364 522 c 0,16,17
 370 547 370 547 370 573.5 c 128,-1,18
 370 600 370 600 357 611 c 128,-1,19
 344 622 344 622 308.5 622 c 128,-1,20
 273 622 273 622 249.5 599.5 c 128,-1,21
 226 577 226 577 213 522 c 0,22,23
 206 494 206 494 206 472 c 0,24,25
 206 419 206 419 264 419 c 0,13,14
EndSplineSet
EndChar

StartChar: guillemotright
Encoding: 187 187 124
Width: 484
GlyphClass: 2
Flags: W
LayerCount: 2
Fore
SplineSet
304 104 m 1,0,-1
 316 145 l 1,1,-1
 460 246 l 1,2,-1
 366 356 l 1,3,-1
 377 391 l 1,4,-1
 501 254 l 1,5,-1
 493 232 l 1,6,-1
 304 104 l 1,0,-1
92 104 m 1,7,-1
 104 145 l 1,8,-1
 248 246 l 1,9,-1
 154 356 l 1,10,-1
 165 391 l 1,11,-1
 289 254 l 1,12,-1
 281 232 l 1,13,-1
 92 104 l 1,7,-1
EndSplineSet
EndChar

StartChar: onequarter
Encoding: 188 188 125
Width: 567
GlyphClass: 2
Flags: W
LayerCount: 2
Fore
SplineSet
191 723 m 1,0,-1
 306 790 l 1,1,-1
 342 790 l 1,2,-1
 265 478 l 1,3,-1
 229 478 l 1,4,-1
 297 751 l 1,5,-1
 201 695 l 1,6,-1
 191 723 l 1,0,-1
145 -1 m 1,7,-1
 112 12 l 1,8,-1
 537 700 l 1,9,-1
 570 686 l 1,10,-1
 145 -1 l 1,7,-1
463 0 m 1,11,-1
 477 57 l 1,12,-1
 331 57 l 1,13,-1
 339 89 l 1,14,-1
 483 312 l 1,15,-1
 523 312 l 1,16,-1
 381 91 l 1,17,-1
 485 91 l 1,18,-1
 507 178 l 1,19,-1
 543 178 l 1,20,-1
 521 91 l 1,21,-1
 558 91 l 1,22,-1
 550 57 l 1,23,-1
 513 57 l 1,24,-1
 499 0 l 1,25,-1
 463 0 l 1,11,-1
EndSplineSet
EndChar

StartChar: onehalf
Encoding: 189 189 126
Width: 597
GlyphClass: 2
Flags: W
LayerCount: 2
Fore
SplineSet
191 723 m 1,0,-1
 306 790 l 1,1,-1
 342 790 l 1,2,-1
 265 478 l 1,3,-1
 229 478 l 1,4,-1
 297 751 l 1,5,-1
 201 695 l 1,6,-1
 191 723 l 1,0,-1
145 -1 m 1,7,-1
 112 12 l 1,8,-1
 537 700 l 1,9,-1
 570 686 l 1,10,-1
 145 -1 l 1,7,-1
573 252 m 0,11,12
 573 287 573 287 526 287 c 0,13,14
 495 287 495 287 448 278 c 2,15,-1
 433 275 l 1,16,-1
 439 308 l 1,17,18
 494 321 494 321 536 321 c 0,19,20
 611 321 611 321 611 265 c 0,21,22
 611 217 611 217 576 176 c 0,23,24
 553 150 553 150 511 115 c 2,25,-1
 415 34 l 1,26,-1
 563 34 l 1,27,-1
 555 0 l 1,28,-1
 360 0 l 1,29,-1
 368 34 l 1,30,-1
 492 138 l 2,31,32
 573 205 573 205 573 252 c 0,11,12
EndSplineSet
EndChar

StartChar: threequarters
Encoding: 190 190 127
Width: 594
GlyphClass: 2
Flags: W
LayerCount: 2
Fore
SplineSet
174 -1 m 1,0,-1
 141 12 l 1,1,-1
 566 700 l 1,2,-1
 599 686 l 1,3,-1
 174 -1 l 1,0,-1
342 641 m 1,4,5
 385 627 385 627 385 595 c 0,6,7
 385 582 385 582 380 562 c 0,8,9
 357 469 357 469 256 469 c 0,10,11
 207 469 207 469 167 477 c 2,12,-1
 152 480 l 1,13,-1
 163 512 l 1,14,15
 215 503 215 503 265 503 c 0,16,17
 328 503 328 503 342 561 c 0,18,19
 345 574 345 574 345 584 c 0,20,21
 345 622 345 622 298 622 c 2,22,-1
 233 622 l 1,23,-1
 241 656 l 1,24,-1
 306 656 l 2,25,26
 324 656 324 656 346 675 c 0,27,28
 375 701 375 701 375 734 c 0,29,30
 375 747 375 747 366.5 756 c 128,-1,31
 358 765 358 765 332 765 c 0,32,33
 293 765 293 765 242 758 c 2,34,-1
 228 756 l 1,35,-1
 233 788 l 1,36,37
 289 799 289 799 336 799 c 128,-1,38
 383 799 383 799 398.5 783.5 c 128,-1,39
 414 768 414 768 414 751 c 128,-1,40
 414 734 414 734 410 719 c 0,41,42
 395 664 395 664 342 641 c 1,4,5
492 0 m 1,43,-1
 506 57 l 1,44,-1
 360 57 l 1,45,-1
 368 89 l 1,46,-1
 512 312 l 1,47,-1
 552 312 l 1,48,-1
 410 91 l 1,49,-1
 514 91 l 1,50,-1
 536 178 l 1,51,-1
 572 178 l 1,52,-1
 550 91 l 1,53,-1
 587 91 l 1,54,-1
 579 57 l 1,55,-1
 542 57 l 1,56,-1
 528 0 l 1,57,-1
 492 0 l 1,43,-1
EndSplineSet
EndChar

StartChar: questiondown
Encoding: 191 191 128
Width: 391
GlyphClass: 2
Flags: W
LayerCount: 2
Fore
SplineSet
62.5 -180.5 m 128,-1,1
 21 -153 21 -153 21 -97.5 c 128,-1,2
 21 -42 21 -42 38 -5.5 c 128,-1,3
 55 31 55 31 86 61.5 c 128,-1,4
 117 92 117 92 194 155 c 128,-1,5
 271 218 271 218 282 274 c 2,6,-1
 290 313 l 1,7,-1
 324 313 l 1,8,9
 322 291 322 291 318 270 c 0,10,11
 304 200 304 200 211 125 c 128,-1,12
 118 50 118 50 88.5 9.5 c 128,-1,13
 59 -31 59 -31 59 -94 c 0,14,15
 59 -174 59 -174 179 -174 c 0,16,17
 226 -174 226 -174 300 -158 c 1,18,-1
 324 -152 l 1,19,-1
 324 -184 l 1,20,21
 237 -208 237 -208 170.5 -208 c 128,-1,0
 104 -208 104 -208 62.5 -180.5 c 128,-1,1
358 500 m 1,22,-1
 341 418 l 1,23,-1
 304 418 l 1,24,-1
 322 500 l 1,25,-1
 358 500 l 1,22,-1
EndSplineSet
Substitution2: "'case' Case-Sensitive Forms in Latin lookup 4 subtable" questiondown.cap
EndChar

StartChar: Agrave
Encoding: 192 192 129
Width: 556
GlyphClass: 2
Flags: W
LayerCount: 2
Fore
SplineSet
350 917 m 1,0,-1
 510 820 l 1,1,-1
 495 798 l 1,2,-1
 333 890 l 1,3,-1
 350 917 l 1,0,-1
32 0 m 1,4,-1
 403 700 l 1,5,-1
 492 700 l 1,6,-1
 530 0 l 1,7,-1
 494 0 l 1,8,-1
 482 216 l 1,9,-1
 183 216 l 1,10,-1
 69 0 l 1,11,-1
 32 0 l 1,4,-1
423 667 m 1,12,-1
 201 248 l 1,13,-1
 480 248 l 1,14,-1
 459 667 l 1,15,-1
 423 667 l 1,12,-1
EndSplineSet
Position2: "'cpsp' Capital Spacing in Latin lookup 0 subtable" dx=5 dy=0 dh=10 dv=0
EndChar

StartChar: Aacute
Encoding: 193 193 130
Width: 556
GlyphClass: 2
Flags: W
LayerCount: 2
Fore
SplineSet
411 798 m 1,0,-1
 403 823 l 1,1,-1
 607 919 l 1,2,-1
 616 890 l 1,3,-1
 411 798 l 1,0,-1
32 0 m 1,4,-1
 403 700 l 1,5,-1
 492 700 l 1,6,-1
 530 0 l 1,7,-1
 494 0 l 1,8,-1
 482 216 l 1,9,-1
 183 216 l 1,10,-1
 69 0 l 1,11,-1
 32 0 l 1,4,-1
423 667 m 1,12,-1
 201 248 l 1,13,-1
 480 248 l 1,14,-1
 459 667 l 1,15,-1
 423 667 l 1,12,-1
EndSplineSet
Position2: "'cpsp' Capital Spacing in Latin lookup 0 subtable" dx=5 dy=0 dh=10 dv=0
EndChar

StartChar: Acircumflex
Encoding: 194 194 131
Width: 556
GlyphClass: 2
Flags: W
LayerCount: 2
Fore
SplineSet
324 803 m 1,0,-1
 480 931 l 1,1,-1
 494 931 l 1,2,-1
 591 803 l 1,3,-1
 557 803 l 1,4,-1
 484 900 l 1,5,-1
 365 803 l 1,6,-1
 324 803 l 1,0,-1
32 0 m 1,7,-1
 403 700 l 1,8,-1
 492 700 l 1,9,-1
 530 0 l 1,10,-1
 494 0 l 1,11,-1
 482 216 l 1,12,-1
 183 216 l 1,13,-1
 69 0 l 1,14,-1
 32 0 l 1,7,-1
423 667 m 1,15,-1
 201 248 l 1,16,-1
 480 248 l 1,17,-1
 459 667 l 1,18,-1
 423 667 l 1,15,-1
EndSplineSet
Position2: "'cpsp' Capital Spacing in Latin lookup 0 subtable" dx=5 dy=0 dh=10 dv=0
EndChar

StartChar: Atilde
Encoding: 195 195 132
Width: 556
GlyphClass: 2
Flags: W
LayerCount: 2
Fore
SplineSet
629 877 m 1,0,1
 566 820 566 820 541.5 820 c 128,-1,2
 517 820 517 820 466.5 852 c 128,-1,3
 416 884 416 884 405 884 c 0,4,5
 387 884 387 884 332 842 c 1,6,-1
 314 829 l 1,7,-1
 313 857 l 1,8,9
 379 914 379 914 405.5 914 c 128,-1,10
 432 914 432 914 482 882.5 c 128,-1,11
 532 851 532 851 543 851 c 0,12,13
 562 851 562 851 609 889 c 2,14,-1
 625 902 l 1,15,-1
 629 877 l 1,0,1
32 0 m 1,16,-1
 403 700 l 1,17,-1
 492 700 l 1,18,-1
 530 0 l 1,19,-1
 494 0 l 1,20,-1
 482 216 l 1,21,-1
 183 216 l 1,22,-1
 69 0 l 1,23,-1
 32 0 l 1,16,-1
423 667 m 1,24,-1
 201 248 l 1,25,-1
 480 248 l 1,26,-1
 459 667 l 1,27,-1
 423 667 l 1,24,-1
EndSplineSet
Position2: "'cpsp' Capital Spacing in Latin lookup 0 subtable" dx=5 dy=0 dh=10 dv=0
EndChar

StartChar: Adieresis
Encoding: 196 196 133
Width: 556
GlyphClass: 2
Flags: W
LayerCount: 2
Fore
SplineSet
363 831 m 1,0,-1
 377 897 l 1,1,-1
 407 897 l 1,2,-1
 390 831 l 1,3,-1
 363 831 l 1,0,-1
542 831 m 1,4,-1
 558 897 l 1,5,-1
 587 897 l 1,6,-1
 571 831 l 1,7,-1
 542 831 l 1,4,-1
32 0 m 1,8,-1
 403 700 l 1,9,-1
 492 700 l 1,10,-1
 530 0 l 1,11,-1
 494 0 l 1,12,-1
 482 216 l 1,13,-1
 183 216 l 1,14,-1
 69 0 l 1,15,-1
 32 0 l 1,8,-1
423 667 m 1,16,-1
 201 248 l 1,17,-1
 480 248 l 1,18,-1
 459 667 l 1,19,-1
 423 667 l 1,16,-1
EndSplineSet
Position2: "'cpsp' Capital Spacing in Latin lookup 0 subtable" dx=5 dy=0 dh=10 dv=0
EndChar

StartChar: Aring
Encoding: 197 197 134
Width: 556
GlyphClass: 2
Flags: W
LayerCount: 2
Fore
SplineSet
368 725 m 0,0,1
 368 738 368 738 373 755 c 0,2,3
 397 844 397 844 481 844 c 0,4,5
 521 844 521 844 539 822 c 0,6,7
 550 808 550 808 550 790 c 128,-1,8
 550 772 550 772 546 755 c 0,9,10
 532 702 532 702 493 680 c 1,11,-1
 530 0 l 1,12,-1
 494 0 l 1,13,-1
 482 216 l 1,14,-1
 183 216 l 1,15,-1
 69 0 l 1,16,-1
 32 0 l 1,17,-1
 392 679 l 1,18,19
 368 694 368 694 368 725 c 0,0,1
459 667 m 1,20,-1
 423 667 l 1,21,-1
 201 248 l 1,22,-1
 480 248 l 1,23,-1
 459 667 l 1,20,-1
522 773 m 0,24,25
 522 815 522 815 474 815 c 0,26,27
 414 815 414 815 399 755 c 0,28,29
 397 745 397 745 397 736 c 0,30,31
 397 709 397 709 420 700 c 1,32,-1
 473 700 l 1,33,34
 509 712 509 712 520 755 c 0,35,36
 522 765 522 765 522 773 c 0,24,25
EndSplineSet
Position2: "'cpsp' Capital Spacing in Latin lookup 0 subtable" dx=5 dy=0 dh=10 dv=0
EndChar

StartChar: AE
Encoding: 198 198 135
Width: 797
GlyphClass: 2
Flags: W
LayerCount: 2
Fore
SplineSet
372 0 m 1,0,-1
 421 215 l 1,1,-1
 181 215 l 1,2,-1
 67 0 l 1,3,-1
 32 0 l 1,4,-1
 402 700 l 1,5,-1
 913 700 l 1,6,-1
 907 667 l 1,7,-1
 564 669 l 1,8,-1
 493 376 l 1,9,-1
 780 376 l 1,10,-1
 774 343 l 1,11,-1
 487 343 l 1,12,-1
 414 33 l 1,13,-1
 755 33 l 1,14,-1
 749 0 l 1,15,-1
 372 0 l 1,0,-1
418 667 m 1,16,-1
 197 247 l 1,17,-1
 428 247 l 1,18,-1
 530 667 l 1,19,-1
 418 667 l 1,16,-1
EndSplineSet
Position2: "'cpsp' Capital Spacing in Latin lookup 0 subtable" dx=5 dy=0 dh=10 dv=0
EndChar

StartChar: Ccedilla
Encoding: 199 199 136
Width: 510
GlyphClass: 2
Flags: W
LayerCount: 2
Fore
SplineSet
298 -53 m 2,0,1
 377 -53 377 -53 377 -105 c 0,2,3
 377 -114 377 -114 375 -124 c 0,4,5
 358 -199 358 -199 280 -199 c 1,6,-1
 204 -195 l 1,7,-1
 212 -164 l 1,8,9
 253 -168 253 -168 285 -168 c 0,10,11
 330 -168 330 -168 341 -124 c 0,12,13
 343 -117 343 -117 343 -110 c 0,14,15
 343 -83 343 -83 306 -83 c 2,16,-1
 255 -83 l 1,17,-1
 273 -7 l 1,18,19
 121 9 121 9 121 190 c 0,20,21
 121 333 121 333 176 465 c 0,22,23
 238 615 238 615 342 676 c 1,24,25
 401 709 401 709 469 709 c 0,26,27
 543 709 543 709 608 695 c 2,28,-1
 632 690 l 1,29,-1
 624 658 l 1,30,31
 537 675 537 675 464.5 675 c 128,-1,32
 392 675 392 675 331.5 627.5 c 128,-1,33
 271 580 271 580 234 506 c 0,34,35
 159 353 159 353 159 190 c 0,36,37
 159 105 159 105 195.5 65 c 128,-1,38
 232 25 232 25 311 25 c 0,39,40
 387 25 387 25 451 39 c 2,41,-1
 474 44 l 1,42,-1
 473 11 l 1,43,44
 386 -9 386 -9 306 -9 c 2,45,-1
 304 -9 l 1,46,-1
 293 -53 l 1,47,-1
 298 -53 l 2,0,1
EndSplineSet
Position2: "'cpsp' Capital Spacing in Latin lookup 0 subtable" dx=5 dy=0 dh=10 dv=0
EndChar

StartChar: Egrave
Encoding: 200 200 137
Width: 510
GlyphClass: 2
Flags: W
LayerCount: 2
Fore
SplineSet
391 917 m 1,0,-1
 551 820 l 1,1,-1
 536 798 l 1,2,-1
 374 890 l 1,3,-1
 391 917 l 1,0,-1
86 0 m 1,4,-1
 248 700 l 1,5,-1
 625 700 l 1,6,-1
 617 667 l 1,7,-1
 276 667 l 1,8,-1
 209 376 l 1,9,-1
 494 376 l 1,10,-1
 486 343 l 1,11,-1
 201 343 l 1,12,-1
 130 33 l 1,13,-1
 471 33 l 1,14,-1
 463 0 l 1,15,-1
 86 0 l 1,4,-1
EndSplineSet
Position2: "'cpsp' Capital Spacing in Latin lookup 0 subtable" dx=5 dy=0 dh=10 dv=0
EndChar

StartChar: Eacute
Encoding: 201 201 138
Width: 510
GlyphClass: 2
Flags: W
LayerCount: 2
Fore
SplineSet
395 798 m 1,0,-1
 387 823 l 1,1,-1
 591 919 l 1,2,-1
 600 890 l 1,3,-1
 395 798 l 1,0,-1
86 0 m 1,4,-1
 248 700 l 1,5,-1
 625 700 l 1,6,-1
 617 667 l 1,7,-1
 276 667 l 1,8,-1
 209 376 l 1,9,-1
 494 376 l 1,10,-1
 486 343 l 1,11,-1
 201 343 l 1,12,-1
 130 33 l 1,13,-1
 471 33 l 1,14,-1
 463 0 l 1,15,-1
 86 0 l 1,4,-1
EndSplineSet
Position2: "'cpsp' Capital Spacing in Latin lookup 0 subtable" dx=5 dy=0 dh=10 dv=0
EndChar

StartChar: Ecircumflex
Encoding: 202 202 139
Width: 510
GlyphClass: 2
Flags: W
LayerCount: 2
Fore
SplineSet
397 798 m 1,0,-1
 553 926 l 1,1,-1
 567 926 l 1,2,-1
 664 798 l 1,3,-1
 630 798 l 1,4,-1
 557 895 l 1,5,-1
 438 798 l 1,6,-1
 397 798 l 1,0,-1
86 0 m 1,7,-1
 248 700 l 1,8,-1
 625 700 l 1,9,-1
 617 667 l 1,10,-1
 276 667 l 1,11,-1
 209 376 l 1,12,-1
 494 376 l 1,13,-1
 486 343 l 1,14,-1
 201 343 l 1,15,-1
 130 33 l 1,16,-1
 471 33 l 1,17,-1
 463 0 l 1,18,-1
 86 0 l 1,7,-1
EndSplineSet
Position2: "'cpsp' Capital Spacing in Latin lookup 0 subtable" dx=5 dy=0 dh=10 dv=0
EndChar

StartChar: Edieresis
Encoding: 203 203 140
Width: 510
GlyphClass: 2
Flags: W
LayerCount: 2
Fore
SplineSet
362 831 m 1,0,-1
 376 897 l 1,1,-1
 406 897 l 1,2,-1
 389 831 l 1,3,-1
 362 831 l 1,0,-1
541 831 m 1,4,-1
 557 897 l 1,5,-1
 586 897 l 1,6,-1
 570 831 l 1,7,-1
 541 831 l 1,4,-1
86 0 m 1,8,-1
 248 700 l 1,9,-1
 625 700 l 1,10,-1
 617 667 l 1,11,-1
 276 667 l 1,12,-1
 209 376 l 1,13,-1
 494 376 l 1,14,-1
 486 343 l 1,15,-1
 201 343 l 1,16,-1
 130 33 l 1,17,-1
 471 33 l 1,18,-1
 463 0 l 1,19,-1
 86 0 l 1,8,-1
EndSplineSet
Position2: "'cpsp' Capital Spacing in Latin lookup 0 subtable" dx=5 dy=0 dh=10 dv=0
EndChar

StartChar: Igrave
Encoding: 204 204 141
Width: 208
GlyphClass: 2
Flags: W
LayerCount: 2
Fore
SplineSet
170 917 m 1,0,-1
 330 820 l 1,1,-1
 315 798 l 1,2,-1
 153 890 l 1,3,-1
 170 917 l 1,0,-1
86 0 m 1,4,-1
 248 700 l 1,5,-1
 284 700 l 1,6,-1
 122 0 l 1,7,-1
 86 0 l 1,4,-1
EndSplineSet
Position2: "'cpsp' Capital Spacing in Latin lookup 0 subtable" dx=5 dy=0 dh=10 dv=0
EndChar

StartChar: Iacute
Encoding: 205 205 142
Width: 208
GlyphClass: 2
Flags: W
LayerCount: 2
Fore
SplineSet
245 798 m 1,0,-1
 237 823 l 1,1,-1
 441 919 l 1,2,-1
 450 890 l 1,3,-1
 245 798 l 1,0,-1
86 0 m 1,4,-1
 248 700 l 1,5,-1
 284 700 l 1,6,-1
 122 0 l 1,7,-1
 86 0 l 1,4,-1
EndSplineSet
Position2: "'cpsp' Capital Spacing in Latin lookup 0 subtable" dx=5 dy=0 dh=10 dv=0
EndChar

StartChar: Icircumflex
Encoding: 206 206 143
Width: 208
GlyphClass: 2
Flags: W
LayerCount: 2
Fore
SplineSet
151 798 m 1,0,-1
 307 926 l 1,1,-1
 321 926 l 1,2,-1
 418 798 l 1,3,-1
 384 798 l 1,4,-1
 311 895 l 1,5,-1
 192 798 l 1,6,-1
 151 798 l 1,0,-1
86 0 m 1,7,-1
 248 700 l 1,8,-1
 284 700 l 1,9,-1
 122 0 l 1,10,-1
 86 0 l 1,7,-1
EndSplineSet
Position2: "'cpsp' Capital Spacing in Latin lookup 0 subtable" dx=5 dy=0 dh=10 dv=0
EndChar

StartChar: Idieresis
Encoding: 207 207 144
Width: 208
GlyphClass: 2
Flags: W
LayerCount: 2
Fore
SplineSet
183 831 m 1,0,-1
 197 897 l 1,1,-1
 227 897 l 1,2,-1
 210 831 l 1,3,-1
 183 831 l 1,0,-1
362 831 m 1,4,-1
 378 897 l 1,5,-1
 407 897 l 1,6,-1
 391 831 l 1,7,-1
 362 831 l 1,4,-1
86 0 m 1,8,-1
 248 700 l 1,9,-1
 284 700 l 1,10,-1
 122 0 l 1,11,-1
 86 0 l 1,8,-1
EndSplineSet
Position2: "'cpsp' Capital Spacing in Latin lookup 0 subtable" dx=5 dy=0 dh=10 dv=0
EndChar

StartChar: Eth
Encoding: 208 208 145
Width: 610
GlyphClass: 2
Flags: W
LayerCount: 2
Fore
SplineSet
325 0 m 2,0,-1
 88 0 l 1,1,-1
 165 332 l 1,2,-1
 89 332 l 1,3,-1
 96 370 l 1,4,-1
 174 370 l 1,5,-1
 250 700 l 1,6,-1
 478 700 l 2,7,8
 569 700 569 700 608.5 650 c 128,-1,9
 648 600 648 600 648 508 c 128,-1,10
 648 416 648 416 628 332 c 128,-1,11
 608 248 608 248 570.5 172.5 c 128,-1,12
 533 97 533 97 468.5 48.5 c 128,-1,13
 404 0 404 0 325 0 c 2,0,-1
591.5 344 m 128,-1,15
 610 423 610 423 610 504 c 128,-1,16
 610 585 610 585 578.5 626 c 128,-1,17
 547 667 547 667 471 667 c 2,18,-1
 278 667 l 1,19,-1
 210 370 l 1,20,-1
 372 370 l 1,21,-1
 363 332 l 1,22,-1
 201 332 l 1,23,-1
 133 33 l 1,24,-1
 334 33 l 2,25,26
 398 33 398 33 452 78.5 c 128,-1,27
 506 124 506 124 539.5 194.5 c 128,-1,14
 573 265 573 265 591.5 344 c 128,-1,15
EndSplineSet
Position2: "'cpsp' Capital Spacing in Latin lookup 0 subtable" dx=5 dy=0 dh=10 dv=0
EndChar

StartChar: Ntilde
Encoding: 209 209 146
Width: 617
GlyphClass: 2
Flags: W
LayerCount: 2
Fore
SplineSet
665 875 m 1,0,1
 602 818 602 818 577.5 818 c 128,-1,2
 553 818 553 818 502.5 850 c 128,-1,3
 452 882 452 882 441 882 c 0,4,5
 423 882 423 882 368 840 c 1,6,-1
 350 827 l 1,7,-1
 349 855 l 1,8,9
 415 912 415 912 441.5 912 c 128,-1,10
 468 912 468 912 518 880.5 c 128,-1,11
 568 849 568 849 579 849 c 0,12,13
 598 849 598 849 645 887 c 2,14,-1
 661 900 l 1,15,-1
 665 875 l 1,0,1
86 0 m 1,16,-1
 248 700 l 1,17,-1
 329 700 l 1,18,-1
 479 33 l 1,19,-1
 503 33 l 1,20,-1
 657 700 l 1,21,-1
 693 700 l 1,22,-1
 531 0 l 1,23,-1
 452 0 l 1,24,-1
 301 667 l 1,25,-1
 276 667 l 1,26,-1
 122 0 l 1,27,-1
 86 0 l 1,16,-1
EndSplineSet
Position2: "'cpsp' Capital Spacing in Latin lookup 0 subtable" dx=5 dy=0 dh=10 dv=0
EndChar

StartChar: Ograve
Encoding: 210 210 147
Width: 636
GlyphClass: 2
Flags: W
LayerCount: 2
Fore
SplineSet
424 917 m 1,0,-1
 584 820 l 1,1,-1
 569 798 l 1,2,-1
 407 890 l 1,3,-1
 424 917 l 1,0,-1
198.5 63 m 128,-1,5
 238 24 238 24 323 24 c 128,-1,6
 408 24 408 24 469 69 c 0,7,8
 550 130 550 130 593 253.5 c 128,-1,9
 636 377 636 377 636 504 c 0,10,11
 636 593 636 593 594 634.5 c 128,-1,12
 552 676 552 676 473.5 676 c 128,-1,13
 395 676 395 676 336 633 c 0,14,15
 253 572 253 572 206 445 c 128,-1,16
 159 318 159 318 159 196 c 0,17,4
 159 102 159 102 198.5 63 c 128,-1,5
631 246 m 128,-1,19
 588 123 588 123 509 57 c 128,-1,20
 430 -9 430 -9 324 -9 c 128,-1,21
 218 -9 218 -9 170 37.5 c 128,-1,22
 122 84 122 84 122 203.5 c 128,-1,23
 122 323 122 323 164.5 443 c 128,-1,24
 207 563 207 563 285 636 c 128,-1,25
 363 709 363 709 466.5 709 c 128,-1,26
 570 709 570 709 622 659 c 128,-1,27
 674 609 674 609 674 503 c 0,28,18
 674 369 674 369 631 246 c 128,-1,19
EndSplineSet
Position2: "'cpsp' Capital Spacing in Latin lookup 0 subtable" dx=5 dy=0 dh=10 dv=0
EndChar

StartChar: Oacute
Encoding: 211 211 148
Width: 636
GlyphClass: 2
Flags: W
LayerCount: 2
Fore
SplineSet
198.5 63 m 128,-1,1
 238 24 238 24 323 24 c 128,-1,2
 408 24 408 24 469 69 c 0,3,4
 550 130 550 130 593 253.5 c 128,-1,5
 636 377 636 377 636 504 c 0,6,7
 636 593 636 593 594 634.5 c 128,-1,8
 552 676 552 676 473.5 676 c 128,-1,9
 395 676 395 676 336 633 c 0,10,11
 253 572 253 572 206 445 c 128,-1,12
 159 318 159 318 159 196 c 0,13,0
 159 102 159 102 198.5 63 c 128,-1,1
631 246 m 128,-1,15
 588 123 588 123 509 57 c 128,-1,16
 430 -9 430 -9 324 -9 c 128,-1,17
 218 -9 218 -9 170 37.5 c 128,-1,18
 122 84 122 84 122 203.5 c 128,-1,19
 122 323 122 323 164.5 443 c 128,-1,20
 207 563 207 563 285 636 c 128,-1,21
 363 709 363 709 466.5 709 c 128,-1,22
 570 709 570 709 622 659 c 128,-1,23
 674 609 674 609 674 503 c 0,24,14
 674 369 674 369 631 246 c 128,-1,15
449 798 m 1,25,-1
 441 823 l 1,26,-1
 645 919 l 1,27,-1
 654 890 l 1,28,-1
 449 798 l 1,25,-1
EndSplineSet
Position2: "'cpsp' Capital Spacing in Latin lookup 0 subtable" dx=5 dy=0 dh=10 dv=0
EndChar

StartChar: Ocircumflex
Encoding: 212 212 149
Width: 636
GlyphClass: 2
Flags: W
LayerCount: 2
Fore
SplineSet
198.5 63 m 128,-1,1
 238 24 238 24 323 24 c 128,-1,2
 408 24 408 24 469 69 c 0,3,4
 550 130 550 130 593 253.5 c 128,-1,5
 636 377 636 377 636 504 c 0,6,7
 636 593 636 593 594 634.5 c 128,-1,8
 552 676 552 676 473.5 676 c 128,-1,9
 395 676 395 676 336 633 c 0,10,11
 253 572 253 572 206 445 c 128,-1,12
 159 318 159 318 159 196 c 0,13,0
 159 102 159 102 198.5 63 c 128,-1,1
631 246 m 128,-1,15
 588 123 588 123 509 57 c 128,-1,16
 430 -9 430 -9 324 -9 c 128,-1,17
 218 -9 218 -9 170 37.5 c 128,-1,18
 122 84 122 84 122 203.5 c 128,-1,19
 122 323 122 323 164.5 443 c 128,-1,20
 207 563 207 563 285 636 c 128,-1,21
 363 709 363 709 466.5 709 c 128,-1,22
 570 709 570 709 622 659 c 128,-1,23
 674 609 674 609 674 503 c 0,24,14
 674 369 674 369 631 246 c 128,-1,15
372 803 m 1,25,-1
 528 931 l 1,26,-1
 542 931 l 1,27,-1
 639 803 l 1,28,-1
 605 803 l 1,29,-1
 532 900 l 1,30,-1
 413 803 l 1,31,-1
 372 803 l 1,25,-1
EndSplineSet
Position2: "'cpsp' Capital Spacing in Latin lookup 0 subtable" dx=5 dy=0 dh=10 dv=0
EndChar

StartChar: Otilde
Encoding: 213 213 150
Width: 636
GlyphClass: 2
Flags: W
LayerCount: 2
Fore
SplineSet
682 875 m 1,0,1
 619 818 619 818 594.5 818 c 128,-1,2
 570 818 570 818 519.5 850 c 128,-1,3
 469 882 469 882 458 882 c 0,4,5
 440 882 440 882 385 840 c 1,6,-1
 367 827 l 1,7,-1
 366 855 l 1,8,9
 432 912 432 912 458.5 912 c 128,-1,10
 485 912 485 912 535 880.5 c 128,-1,11
 585 849 585 849 596 849 c 0,12,13
 615 849 615 849 662 887 c 2,14,-1
 678 900 l 1,15,-1
 682 875 l 1,0,1
198.5 63 m 128,-1,17
 238 24 238 24 323 24 c 128,-1,18
 408 24 408 24 469 69 c 0,19,20
 550 130 550 130 593 253.5 c 128,-1,21
 636 377 636 377 636 504 c 0,22,23
 636 593 636 593 594 634.5 c 128,-1,24
 552 676 552 676 473.5 676 c 128,-1,25
 395 676 395 676 336 633 c 0,26,27
 253 572 253 572 206 445 c 128,-1,28
 159 318 159 318 159 196 c 0,29,16
 159 102 159 102 198.5 63 c 128,-1,17
631 246 m 128,-1,31
 588 123 588 123 509 57 c 128,-1,32
 430 -9 430 -9 324 -9 c 128,-1,33
 218 -9 218 -9 170 37.5 c 128,-1,34
 122 84 122 84 122 203.5 c 128,-1,35
 122 323 122 323 164.5 443 c 128,-1,36
 207 563 207 563 285 636 c 128,-1,37
 363 709 363 709 466.5 709 c 128,-1,38
 570 709 570 709 622 659 c 128,-1,39
 674 609 674 609 674 503 c 0,40,30
 674 369 674 369 631 246 c 128,-1,31
EndSplineSet
Position2: "'cpsp' Capital Spacing in Latin lookup 0 subtable" dx=5 dy=0 dh=10 dv=0
EndChar

StartChar: Odieresis
Encoding: 214 214 151
Width: 636
GlyphClass: 2
Flags: W
LayerCount: 2
Fore
SplineSet
404 833 m 1,0,-1
 419 898 l 1,1,-1
 453 898 l 1,2,-1
 438 833 l 1,3,-1
 404 833 l 1,0,-1
584 833 m 1,4,-1
 597 898 l 1,5,-1
 631 898 l 1,6,-1
 616 833 l 1,7,-1
 584 833 l 1,4,-1
198.5 63 m 128,-1,9
 238 24 238 24 323 24 c 128,-1,10
 408 24 408 24 469 69 c 0,11,12
 550 130 550 130 593 253.5 c 128,-1,13
 636 377 636 377 636 504 c 0,14,15
 636 593 636 593 594 634.5 c 128,-1,16
 552 676 552 676 473.5 676 c 128,-1,17
 395 676 395 676 336 633 c 0,18,19
 253 572 253 572 206 445 c 128,-1,20
 159 318 159 318 159 196 c 0,21,8
 159 102 159 102 198.5 63 c 128,-1,9
631 246 m 128,-1,23
 588 123 588 123 509 57 c 128,-1,24
 430 -9 430 -9 324 -9 c 128,-1,25
 218 -9 218 -9 170 37.5 c 128,-1,26
 122 84 122 84 122 203.5 c 128,-1,27
 122 323 122 323 164.5 443 c 128,-1,28
 207 563 207 563 285 636 c 128,-1,29
 363 709 363 709 466.5 709 c 128,-1,30
 570 709 570 709 622 659 c 128,-1,31
 674 609 674 609 674 503 c 0,32,22
 674 369 674 369 631 246 c 128,-1,23
EndSplineSet
Position2: "'cpsp' Capital Spacing in Latin lookup 0 subtable" dx=5 dy=0 dh=10 dv=0
EndChar

StartChar: multiply
Encoding: 215 215 152
Width: 560
GlyphClass: 2
Flags: W
LayerCount: 2
Fore
SplineSet
162 450 m 1,0,-1
 337 274 l 1,1,-1
 512 450 l 1,2,-1
 536 426 l 1,3,-1
 360 251 l 1,4,-1
 536 76 l 1,5,-1
 512 52 l 1,6,-1
 337 228 l 1,7,-1
 162 52 l 1,8,-1
 138 76 l 1,9,-1
 314 251 l 1,10,-1
 138 426 l 1,11,-1
 162 450 l 1,0,-1
EndSplineSet
EndChar

StartChar: Oslash
Encoding: 216 216 153
Width: 636
GlyphClass: 2
Flags: W
LayerCount: 2
Fore
SplineSet
169 38 m 1,0,1
 122 85 122 85 122 204 c 128,-1,2
 122 323 122 323 164.5 443 c 128,-1,3
 207 563 207 563 285 636 c 128,-1,4
 363 709 363 709 457.5 709 c 128,-1,5
 552 709 552 709 602 674 c 1,6,-1
 682 791 l 1,7,-1
 712 777 l 1,8,-1
 627 653 l 1,9,10
 674 601 674 601 674 503 c 0,11,12
 674 369 674 369 631 246 c 128,-1,13
 588 123 588 123 509 57 c 128,-1,14
 430 -9 430 -9 336.5 -9 c 128,-1,15
 243 -9 243 -9 194 19 c 1,16,-1
 106 -110 l 1,17,-1
 79 -94 l 1,18,-1
 169 38 l 1,0,1
582 644 m 1,19,20
 539 676 539 676 467 676 c 128,-1,21
 395 676 395 676 336 633 c 0,22,23
 253 572 253 572 206 445 c 128,-1,24
 159 318 159 318 159 196 c 0,25,26
 159 112 159 112 191 71 c 1,27,-1
 582 644 l 1,19,20
215 50 m 1,28,29
 255 24 255 24 331.5 24 c 128,-1,30
 408 24 408 24 469 69 c 0,31,32
 550 130 550 130 593 253.5 c 128,-1,33
 636 377 636 377 636 504 c 0,34,35
 636 580 636 580 605 621 c 1,36,-1
 409 332 l 1,37,-1
 215 50 l 1,28,29
EndSplineSet
Position2: "'cpsp' Capital Spacing in Latin lookup 0 subtable" dx=5 dy=0 dh=10 dv=0
EndChar

StartChar: Ugrave
Encoding: 217 217 154
Width: 593
GlyphClass: 2
Flags: W
LayerCount: 2
Fore
SplineSet
395 917 m 1,0,-1
 555 820 l 1,1,-1
 540 798 l 1,2,-1
 378 890 l 1,3,-1
 395 917 l 1,0,-1
155 130 m 0,4,5
 155 25 155 25 313 25 c 0,6,7
 403 25 403 25 452 67.5 c 128,-1,8
 501 110 501 110 521 198 c 2,9,-1
 637 700 l 1,10,-1
 673 700 l 1,11,-1
 557 197 l 2,12,13
 533 93 533 93 475.5 42 c 128,-1,14
 418 -9 418 -9 320 -9 c 0,15,16
 119 -9 119 -9 119 129 c 0,17,18
 119 167 119 167 129 207 c 2,19,-1
 243 700 l 1,20,-1
 279 700 l 1,21,-1
 165 207 l 2,22,23
 155 165 155 165 155 130 c 0,4,5
EndSplineSet
Position2: "'cpsp' Capital Spacing in Latin lookup 0 subtable" dx=5 dy=0 dh=10 dv=0
EndChar

StartChar: Uacute
Encoding: 218 218 155
Width: 593
GlyphClass: 2
Flags: W
LayerCount: 2
Fore
SplineSet
155 130 m 0,0,1
 155 25 155 25 313 25 c 0,2,3
 403 25 403 25 452 67.5 c 128,-1,4
 501 110 501 110 521 198 c 2,5,-1
 637 700 l 1,6,-1
 673 700 l 1,7,-1
 557 197 l 2,8,9
 533 93 533 93 475.5 42 c 128,-1,10
 418 -9 418 -9 320 -9 c 0,11,12
 119 -9 119 -9 119 129 c 0,13,14
 119 167 119 167 129 207 c 2,15,-1
 243 700 l 1,16,-1
 279 700 l 1,17,-1
 165 207 l 2,18,19
 155 165 155 165 155 130 c 0,0,1
402 798 m 1,20,-1
 394 823 l 1,21,-1
 598 919 l 1,22,-1
 607 890 l 1,23,-1
 402 798 l 1,20,-1
EndSplineSet
Position2: "'cpsp' Capital Spacing in Latin lookup 0 subtable" dx=5 dy=0 dh=10 dv=0
EndChar

StartChar: Ucircumflex
Encoding: 219 219 156
Width: 593
GlyphClass: 2
Flags: W
LayerCount: 2
Fore
SplineSet
155 130 m 0,0,1
 155 25 155 25 313 25 c 0,2,3
 403 25 403 25 452 67.5 c 128,-1,4
 501 110 501 110 521 198 c 2,5,-1
 637 700 l 1,6,-1
 673 700 l 1,7,-1
 557 197 l 2,8,9
 533 93 533 93 475.5 42 c 128,-1,10
 418 -9 418 -9 320 -9 c 0,11,12
 119 -9 119 -9 119 129 c 0,13,14
 119 167 119 167 129 207 c 2,15,-1
 243 700 l 1,16,-1
 279 700 l 1,17,-1
 165 207 l 2,18,19
 155 165 155 165 155 130 c 0,0,1
340 803 m 1,20,-1
 496 931 l 1,21,-1
 510 931 l 1,22,-1
 607 803 l 1,23,-1
 573 803 l 1,24,-1
 500 900 l 1,25,-1
 381 803 l 1,26,-1
 340 803 l 1,20,-1
EndSplineSet
Position2: "'cpsp' Capital Spacing in Latin lookup 0 subtable" dx=5 dy=0 dh=10 dv=0
EndChar

StartChar: Udieresis
Encoding: 220 220 157
Width: 593
GlyphClass: 2
Flags: W
LayerCount: 2
Fore
SplineSet
371 833 m 1,0,-1
 386 898 l 1,1,-1
 420 898 l 1,2,-1
 405 833 l 1,3,-1
 371 833 l 1,0,-1
551 833 m 1,4,-1
 564 898 l 1,5,-1
 598 898 l 1,6,-1
 583 833 l 1,7,-1
 551 833 l 1,4,-1
155 130 m 0,8,9
 155 25 155 25 313 25 c 0,10,11
 403 25 403 25 452 67.5 c 128,-1,12
 501 110 501 110 521 198 c 2,13,-1
 637 700 l 1,14,-1
 673 700 l 1,15,-1
 557 197 l 2,16,17
 533 93 533 93 475.5 42 c 128,-1,18
 418 -9 418 -9 320 -9 c 0,19,20
 119 -9 119 -9 119 129 c 0,21,22
 119 167 119 167 129 207 c 2,23,-1
 243 700 l 1,24,-1
 279 700 l 1,25,-1
 165 207 l 2,26,27
 155 165 155 165 155 130 c 0,8,9
EndSplineSet
Position2: "'cpsp' Capital Spacing in Latin lookup 0 subtable" dx=5 dy=0 dh=10 dv=0
EndChar

StartChar: Yacute
Encoding: 221 221 158
Width: 485
GlyphClass: 2
Flags: W
LayerCount: 2
Fore
SplineSet
344 798 m 1,0,-1
 336 823 l 1,1,-1
 540 919 l 1,2,-1
 549 890 l 1,3,-1
 344 798 l 1,0,-1
627 700 m 1,4,-1
 326 301 l 1,5,-1
 256 0 l 1,6,-1
 220 0 l 1,7,-1
 291 308 l 1,8,-1
 178 700 l 1,9,-1
 214 700 l 1,10,-1
 317 339 l 1,11,-1
 587 700 l 1,12,-1
 627 700 l 1,4,-1
EndSplineSet
Position2: "'cpsp' Capital Spacing in Latin lookup 0 subtable" dx=5 dy=0 dh=10 dv=0
EndChar

StartChar: Thorn
Encoding: 222 222 159
Width: 556
GlyphClass: 2
Flags: W
LayerCount: 2
Fore
SplineSet
361 166 m 2,0,1
 509 166 509 166 560 367 c 0,2,3
 570 406 570 406 570 437 c 0,4,5
 570 547 570 547 444 547 c 2,6,-1
 250 547 l 1,7,-1
 160 166 l 1,8,-1
 361 166 l 2,0,1
353 134 m 2,9,-1
 152 134 l 1,10,-1
 121 0 l 1,11,-1
 85 0 l 1,12,-1
 249 700 l 1,13,-1
 285 700 l 1,14,-1
 257 579 l 1,15,-1
 452 579 l 2,16,17
 606 579 606 579 606 441 c 0,18,19
 606 408 606 408 597 367 c 0,20,21
 574 261 574 261 512.5 197.5 c 128,-1,22
 451 134 451 134 353 134 c 2,9,-1
EndSplineSet
Position2: "'cpsp' Capital Spacing in Latin lookup 0 subtable" dx=5 dy=0 dh=10 dv=0
EndChar

StartChar: germandbls
Encoding: 223 223 160
Width: 522
GlyphClass: 2
Flags: W
LayerCount: 2
Fore
SplineSet
403 739 m 0,0,1
 544 739 544 739 544 635 c 0,2,3
 544 575 544 575 517.5 538 c 128,-1,4
 491 501 491 501 445 476.5 c 128,-1,5
 399 452 399 452 382.5 438 c 128,-1,6
 366 424 366 424 366 404 c 128,-1,7
 366 384 366 384 377 371 c 128,-1,8
 388 358 388 358 437 328 c 128,-1,9
 486 298 486 298 505 275 c 128,-1,10
 524 252 524 252 524 203 c 0,11,12
 524 106 524 106 464.5 48.5 c 128,-1,13
 405 -9 405 -9 297 -9 c 0,14,15
 258 -9 258 -9 210 2 c 1,16,-1
 194 5 l 1,17,-1
 199 37 l 1,18,19
 262 23 262 23 301 23 c 0,20,21
 388 23 388 23 438 71.5 c 128,-1,22
 488 120 488 120 488 202 c 0,23,24
 488 238 488 238 471.5 258 c 128,-1,25
 455 278 455 278 408 307 c 128,-1,26
 361 336 361 336 346 355.5 c 128,-1,27
 331 375 331 375 331 403.5 c 128,-1,28
 331 432 331 432 350.5 452.5 c 128,-1,29
 370 473 370 473 430 505 c 0,30,31
 508 547 508 547 508 630 c 0,32,33
 508 670 508 670 483.5 688.5 c 128,-1,34
 459 707 459 707 393 707 c 128,-1,35
 327 707 327 707 290 667.5 c 128,-1,36
 253 628 253 628 231 532 c 2,37,-1
 107 0 l 1,38,-1
 73 0 l 1,39,-1
 198 535 l 2,40,41
 224 647 224 647 270.5 693 c 128,-1,42
 317 739 317 739 403 739 c 0,0,1
EndSplineSet
EndChar

StartChar: agrave
Encoding: 224 224 161
Width: 482
GlyphClass: 2
Flags: W
LayerCount: 2
Fore
SplineSet
215 -9 m 0,0,1
 95 -9 95 -9 95 118 c 0,2,3
 95 206 95 206 123 294 c 128,-1,4
 151 382 151 382 210 445.5 c 128,-1,5
 269 509 269 509 345 509 c 0,6,7
 396 509 396 509 489 494 c 2,8,-1
 520 489 l 1,9,-1
 444 163 l 2,10,11
 433 117 433 117 419 28 c 2,12,-1
 415 1 l 1,13,-1
 382 -1 l 1,14,15
 399 103 399 103 404 126 c 1,16,17
 400 121 400 121 393 111.5 c 128,-1,18
 386 102 386 102 364.5 79 c 128,-1,19
 343 56 343 56 321.5 38 c 128,-1,20
 300 20 300 20 270.5 5.5 c 128,-1,21
 241 -9 241 -9 215 -9 c 0,0,1
479 462 m 1,22,23
 406 477 406 477 342.5 477 c 128,-1,24
 279 477 279 477 228.5 416.5 c 128,-1,25
 178 356 178 356 155 276 c 128,-1,26
 132 196 132 196 132 118 c 0,27,28
 132 71 132 71 153 47.5 c 128,-1,29
 174 24 174 24 222 24 c 0,30,31
 276 24 276 24 369 126 c 0,32,33
 390 149 390 149 402 166 c 2,34,-1
 414 182 l 1,35,-1
 479 462 l 1,22,23
330 721 m 1,36,-1
 490 626 l 1,37,-1
 472 604 l 1,38,-1
 312 696 l 1,39,-1
 330 721 l 1,36,-1
EndSplineSet
EndChar

StartChar: aacute
Encoding: 225 225 162
Width: 482
GlyphClass: 2
Flags: W
LayerCount: 2
Fore
SplineSet
215 -9 m 0,0,1
 95 -9 95 -9 95 118 c 0,2,3
 95 206 95 206 123 294 c 128,-1,4
 151 382 151 382 210 445.5 c 128,-1,5
 269 509 269 509 345 509 c 0,6,7
 396 509 396 509 489 494 c 2,8,-1
 520 489 l 1,9,-1
 444 163 l 2,10,11
 433 117 433 117 419 28 c 2,12,-1
 415 1 l 1,13,-1
 382 -1 l 1,14,15
 399 103 399 103 404 126 c 1,16,17
 400 121 400 121 393 111.5 c 128,-1,18
 386 102 386 102 364.5 79 c 128,-1,19
 343 56 343 56 321.5 38 c 128,-1,20
 300 20 300 20 270.5 5.5 c 128,-1,21
 241 -9 241 -9 215 -9 c 0,0,1
479 462 m 1,22,23
 406 477 406 477 342.5 477 c 128,-1,24
 279 477 279 477 228.5 416.5 c 128,-1,25
 178 356 178 356 155 276 c 128,-1,26
 132 196 132 196 132 118 c 0,27,28
 132 71 132 71 153 47.5 c 128,-1,29
 174 24 174 24 222 24 c 0,30,31
 276 24 276 24 369 126 c 0,32,33
 390 149 390 149 402 166 c 2,34,-1
 414 182 l 1,35,-1
 479 462 l 1,22,23
343 610 m 1,36,-1
 338 635 l 1,37,-1
 541 730 l 1,38,-1
 547 700 l 1,39,-1
 343 610 l 1,36,-1
EndSplineSet
EndChar

StartChar: acircumflex
Encoding: 226 226 163
Width: 482
GlyphClass: 2
Flags: W
LayerCount: 2
Fore
SplineSet
260 595 m 1,0,-1
 406 730 l 1,1,-1
 428 730 l 1,2,-1
 515 595 l 1,3,-1
 477 595 l 1,4,-1
 413 696 l 1,5,-1
 303 595 l 1,6,-1
 260 595 l 1,0,-1
215 -9 m 0,7,8
 95 -9 95 -9 95 118 c 0,9,10
 95 206 95 206 123 294 c 128,-1,11
 151 382 151 382 210 445.5 c 128,-1,12
 269 509 269 509 345 509 c 0,13,14
 396 509 396 509 489 494 c 2,15,-1
 520 489 l 1,16,-1
 444 163 l 2,17,18
 433 117 433 117 419 28 c 2,19,-1
 415 1 l 1,20,-1
 382 -1 l 1,21,22
 399 103 399 103 404 126 c 1,23,24
 400 121 400 121 393 111.5 c 128,-1,25
 386 102 386 102 364.5 79 c 128,-1,26
 343 56 343 56 321.5 38 c 128,-1,27
 300 20 300 20 270.5 5.5 c 128,-1,28
 241 -9 241 -9 215 -9 c 0,7,8
479 462 m 1,29,30
 406 477 406 477 342.5 477 c 128,-1,31
 279 477 279 477 228.5 416.5 c 128,-1,32
 178 356 178 356 155 276 c 128,-1,33
 132 196 132 196 132 118 c 0,34,35
 132 71 132 71 153 47.5 c 128,-1,36
 174 24 174 24 222 24 c 0,37,38
 276 24 276 24 369 126 c 0,39,40
 390 149 390 149 402 166 c 2,41,-1
 414 182 l 1,42,-1
 479 462 l 1,29,30
EndSplineSet
EndChar

StartChar: atilde
Encoding: 227 227 164
Width: 482
GlyphClass: 2
Flags: W
LayerCount: 2
Fore
SplineSet
215 -9 m 0,0,1
 95 -9 95 -9 95 118 c 0,2,3
 95 206 95 206 123 294 c 128,-1,4
 151 382 151 382 210 445.5 c 128,-1,5
 269 509 269 509 345 509 c 0,6,7
 396 509 396 509 489 494 c 2,8,-1
 520 489 l 1,9,-1
 444 163 l 2,10,11
 433 117 433 117 419 28 c 2,12,-1
 415 1 l 1,13,-1
 382 -1 l 1,14,15
 399 103 399 103 404 126 c 1,16,17
 400 121 400 121 393 111.5 c 128,-1,18
 386 102 386 102 364.5 79 c 128,-1,19
 343 56 343 56 321.5 38 c 128,-1,20
 300 20 300 20 270.5 5.5 c 128,-1,21
 241 -9 241 -9 215 -9 c 0,0,1
479 462 m 1,22,23
 406 477 406 477 342.5 477 c 128,-1,24
 279 477 279 477 228.5 416.5 c 128,-1,25
 178 356 178 356 155 276 c 128,-1,26
 132 196 132 196 132 118 c 0,27,28
 132 71 132 71 153 47.5 c 128,-1,29
 174 24 174 24 222 24 c 0,30,31
 276 24 276 24 369 126 c 0,32,33
 390 149 390 149 402 166 c 2,34,-1
 414 182 l 1,35,-1
 479 462 l 1,22,23
480 630 m 0,36,37
 462 630 462 630 414 655.5 c 128,-1,38
 366 681 366 681 356 681 c 0,39,40
 338 681 338 681 292 647 c 2,41,-1
 277 636 l 1,42,-1
 275 667 l 1,43,44
 333 713 333 713 363 713 c 0,45,46
 382 713 382 713 428 687.5 c 128,-1,47
 474 662 474 662 484 662 c 0,48,49
 503 662 503 662 541 692 c 1,50,-1
 554 703 l 1,51,-1
 559 673 l 1,52,53
 509 630 509 630 480 630 c 0,36,37
EndSplineSet
EndChar

StartChar: adieresis
Encoding: 228 228 165
Width: 482
GlyphClass: 2
Flags: W
LayerCount: 2
Fore
SplineSet
282 633 m 1,0,-1
 297 698 l 1,1,-1
 331 698 l 1,2,-1
 316 633 l 1,3,-1
 282 633 l 1,0,-1
462 633 m 1,4,-1
 475 698 l 1,5,-1
 509 698 l 1,6,-1
 494 633 l 1,7,-1
 462 633 l 1,4,-1
215 -9 m 0,8,9
 95 -9 95 -9 95 118 c 0,10,11
 95 206 95 206 123 294 c 128,-1,12
 151 382 151 382 210 445.5 c 128,-1,13
 269 509 269 509 345 509 c 0,14,15
 396 509 396 509 489 494 c 2,16,-1
 520 489 l 1,17,-1
 444 163 l 2,18,19
 433 117 433 117 419 28 c 2,20,-1
 415 1 l 1,21,-1
 382 -1 l 1,22,23
 399 103 399 103 404 126 c 1,24,25
 400 121 400 121 393 111.5 c 128,-1,26
 386 102 386 102 364.5 79 c 128,-1,27
 343 56 343 56 321.5 38 c 128,-1,28
 300 20 300 20 270.5 5.5 c 128,-1,29
 241 -9 241 -9 215 -9 c 0,8,9
479 462 m 1,30,31
 406 477 406 477 342.5 477 c 128,-1,32
 279 477 279 477 228.5 416.5 c 128,-1,33
 178 356 178 356 155 276 c 128,-1,34
 132 196 132 196 132 118 c 0,35,36
 132 71 132 71 153 47.5 c 128,-1,37
 174 24 174 24 222 24 c 0,38,39
 276 24 276 24 369 126 c 0,40,41
 390 149 390 149 402 166 c 2,42,-1
 414 182 l 1,43,-1
 479 462 l 1,30,31
EndSplineSet
EndChar

StartChar: aring
Encoding: 229 229 166
Width: 482
GlyphClass: 2
Flags: W
LayerCount: 2
Fore
SplineSet
215 -9 m 0,0,1
 95 -9 95 -9 95 118 c 0,2,3
 95 206 95 206 123 294 c 128,-1,4
 151 382 151 382 210 445.5 c 128,-1,5
 269 509 269 509 345 509 c 0,6,7
 396 509 396 509 489 494 c 2,8,-1
 520 489 l 1,9,-1
 444 163 l 2,10,11
 433 117 433 117 419 28 c 2,12,-1
 415 1 l 1,13,-1
 382 -1 l 1,14,15
 399 103 399 103 404 126 c 1,16,17
 400 121 400 121 393 111.5 c 128,-1,18
 386 102 386 102 364.5 79 c 128,-1,19
 343 56 343 56 321.5 38 c 128,-1,20
 300 20 300 20 270.5 5.5 c 128,-1,21
 241 -9 241 -9 215 -9 c 0,0,1
479 462 m 1,22,23
 406 477 406 477 342.5 477 c 128,-1,24
 279 477 279 477 228.5 416.5 c 128,-1,25
 178 356 178 356 155 276 c 128,-1,26
 132 196 132 196 132 118 c 0,27,28
 132 71 132 71 153 47.5 c 128,-1,29
 174 24 174 24 222 24 c 0,30,31
 276 24 276 24 369 126 c 0,32,33
 390 149 390 149 402 166 c 2,34,-1
 414 182 l 1,35,-1
 479 462 l 1,22,23
404 576 m 0,36,37
 338 576 338 576 338 642 c 0,38,39
 338 697 338 697 372 727.5 c 128,-1,40
 406 758 406 758 448 758 c 0,41,42
 513 758 513 758 513 688 c 0,43,44
 513 641 513 641 481 608.5 c 128,-1,45
 449 576 449 576 404 576 c 0,36,37
368 667 m 0,46,47
 366 659 366 659 366 648 c 128,-1,48
 366 637 366 637 376.5 621 c 128,-1,49
 387 605 387 605 411.5 605 c 128,-1,50
 436 605 436 605 456 623 c 0,51,52
 485 648 485 648 485 682 c 0,53,54
 485 696 485 696 475 711.5 c 128,-1,55
 465 727 465 727 440.5 727 c 128,-1,56
 416 727 416 727 394.5 709.5 c 128,-1,57
 373 692 373 692 368 667 c 0,46,47
EndSplineSet
EndChar

StartChar: ae
Encoding: 230 230 167
Width: 772
GlyphClass: 2
Flags: W
LayerCount: 2
Fore
SplineSet
408 49 m 1,0,1
 261 -9 261 -9 165 -9 c 128,-1,2
 69 -9 69 -9 69 94 c 0,3,4
 69 114 69 114 73 138 c 0,5,6
 86 208 86 208 132.5 239.5 c 128,-1,7
 179 271 179 271 262.5 283 c 128,-1,8
 346 295 346 295 421 301 c 1,9,10
 441 369 441 369 441 385.5 c 128,-1,11
 441 402 441 402 439.5 412.5 c 128,-1,12
 438 423 438 423 432 439 c 0,13,14
 418 471 418 471 362 471 c 0,15,16
 316 471 316 471 212 464 c 2,17,-1
 183 462 l 1,18,-1
 189 499 l 1,19,20
 295 509 295 509 370 509 c 0,21,22
 416 509 416 509 446 484 c 128,-1,23
 476 459 476 459 477 414 c 1,24,25
 542 509 542 509 664 509 c 0,26,27
 801 509 801 509 801 373 c 0,28,29
 801 322 801 322 787 269 c 2,30,-1
 778 234 l 1,31,-1
 448 236 l 1,32,33
 433 169 433 169 433 124 c 0,34,35
 433 27 433 27 537 27 c 0,36,37
 609 27 609 27 684 34 c 1,38,-1
 712 36 l 1,39,-1
 705 0 l 1,40,41
 597 -9 597 -9 529 -9 c 0,42,43
 437 -9 437 -9 408 49 c 1,0,1
109 100 m 0,44,45
 109 27 109 27 173 27 c 0,46,47
 252 27 252 27 399 81 c 1,48,49
 392 118 392 118 394.5 141.5 c 128,-1,50
 397 165 397 165 397.5 172 c 128,-1,51
 398 179 398 179 401.5 196.5 c 128,-1,52
 405 214 405 214 406 218 c 0,53,54
 408 243 408 243 416 266 c 1,55,56
 288 252 288 252 238 243.5 c 128,-1,57
 188 235 188 235 157 210.5 c 128,-1,58
 126 186 126 186 114 138 c 0,59,60
 109 118 109 118 109 100 c 0,44,45
749 268 m 1,61,62
 765 326 765 326 765 374 c 0,63,64
 765 473 765 473 656 473 c 0,65,66
 581 473 581 473 530.5 425 c 128,-1,67
 480 377 480 377 455 270 c 1,68,-1
 749 268 l 1,61,62
EndSplineSet
EndChar

StartChar: ccedilla
Encoding: 231 231 168
Width: 403
GlyphClass: 2
Flags: W
LayerCount: 2
Fore
SplineSet
233 -53 m 2,0,1
 312 -53 312 -53 312 -105 c 0,2,3
 312 -114 312 -114 310 -124 c 0,4,5
 293 -199 293 -199 215 -199 c 1,6,-1
 139 -195 l 1,7,-1
 147 -164 l 1,8,9
 188 -168 188 -168 220 -168 c 0,10,11
 265 -168 265 -168 276 -124 c 0,12,13
 278 -117 278 -117 278 -110 c 0,14,15
 278 -83 278 -83 241 -83 c 2,16,-1
 190 -83 l 1,17,-1
 208 -6 l 1,18,19
 99 10 99 10 99 129 c 0,20,21
 99 347 99 347 215 452 c 0,22,23
 277 509 277 509 363 509 c 0,24,25
 411 509 411 509 456 501 c 2,26,-1
 472 498 l 1,27,-1
 463 467 l 1,28,29
 406 477 406 477 363 477 c 0,30,31
 288 477 288 477 235 426 c 0,32,33
 136 329 136 329 136 132 c 0,34,35
 136 78 136 78 164.5 50.5 c 128,-1,36
 193 23 193 23 257 23 c 0,37,38
 294 23 294 23 352 37 c 2,39,-1
 372 42 l 1,40,-1
 372 10 l 1,41,42
 305 -9 305 -9 249 -9 c 2,43,-1
 239 -9 l 1,44,-1
 228 -53 l 1,45,-1
 233 -53 l 2,0,1
EndSplineSet
EndChar

StartChar: egrave
Encoding: 232 232 169
Width: 452
GlyphClass: 2
Flags: W
LayerCount: 2
Fore
SplineSet
163.5 54.5 m 128,-1,1
 193 25 193 25 236 25 c 0,2,3
 310 25 310 25 385 47 c 2,4,-1
 409 54 l 1,5,-1
 409 21 l 1,6,7
 323 -9 323 -9 237 -9 c 0,8,9
 173 -9 173 -9 135 27.5 c 128,-1,10
 97 64 97 64 97 130 c 128,-1,11
 97 196 97 196 113.5 261 c 128,-1,12
 130 326 130 326 161.5 382.5 c 128,-1,13
 193 439 193 439 245.5 474 c 128,-1,14
 298 509 298 509 364 509 c 0,15,16
 494 509 494 509 494 406 c 0,17,18
 494 321 494 321 425 285.5 c 128,-1,19
 356 250 356 250 212 250 c 2,20,-1
 149 250 l 1,21,22
 134 190 134 190 134 137 c 128,-1,0
 134 84 134 84 163.5 54.5 c 128,-1,1
221 282 m 2,23,24
 344 282 344 282 401 308.5 c 128,-1,25
 458 335 458 335 458 406 c 128,-1,26
 458 477 458 477 363 477 c 0,27,28
 217 477 217 477 156 282 c 1,29,-1
 221 282 l 2,23,24
256 721 m 1,30,-1
 416 626 l 1,31,-1
 398 604 l 1,32,-1
 238 696 l 1,33,-1
 256 721 l 1,30,-1
EndSplineSet
EndChar

StartChar: eacute
Encoding: 233 233 170
Width: 452
GlyphClass: 2
Flags: W
LayerCount: 2
Fore
SplineSet
163.5 54.5 m 128,-1,1
 193 25 193 25 236 25 c 0,2,3
 310 25 310 25 385 47 c 2,4,-1
 409 54 l 1,5,-1
 409 21 l 1,6,7
 323 -9 323 -9 237 -9 c 0,8,9
 173 -9 173 -9 135 27.5 c 128,-1,10
 97 64 97 64 97 130 c 128,-1,11
 97 196 97 196 113.5 261 c 128,-1,12
 130 326 130 326 161.5 382.5 c 128,-1,13
 193 439 193 439 245.5 474 c 128,-1,14
 298 509 298 509 364 509 c 0,15,16
 494 509 494 509 494 406 c 0,17,18
 494 321 494 321 425 285.5 c 128,-1,19
 356 250 356 250 212 250 c 2,20,-1
 149 250 l 1,21,22
 134 190 134 190 134 137 c 128,-1,0
 134 84 134 84 163.5 54.5 c 128,-1,1
221 282 m 2,23,24
 344 282 344 282 401 308.5 c 128,-1,25
 458 335 458 335 458 406 c 128,-1,26
 458 477 458 477 363 477 c 0,27,28
 217 477 217 477 156 282 c 1,29,-1
 221 282 l 2,23,24
313 610 m 1,30,-1
 308 635 l 1,31,-1
 511 730 l 1,32,-1
 517 700 l 1,33,-1
 313 610 l 1,30,-1
EndSplineSet
EndChar

StartChar: ecircumflex
Encoding: 234 234 171
Width: 452
GlyphClass: 2
Flags: W
LayerCount: 2
Fore
SplineSet
243 595 m 1,0,-1
 389 730 l 1,1,-1
 411 730 l 1,2,-1
 498 595 l 1,3,-1
 460 595 l 1,4,-1
 396 696 l 1,5,-1
 286 595 l 1,6,-1
 243 595 l 1,0,-1
163.5 54.5 m 128,-1,8
 193 25 193 25 236 25 c 0,9,10
 310 25 310 25 385 47 c 2,11,-1
 409 54 l 1,12,-1
 409 21 l 1,13,14
 323 -9 323 -9 237 -9 c 0,15,16
 173 -9 173 -9 135 27.5 c 128,-1,17
 97 64 97 64 97 130 c 128,-1,18
 97 196 97 196 113.5 261 c 128,-1,19
 130 326 130 326 161.5 382.5 c 128,-1,20
 193 439 193 439 245.5 474 c 128,-1,21
 298 509 298 509 364 509 c 0,22,23
 494 509 494 509 494 406 c 0,24,25
 494 321 494 321 425 285.5 c 128,-1,26
 356 250 356 250 212 250 c 2,27,-1
 149 250 l 1,28,29
 134 190 134 190 134 137 c 128,-1,7
 134 84 134 84 163.5 54.5 c 128,-1,8
221 282 m 2,30,31
 344 282 344 282 401 308.5 c 128,-1,32
 458 335 458 335 458 406 c 128,-1,33
 458 477 458 477 363 477 c 0,34,35
 217 477 217 477 156 282 c 1,36,-1
 221 282 l 2,30,31
EndSplineSet
EndChar

StartChar: edieresis
Encoding: 235 235 172
Width: 452
GlyphClass: 2
Flags: W
LayerCount: 2
Fore
SplineSet
281 633 m 1,0,-1
 296 698 l 1,1,-1
 330 698 l 1,2,-1
 315 633 l 1,3,-1
 281 633 l 1,0,-1
461 633 m 1,4,-1
 474 698 l 1,5,-1
 508 698 l 1,6,-1
 493 633 l 1,7,-1
 461 633 l 1,4,-1
163.5 54.5 m 128,-1,9
 193 25 193 25 236 25 c 0,10,11
 310 25 310 25 385 47 c 2,12,-1
 409 54 l 1,13,-1
 409 21 l 1,14,15
 323 -9 323 -9 237 -9 c 0,16,17
 173 -9 173 -9 135 27.5 c 128,-1,18
 97 64 97 64 97 130 c 128,-1,19
 97 196 97 196 113.5 261 c 128,-1,20
 130 326 130 326 161.5 382.5 c 128,-1,21
 193 439 193 439 245.5 474 c 128,-1,22
 298 509 298 509 364 509 c 0,23,24
 494 509 494 509 494 406 c 0,25,26
 494 321 494 321 425 285.5 c 128,-1,27
 356 250 356 250 212 250 c 2,28,-1
 149 250 l 1,29,30
 134 190 134 190 134 137 c 128,-1,8
 134 84 134 84 163.5 54.5 c 128,-1,9
221 282 m 2,31,32
 344 282 344 282 401 308.5 c 128,-1,33
 458 335 458 335 458 406 c 128,-1,34
 458 477 458 477 363 477 c 0,35,36
 217 477 217 477 156 282 c 1,37,-1
 221 282 l 2,31,32
EndSplineSet
EndChar

StartChar: igrave
Encoding: 236 236 173
Width: 182
GlyphClass: 2
Flags: W
LayerCount: 2
Fore
SplineSet
73 0 m 1,0,-1
 189 500 l 1,1,-1
 224 500 l 1,2,-1
 108 0 l 1,3,-1
 73 0 l 1,0,-1
98 721 m 1,4,-1
 258 626 l 1,5,-1
 240 604 l 1,6,-1
 80 696 l 1,7,-1
 98 721 l 1,4,-1
EndSplineSet
EndChar

StartChar: iacute
Encoding: 237 237 174
Width: 182
GlyphClass: 2
Flags: W
LayerCount: 2
Fore
SplineSet
73 0 m 1,0,-1
 189 500 l 1,1,-1
 224 500 l 1,2,-1
 108 0 l 1,3,-1
 73 0 l 1,0,-1
202 610 m 1,4,-1
 197 635 l 1,5,-1
 400 730 l 1,6,-1
 406 700 l 1,7,-1
 202 610 l 1,4,-1
EndSplineSet
EndChar

StartChar: icircumflex
Encoding: 238 238 175
Width: 182
GlyphClass: 2
Flags: W
LayerCount: 2
Fore
SplineSet
94 595 m 1,0,-1
 240 730 l 1,1,-1
 262 730 l 1,2,-1
 349 595 l 1,3,-1
 311 595 l 1,4,-1
 247 696 l 1,5,-1
 137 595 l 1,6,-1
 94 595 l 1,0,-1
73 0 m 1,7,-1
 189 500 l 1,8,-1
 224 500 l 1,9,-1
 108 0 l 1,10,-1
 73 0 l 1,7,-1
EndSplineSet
EndChar

StartChar: idieresis
Encoding: 239 239 176
Width: 182
GlyphClass: 2
Flags: W
LayerCount: 2
Fore
SplineSet
113 633 m 1,0,-1
 128 698 l 1,1,-1
 162 698 l 1,2,-1
 147 633 l 1,3,-1
 113 633 l 1,0,-1
293 633 m 1,4,-1
 306 698 l 1,5,-1
 340 698 l 1,6,-1
 325 633 l 1,7,-1
 293 633 l 1,4,-1
73 0 m 1,8,-1
 189 500 l 1,9,-1
 224 500 l 1,10,-1
 108 0 l 1,11,-1
 73 0 l 1,8,-1
EndSplineSet
EndChar

StartChar: eth
Encoding: 240 240 177
Width: 510
GlyphClass: 2
Flags: W
LayerCount: 2
Fore
SplineSet
548 442 m 0,0,1
 548 403 548 403 538 360 c 0,2,3
 492 165 492 165 420 78 c 128,-1,4
 348 -9 348 -9 247 -9 c 0,5,6
 162 -9 162 -9 122.5 31.5 c 128,-1,7
 83 72 83 72 83 135 c 0,8,9
 83 266 83 266 158.5 346 c 128,-1,10
 234 426 234 426 338 426 c 0,11,12
 371 426 371 426 413 415 c 128,-1,13
 455 404 455 404 480 393 c 2,14,-1
 506 382 l 1,15,16
 511 409 511 409 511 435 c 0,17,18
 511 554 511 554 410 631 c 1,19,-1
 282 554 l 1,20,-1
 266 582 l 1,21,-1
 380 651 l 1,22,23
 331 681 331 681 270 702 c 1,24,-1
 289 736 l 1,25,26
 364 711 364 711 417 674 c 1,27,-1
 529 742 l 1,28,-1
 545 713 l 1,29,-1
 445 653 l 1,30,31
 548 568 548 568 548 442 c 0,0,1
332 388 m 0,32,33
 244 388 244 388 183.5 316 c 128,-1,34
 123 244 123 244 123 139 c 0,35,36
 123 89 123 89 156 59 c 128,-1,37
 189 29 189 29 255 29 c 0,38,39
 418 29 418 29 498 343 c 1,40,41
 461 361 461 361 411.5 374.5 c 128,-1,42
 362 388 362 388 332 388 c 0,32,33
EndSplineSet
EndChar

StartChar: ntilde
Encoding: 241 241 178
Width: 488
GlyphClass: 2
Flags: W
LayerCount: 2
Fore
SplineSet
322.5 460 m 128,-1,1
 293 444 293 444 271 425 c 128,-1,2
 249 406 249 406 223.5 377.5 c 128,-1,3
 198 349 198 349 185 330 c 1,4,-1
 108 0 l 1,5,-1
 73 0 l 1,6,-1
 189 500 l 1,7,-1
 224 500 l 1,8,-1
 198 387 l 1,9,-1
 208 400 l 2,10,11
 230 429 230 429 275 466 c 0,12,13
 297 484 297 484 326.5 496.5 c 128,-1,14
 356 509 356 509 383 509 c 0,15,16
 437 509 437 509 467.5 478 c 128,-1,17
 498 447 498 447 498 395.5 c 128,-1,18
 498 344 498 344 479 260 c 2,19,-1
 418 0 l 1,20,-1
 384 0 l 1,21,-1
 444 258 l 2,22,23
 463 336 463 336 463 383.5 c 128,-1,24
 463 431 463 431 441 453.5 c 128,-1,25
 419 476 419 476 385.5 476 c 128,-1,0
 352 476 352 476 322.5 460 c 128,-1,1
462 630 m 0,26,27
 444 630 444 630 396 655.5 c 128,-1,28
 348 681 348 681 338 681 c 0,29,30
 320 681 320 681 274 647 c 2,31,-1
 259 636 l 1,32,-1
 257 667 l 1,33,34
 315 713 315 713 345 713 c 0,35,36
 364 713 364 713 410 687.5 c 128,-1,37
 456 662 456 662 466 662 c 0,38,39
 485 662 485 662 523 692 c 1,40,-1
 536 703 l 1,41,-1
 541 673 l 1,42,43
 491 630 491 630 462 630 c 0,26,27
EndSplineSet
EndChar

StartChar: ograve
Encoding: 242 242 179
Width: 493
GlyphClass: 2
Flags: W
LayerCount: 2
Fore
SplineSet
349 509 m 0,0,1
 507 509 507 509 507 352 c 0,2,3
 507 198 507 198 436 94.5 c 128,-1,4
 365 -9 365 -9 252 -9 c 0,5,6
 99 -9 99 -9 99 139 c 0,7,8
 99 295 99 295 171 402 c 128,-1,9
 243 509 243 509 349 509 c 0,0,1
252 23 m 0,10,11
 349 23 349 23 410 118.5 c 128,-1,12
 471 214 471 214 471 352 c 0,13,14
 471 409 471 409 440.5 443 c 128,-1,15
 410 477 410 477 349 477 c 0,16,17
 256 477 256 477 195.5 377.5 c 128,-1,18
 135 278 135 278 135 139 c 0,19,20
 135 23 135 23 252 23 c 0,10,11
283 721 m 1,21,-1
 443 626 l 1,22,-1
 425 604 l 1,23,-1
 265 696 l 1,24,-1
 283 721 l 1,21,-1
EndSplineSet
EndChar

StartChar: oacute
Encoding: 243 243 180
Width: 493
GlyphClass: 2
Flags: W
LayerCount: 2
Fore
SplineSet
349 509 m 0,0,1
 507 509 507 509 507 352 c 0,2,3
 507 198 507 198 436 94.5 c 128,-1,4
 365 -9 365 -9 252 -9 c 0,5,6
 99 -9 99 -9 99 139 c 0,7,8
 99 295 99 295 171 402 c 128,-1,9
 243 509 243 509 349 509 c 0,0,1
252 23 m 0,10,11
 349 23 349 23 410 118.5 c 128,-1,12
 471 214 471 214 471 352 c 0,13,14
 471 409 471 409 440.5 443 c 128,-1,15
 410 477 410 477 349 477 c 0,16,17
 256 477 256 477 195.5 377.5 c 128,-1,18
 135 278 135 278 135 139 c 0,19,20
 135 23 135 23 252 23 c 0,10,11
315 610 m 1,21,-1
 310 635 l 1,22,-1
 513 730 l 1,23,-1
 519 700 l 1,24,-1
 315 610 l 1,21,-1
EndSplineSet
EndChar

StartChar: ocircumflex
Encoding: 244 244 181
Width: 493
GlyphClass: 2
Flags: W
LayerCount: 2
Fore
SplineSet
259 595 m 1,0,-1
 405 730 l 1,1,-1
 427 730 l 1,2,-1
 514 595 l 1,3,-1
 476 595 l 1,4,-1
 412 696 l 1,5,-1
 302 595 l 1,6,-1
 259 595 l 1,0,-1
349 509 m 0,7,8
 507 509 507 509 507 352 c 0,9,10
 507 198 507 198 436 94.5 c 128,-1,11
 365 -9 365 -9 252 -9 c 0,12,13
 99 -9 99 -9 99 139 c 0,14,15
 99 295 99 295 171 402 c 128,-1,16
 243 509 243 509 349 509 c 0,7,8
252 23 m 0,17,18
 349 23 349 23 410 118.5 c 128,-1,19
 471 214 471 214 471 352 c 0,20,21
 471 409 471 409 440.5 443 c 128,-1,22
 410 477 410 477 349 477 c 0,23,24
 256 477 256 477 195.5 377.5 c 128,-1,25
 135 278 135 278 135 139 c 0,26,27
 135 23 135 23 252 23 c 0,17,18
EndSplineSet
EndChar

StartChar: otilde
Encoding: 245 245 182
Width: 493
GlyphClass: 2
Flags: W
LayerCount: 2
Fore
SplineSet
349 509 m 0,0,1
 507 509 507 509 507 352 c 0,2,3
 507 198 507 198 436 94.5 c 128,-1,4
 365 -9 365 -9 252 -9 c 0,5,6
 99 -9 99 -9 99 139 c 0,7,8
 99 295 99 295 171 402 c 128,-1,9
 243 509 243 509 349 509 c 0,0,1
252 23 m 0,10,11
 349 23 349 23 410 118.5 c 128,-1,12
 471 214 471 214 471 352 c 0,13,14
 471 409 471 409 440.5 443 c 128,-1,15
 410 477 410 477 349 477 c 0,16,17
 256 477 256 477 195.5 377.5 c 128,-1,18
 135 278 135 278 135 139 c 0,19,20
 135 23 135 23 252 23 c 0,10,11
454 630 m 0,21,22
 436 630 436 630 388 655.5 c 128,-1,23
 340 681 340 681 330 681 c 0,24,25
 312 681 312 681 266 647 c 2,26,-1
 251 636 l 1,27,-1
 249 667 l 1,28,29
 307 713 307 713 337 713 c 0,30,31
 356 713 356 713 402 687.5 c 128,-1,32
 448 662 448 662 458 662 c 0,33,34
 477 662 477 662 515 692 c 1,35,-1
 528 703 l 1,36,-1
 533 673 l 1,37,38
 483 630 483 630 454 630 c 0,21,22
EndSplineSet
EndChar

StartChar: odieresis
Encoding: 246 246 183
Width: 493
GlyphClass: 2
Flags: W
LayerCount: 2
Fore
SplineSet
349 509 m 0,0,1
 507 509 507 509 507 352 c 0,2,3
 507 198 507 198 436 94.5 c 128,-1,4
 365 -9 365 -9 252 -9 c 0,5,6
 99 -9 99 -9 99 139 c 0,7,8
 99 295 99 295 171 402 c 128,-1,9
 243 509 243 509 349 509 c 0,0,1
252 23 m 0,10,11
 349 23 349 23 410 118.5 c 128,-1,12
 471 214 471 214 471 352 c 0,13,14
 471 409 471 409 440.5 443 c 128,-1,15
 410 477 410 477 349 477 c 0,16,17
 256 477 256 477 195.5 377.5 c 128,-1,18
 135 278 135 278 135 139 c 0,19,20
 135 23 135 23 252 23 c 0,10,11
285 633 m 1,21,-1
 300 698 l 1,22,-1
 329 698 l 1,23,-1
 314 633 l 1,24,-1
 285 633 l 1,21,-1
460 633 m 1,25,-1
 473 698 l 1,26,-1
 502 698 l 1,27,-1
 487 633 l 1,28,-1
 460 633 l 1,25,-1
EndSplineSet
EndChar

StartChar: divide
Encoding: 247 247 184
Width: 560
GlyphClass: 2
Flags: W
LayerCount: 2
Fore
SplineSet
116 234 m 1,0,-1
 116 268 l 1,1,-1
 560 268 l 1,2,-1
 560 234 l 1,3,-1
 116 234 l 1,0,-1
319 383 m 1,4,-1
 319 463 l 1,5,-1
 357 463 l 1,6,-1
 357 383 l 1,7,-1
 319 383 l 1,4,-1
319 39 m 1,8,-1
 319 119 l 1,9,-1
 357 119 l 1,10,-1
 357 39 l 1,11,-1
 319 39 l 1,8,-1
EndSplineSet
EndChar

StartChar: oslash
Encoding: 248 248 185
Width: 492
GlyphClass: 2
Flags: W
LayerCount: 2
Fore
SplineSet
350 511 m 0,0,1
 400 511 400 511 436 494 c 1,2,-1
 505 604 l 1,3,-1
 532 592 l 1,4,-1
 460 478 l 1,5,6
 508 439 508 439 508 354 c 0,7,8
 508 200 508 200 437 96.5 c 128,-1,9
 366 -7 366 -7 253 -7 c 0,10,11
 203 -7 203 -7 166 9 c 1,12,-1
 90 -113 l 1,13,-1
 63 -102 l 1,14,-1
 142 24 l 1,15,16
 100 60 100 60 100 141 c 0,17,18
 100 297 100 297 172 404 c 128,-1,19
 244 511 244 511 350 511 c 0,0,1
253 25 m 0,20,21
 350 25 350 25 411 120.5 c 128,-1,22
 472 216 472 216 472 354 c 0,23,24
 472 412 472 412 440 446 c 1,25,-1
 185 40 l 1,26,27
 212 25 212 25 253 25 c 0,20,21
350 479 m 0,28,29
 257 479 257 479 196.5 379.5 c 128,-1,30
 136 280 136 280 136 141 c 0,31,32
 136 86 136 86 163 57 c 1,33,-1
 288 255 l 1,34,-1
 417 463 l 1,35,36
 388 479 388 479 350 479 c 0,28,29
EndSplineSet
EndChar

StartChar: ugrave
Encoding: 249 249 186
Width: 488
GlyphClass: 2
Flags: W
LayerCount: 2
Fore
SplineSet
284 721 m 1,0,-1
 444 626 l 1,1,-1
 426 604 l 1,2,-1
 266 696 l 1,3,-1
 284 721 l 1,0,-1
405 113 m 1,4,5
 307 -9 307 -9 220 -9 c 0,6,7
 167 -9 167 -9 136 22 c 128,-1,8
 105 53 105 53 105 104.5 c 128,-1,9
 105 156 105 156 124 240 c 2,10,-1
 185 500 l 1,11,-1
 219 500 l 1,12,-1
 159 242 l 2,13,14
 140 164 140 164 140 117 c 128,-1,15
 140 70 140 70 163 47 c 128,-1,16
 186 24 186 24 218.5 24 c 128,-1,17
 251 24 251 24 280 39 c 128,-1,18
 309 54 309 54 332 76 c 0,19,20
 382 121 382 121 407 155 c 2,21,-1
 418 170 l 1,22,-1
 495 500 l 1,23,-1
 530 500 l 1,24,-1
 414 0 l 1,25,-1
 379 0 l 1,26,-1
 405 113 l 1,4,5
EndSplineSet
EndChar

StartChar: uacute
Encoding: 250 250 187
Width: 488
GlyphClass: 2
Flags: W
LayerCount: 2
Fore
SplineSet
405 113 m 1,0,1
 307 -9 307 -9 220 -9 c 0,2,3
 167 -9 167 -9 136 22 c 128,-1,4
 105 53 105 53 105 104.5 c 128,-1,5
 105 156 105 156 124 240 c 2,6,-1
 185 500 l 1,7,-1
 219 500 l 1,8,-1
 159 242 l 2,9,10
 140 164 140 164 140 117 c 128,-1,11
 140 70 140 70 163 47 c 128,-1,12
 186 24 186 24 218.5 24 c 128,-1,13
 251 24 251 24 280 39 c 128,-1,14
 309 54 309 54 332 76 c 0,15,16
 382 121 382 121 407 155 c 2,17,-1
 418 170 l 1,18,-1
 495 500 l 1,19,-1
 530 500 l 1,20,-1
 414 0 l 1,21,-1
 379 0 l 1,22,-1
 405 113 l 1,0,1
330 610 m 1,23,-1
 325 635 l 1,24,-1
 528 730 l 1,25,-1
 534 700 l 1,26,-1
 330 610 l 1,23,-1
EndSplineSet
EndChar

StartChar: ucircumflex
Encoding: 251 251 188
Width: 488
GlyphClass: 2
Flags: W
LayerCount: 2
Fore
SplineSet
235 595 m 1,0,-1
 381 730 l 1,1,-1
 403 730 l 1,2,-1
 490 595 l 1,3,-1
 452 595 l 1,4,-1
 388 696 l 1,5,-1
 278 595 l 1,6,-1
 235 595 l 1,0,-1
405 113 m 1,7,8
 307 -9 307 -9 220 -9 c 0,9,10
 167 -9 167 -9 136 22 c 128,-1,11
 105 53 105 53 105 104.5 c 128,-1,12
 105 156 105 156 124 240 c 2,13,-1
 185 500 l 1,14,-1
 219 500 l 1,15,-1
 159 242 l 2,16,17
 140 164 140 164 140 117 c 128,-1,18
 140 70 140 70 163 47 c 128,-1,19
 186 24 186 24 218.5 24 c 128,-1,20
 251 24 251 24 280 39 c 128,-1,21
 309 54 309 54 332 76 c 0,22,23
 382 121 382 121 407 155 c 2,24,-1
 418 170 l 1,25,-1
 495 500 l 1,26,-1
 530 500 l 1,27,-1
 414 0 l 1,28,-1
 379 0 l 1,29,-1
 405 113 l 1,7,8
EndSplineSet
EndChar

StartChar: udieresis
Encoding: 252 252 189
Width: 488
GlyphClass: 2
Flags: W
LayerCount: 2
Fore
SplineSet
270 633 m 1,0,-1
 285 698 l 1,1,-1
 319 698 l 1,2,-1
 304 633 l 1,3,-1
 270 633 l 1,0,-1
450 633 m 1,4,-1
 463 698 l 1,5,-1
 497 698 l 1,6,-1
 482 633 l 1,7,-1
 450 633 l 1,4,-1
405 113 m 1,8,9
 307 -9 307 -9 220 -9 c 0,10,11
 167 -9 167 -9 136 22 c 128,-1,12
 105 53 105 53 105 104.5 c 128,-1,13
 105 156 105 156 124 240 c 2,14,-1
 185 500 l 1,15,-1
 219 500 l 1,16,-1
 159 242 l 2,17,18
 140 164 140 164 140 117 c 128,-1,19
 140 70 140 70 163 47 c 128,-1,20
 186 24 186 24 218.5 24 c 128,-1,21
 251 24 251 24 280 39 c 128,-1,22
 309 54 309 54 332 76 c 0,23,24
 382 121 382 121 407 155 c 2,25,-1
 418 170 l 1,26,-1
 495 500 l 1,27,-1
 530 500 l 1,28,-1
 414 0 l 1,29,-1
 379 0 l 1,30,-1
 405 113 l 1,8,9
EndSplineSet
EndChar

StartChar: yacute
Encoding: 253 253 190
Width: 448
GlyphClass: 2
Flags: W
LayerCount: 2
Fore
SplineSet
147 500 m 1,0,-1
 183 500 l 1,1,-1
 206 32 l 1,2,-1
 246 32 l 1,3,-1
 494 500 l 1,4,-1
 532 500 l 1,5,-1
 145 -228 l 1,6,-1
 107 -228 l 1,7,-1
 230 0 l 1,8,-1
 172 0 l 1,9,-1
 147 500 l 1,0,-1
300 610 m 1,10,-1
 295 635 l 1,11,-1
 498 730 l 1,12,-1
 504 700 l 1,13,-1
 300 610 l 1,10,-1
EndSplineSet
EndChar

StartChar: thorn
Encoding: 254 254 191
Width: 475
GlyphClass: 2
Flags: W
LayerCount: 2
Fore
SplineSet
378 509 m 0,0,1
 496 509 496 509 496 360 c 0,2,3
 496 311 496 311 482 260 c 0,4,5
 445 123 445 123 385 57 c 128,-1,6
 325 -9 325 -9 221 -9 c 0,7,8
 168 -9 168 -9 137.5 -3.5 c 128,-1,9
 107 2 107 2 107 3 c 2,10,-1
 52 -228 l 1,11,-1
 19 -228 l 1,12,-1
 245 728 l 1,13,-1
 279 728 l 1,14,-1
 209 438 l 1,15,16
 247 469 247 469 295.5 489 c 128,-1,17
 344 509 344 509 378 509 c 0,0,1
448 261 m 0,18,19
 460 302 460 302 460 336.5 c 128,-1,20
 460 371 460 371 455 400.5 c 128,-1,21
 450 430 450 430 428 451.5 c 128,-1,22
 406 473 406 473 377 473 c 128,-1,23
 348 473 348 473 321.5 464.5 c 128,-1,24
 295 456 295 456 274 444 c 0,25,26
 231 421 231 421 208 402 c 1,27,-1
 198 395 l 1,28,-1
 114 39 l 1,29,-1
 227 27 l 1,30,31
 315 27 315 27 364 81.5 c 128,-1,32
 413 136 413 136 448 261 c 0,18,19
EndSplineSet
EndChar

StartChar: ydieresis
Encoding: 255 255 192
Width: 448
GlyphClass: 2
Flags: W
LayerCount: 2
Fore
SplineSet
248 633 m 1,0,-1
 263 698 l 1,1,-1
 297 698 l 1,2,-1
 282 633 l 1,3,-1
 248 633 l 1,0,-1
428 633 m 1,4,-1
 441 698 l 1,5,-1
 475 698 l 1,6,-1
 460 633 l 1,7,-1
 428 633 l 1,4,-1
147 500 m 1,8,-1
 183 500 l 1,9,-1
 206 32 l 1,10,-1
 246 32 l 1,11,-1
 494 500 l 1,12,-1
 532 500 l 1,13,-1
 145 -228 l 1,14,-1
 107 -228 l 1,15,-1
 230 0 l 1,16,-1
 172 0 l 1,17,-1
 147 500 l 1,8,-1
EndSplineSet
EndChar

StartChar: Amacron
Encoding: 256 256 193
Width: 556
GlyphClass: 2
Flags: W
LayerCount: 2
Fore
SplineSet
333 845 m 1,0,-1
 338 871 l 1,1,-1
 610 871 l 1,2,-1
 603 845 l 1,3,-1
 333 845 l 1,0,-1
32 0 m 1,4,-1
 403 700 l 1,5,-1
 492 700 l 1,6,-1
 530 0 l 1,7,-1
 494 0 l 1,8,-1
 482 216 l 1,9,-1
 183 216 l 1,10,-1
 69 0 l 1,11,-1
 32 0 l 1,4,-1
423 667 m 1,12,-1
 201 248 l 1,13,-1
 480 248 l 1,14,-1
 459 667 l 1,15,-1
 423 667 l 1,12,-1
EndSplineSet
Position2: "'cpsp' Capital Spacing in Latin lookup 0 subtable" dx=5 dy=0 dh=10 dv=0
EndChar

StartChar: amacron
Encoding: 257 257 194
Width: 482
GlyphClass: 2
Flags: W
LayerCount: 2
Fore
SplineSet
215 -9 m 0,0,1
 95 -9 95 -9 95 118 c 0,2,3
 95 206 95 206 123 294 c 128,-1,4
 151 382 151 382 210 445.5 c 128,-1,5
 269 509 269 509 345 509 c 0,6,7
 396 509 396 509 489 494 c 2,8,-1
 520 489 l 1,9,-1
 444 163 l 2,10,11
 433 117 433 117 419 28 c 2,12,-1
 415 1 l 1,13,-1
 382 -1 l 1,14,15
 399 103 399 103 404 126 c 1,16,17
 400 121 400 121 393 111.5 c 128,-1,18
 386 102 386 102 364.5 79 c 128,-1,19
 343 56 343 56 321.5 38 c 128,-1,20
 300 20 300 20 270.5 5.5 c 128,-1,21
 241 -9 241 -9 215 -9 c 0,0,1
479 462 m 1,22,23
 406 477 406 477 342.5 477 c 128,-1,24
 279 477 279 477 228.5 416.5 c 128,-1,25
 178 356 178 356 155 276 c 128,-1,26
 132 196 132 196 132 118 c 0,27,28
 132 71 132 71 153 47.5 c 128,-1,29
 174 24 174 24 222 24 c 0,30,31
 276 24 276 24 369 126 c 0,32,33
 390 149 390 149 402 166 c 2,34,-1
 414 182 l 1,35,-1
 479 462 l 1,22,23
290 647 m 1,36,-1
 296 673 l 1,37,-1
 549 673 l 1,38,-1
 542 647 l 1,39,-1
 290 647 l 1,36,-1
EndSplineSet
EndChar

StartChar: Abreve
Encoding: 258 258 195
Width: 556
GlyphClass: 2
Flags: W
LayerCount: 2
Fore
SplineSet
393 920 m 1,0,1
 390 905 390 905 390 885.5 c 128,-1,2
 390 866 390 866 406.5 849.5 c 128,-1,3
 423 833 423 833 465 833 c 128,-1,4
 507 833 507 833 540 857 c 128,-1,5
 573 881 573 881 583 920 c 1,6,-1
 613 920 l 1,7,8
 599 864 599 864 557.5 833.5 c 128,-1,9
 516 803 516 803 460 803 c 0,10,11
 360 803 360 803 360 886 c 0,12,13
 360 902 360 902 363 920 c 1,14,-1
 393 920 l 1,0,1
32 0 m 1,15,-1
 403 700 l 1,16,-1
 492 700 l 1,17,-1
 530 0 l 1,18,-1
 494 0 l 1,19,-1
 482 216 l 1,20,-1
 183 216 l 1,21,-1
 69 0 l 1,22,-1
 32 0 l 1,15,-1
423 667 m 1,23,-1
 201 248 l 1,24,-1
 480 248 l 1,25,-1
 459 667 l 1,26,-1
 423 667 l 1,23,-1
EndSplineSet
Position2: "'cpsp' Capital Spacing in Latin lookup 0 subtable" dx=5 dy=0 dh=10 dv=0
EndChar

StartChar: abreve
Encoding: 259 259 196
Width: 482
GlyphClass: 2
Flags: W
LayerCount: 2
Fore
SplineSet
215 -9 m 0,0,1
 95 -9 95 -9 95 118 c 0,2,3
 95 206 95 206 123 294 c 128,-1,4
 151 382 151 382 210 445.5 c 128,-1,5
 269 509 269 509 345 509 c 0,6,7
 396 509 396 509 489 494 c 2,8,-1
 520 489 l 1,9,-1
 444 163 l 2,10,11
 433 117 433 117 419 28 c 2,12,-1
 415 1 l 1,13,-1
 382 -1 l 1,14,15
 399 103 399 103 404 126 c 1,16,17
 400 121 400 121 393 111.5 c 128,-1,18
 386 102 386 102 364.5 79 c 128,-1,19
 343 56 343 56 321.5 38 c 128,-1,20
 300 20 300 20 270.5 5.5 c 128,-1,21
 241 -9 241 -9 215 -9 c 0,0,1
479 462 m 1,22,23
 406 477 406 477 342.5 477 c 128,-1,24
 279 477 279 477 228.5 416.5 c 128,-1,25
 178 356 178 356 155 276 c 128,-1,26
 132 196 132 196 132 118 c 0,27,28
 132 71 132 71 153 47.5 c 128,-1,29
 174 24 174 24 222 24 c 0,30,31
 276 24 276 24 369 126 c 0,32,33
 390 149 390 149 402 166 c 2,34,-1
 414 182 l 1,35,-1
 479 462 l 1,22,23
341 721 m 1,36,37
 336 705 336 705 336 686.5 c 128,-1,38
 336 668 336 668 348 650 c 1,39,40
 368 623 368 623 416 623 c 128,-1,41
 464 623 464 623 494.5 650 c 128,-1,42
 525 677 525 677 536 721 c 1,43,-1
 564 721 l 1,44,45
 532 595 532 595 407 595 c 0,46,47
 350 595 350 595 325 632 c 0,48,49
 309 656 309 656 309 679.5 c 128,-1,50
 309 703 309 703 313 721 c 1,51,-1
 341 721 l 1,36,37
EndSplineSet
EndChar

StartChar: Aogonek
Encoding: 260 260 197
Width: 556
GlyphClass: 2
Flags: W
LayerCount: 2
Fore
SplineSet
530 0 m 1,0,-1
 526 0 l 1,1,2
 491 -31 491 -31 458 -72 c 128,-1,3
 425 -113 425 -113 425 -141 c 0,4,5
 425 -165 425 -165 457 -165 c 1,6,-1
 513 -158 l 1,7,-1
 509 -190 l 1,8,9
 473 -198 473 -198 447 -198 c 0,10,11
 385 -198 385 -198 385 -144 c 0,12,13
 385 -111 385 -111 420.5 -67.5 c 128,-1,14
 456 -24 456 -24 493 7 c 1,15,-1
 482 216 l 1,16,-1
 183 216 l 1,17,-1
 69 0 l 1,18,-1
 32 0 l 1,19,-1
 403 700 l 1,20,-1
 492 700 l 1,21,-1
 530 3 l 1,22,-1
 530 0 l 1,0,-1
423 667 m 1,23,-1
 201 248 l 1,24,-1
 480 248 l 1,25,-1
 459 667 l 1,26,-1
 423 667 l 1,23,-1
EndSplineSet
Position2: "'cpsp' Capital Spacing in Latin lookup 0 subtable" dx=5 dy=0 dh=10 dv=0
EndChar

StartChar: aogonek
Encoding: 261 261 198
Width: 482
GlyphClass: 2
Flags: W
LayerCount: 2
Fore
SplineSet
332 -198 m 0,0,1
 270 -198 270 -198 270 -144 c 0,2,3
 270 -110 270 -110 307 -65.5 c 128,-1,4
 344 -21 344 -21 382 10 c 1,5,-1
 383 9 l 1,6,7
 394 81 394 81 404 126 c 1,8,9
 400 121 400 121 393 111.5 c 128,-1,10
 386 102 386 102 364.5 79 c 128,-1,11
 343 56 343 56 321.5 38 c 128,-1,12
 300 20 300 20 270.5 5.5 c 128,-1,13
 241 -9 241 -9 215 -9 c 0,14,15
 95 -9 95 -9 95 118 c 0,16,17
 95 206 95 206 123 294 c 128,-1,18
 151 382 151 382 210 445.5 c 128,-1,19
 269 509 269 509 345 509 c 0,20,21
 396 509 396 509 489 494 c 2,22,-1
 520 489 l 1,23,-1
 444 163 l 2,24,25
 433 117 433 117 419 28 c 2,26,-1
 415 1 l 1,27,-1
 412 1 l 1,28,29
 378 -28 378 -28 344 -70 c 128,-1,30
 310 -112 310 -112 310 -141 c 0,31,32
 310 -165 310 -165 342 -165 c 1,33,-1
 398 -158 l 1,34,-1
 394 -190 l 1,35,36
 358 -198 358 -198 332 -198 c 0,0,1
479 462 m 1,37,38
 406 477 406 477 342.5 477 c 128,-1,39
 279 477 279 477 228.5 416.5 c 128,-1,40
 178 356 178 356 155 276 c 128,-1,41
 132 196 132 196 132 118 c 0,42,43
 132 71 132 71 153 47.5 c 128,-1,44
 174 24 174 24 222 24 c 0,45,46
 276 24 276 24 369 126 c 0,47,48
 390 149 390 149 402 166 c 2,49,-1
 414 182 l 1,50,-1
 479 462 l 1,37,38
EndSplineSet
EndChar

StartChar: Cacute
Encoding: 262 262 199
Width: 510
GlyphClass: 2
Flags: W
LayerCount: 2
Fore
SplineSet
306 -9 m 0,0,1
 121 -9 121 -9 121 190 c 0,2,3
 121 333 121 333 176 465 c 0,4,5
 238 615 238 615 342 676 c 1,6,7
 401 709 401 709 469 709 c 0,8,9
 543 709 543 709 608 695 c 2,10,-1
 632 690 l 1,11,-1
 624 658 l 1,12,13
 537 675 537 675 464.5 675 c 128,-1,14
 392 675 392 675 331.5 627.5 c 128,-1,15
 271 580 271 580 234 506 c 0,16,17
 159 353 159 353 159 190 c 0,18,19
 159 105 159 105 195.5 65 c 128,-1,20
 232 25 232 25 311 25 c 0,21,22
 387 25 387 25 451 39 c 2,23,-1
 474 44 l 1,24,-1
 473 11 l 1,25,26
 386 -9 386 -9 306 -9 c 0,0,1
428 798 m 1,27,-1
 420 823 l 1,28,-1
 624 919 l 1,29,-1
 633 890 l 1,30,-1
 428 798 l 1,27,-1
EndSplineSet
Position2: "'cpsp' Capital Spacing in Latin lookup 0 subtable" dx=5 dy=0 dh=10 dv=0
EndChar

StartChar: cacute
Encoding: 263 263 200
Width: 403
GlyphClass: 2
Flags: W
LayerCount: 2
Fore
SplineSet
363 509 m 0,0,1
 411 509 411 509 456 501 c 2,2,-1
 472 498 l 1,3,-1
 463 467 l 1,4,5
 406 477 406 477 363 477 c 0,6,7
 288 477 288 477 235 426 c 0,8,9
 136 329 136 329 136 132 c 0,10,11
 136 78 136 78 164.5 50.5 c 128,-1,12
 193 23 193 23 257 23 c 0,13,14
 294 23 294 23 352 37 c 2,15,-1
 372 42 l 1,16,-1
 372 10 l 1,17,18
 305 -9 305 -9 249 -9 c 0,19,20
 99 -9 99 -9 99 129 c 0,21,22
 99 347 99 347 215 452 c 0,23,24
 277 509 277 509 363 509 c 0,0,1
312 610 m 1,25,-1
 307 635 l 1,26,-1
 510 730 l 1,27,-1
 516 700 l 1,28,-1
 312 610 l 1,25,-1
EndSplineSet
EndChar

StartChar: Ccircumflex
Encoding: 264 264 201
Width: 510
GlyphClass: 2
Flags: W
LayerCount: 2
Fore
SplineSet
306 -9 m 0,0,1
 121 -9 121 -9 121 190 c 0,2,3
 121 333 121 333 176 465 c 0,4,5
 238 615 238 615 342 676 c 1,6,7
 401 709 401 709 469 709 c 0,8,9
 543 709 543 709 608 695 c 2,10,-1
 632 690 l 1,11,-1
 624 658 l 1,12,13
 537 675 537 675 464.5 675 c 128,-1,14
 392 675 392 675 331.5 627.5 c 128,-1,15
 271 580 271 580 234 506 c 0,16,17
 159 353 159 353 159 190 c 0,18,19
 159 105 159 105 195.5 65 c 128,-1,20
 232 25 232 25 311 25 c 0,21,22
 387 25 387 25 451 39 c 2,23,-1
 474 44 l 1,24,-1
 473 11 l 1,25,26
 386 -9 386 -9 306 -9 c 0,0,1
364 803 m 1,27,-1
 520 931 l 1,28,-1
 534 931 l 1,29,-1
 631 803 l 1,30,-1
 597 803 l 1,31,-1
 524 900 l 1,32,-1
 405 803 l 1,33,-1
 364 803 l 1,27,-1
EndSplineSet
Position2: "'cpsp' Capital Spacing in Latin lookup 0 subtable" dx=5 dy=0 dh=10 dv=0
EndChar

StartChar: ccircumflex
Encoding: 265 265 202
Width: 403
GlyphClass: 2
Flags: W
LayerCount: 2
Fore
SplineSet
363 509 m 0,0,1
 411 509 411 509 456 501 c 2,2,-1
 472 498 l 1,3,-1
 463 467 l 1,4,5
 406 477 406 477 363 477 c 0,6,7
 288 477 288 477 235 426 c 0,8,9
 136 329 136 329 136 132 c 0,10,11
 136 78 136 78 164.5 50.5 c 128,-1,12
 193 23 193 23 257 23 c 0,13,14
 294 23 294 23 352 37 c 2,15,-1
 372 42 l 1,16,-1
 372 10 l 1,17,18
 305 -9 305 -9 249 -9 c 0,19,20
 99 -9 99 -9 99 129 c 0,21,22
 99 347 99 347 215 452 c 0,23,24
 277 509 277 509 363 509 c 0,0,1
248 595 m 1,25,-1
 394 730 l 1,26,-1
 408 730 l 1,27,-1
 495 595 l 1,28,-1
 461 595 l 1,29,-1
 397 696 l 1,30,-1
 287 595 l 1,31,-1
 248 595 l 1,25,-1
EndSplineSet
EndChar

StartChar: Cdotaccent
Encoding: 266 266 203
Width: 510
GlyphClass: 2
Flags: W
LayerCount: 2
Fore
SplineSet
306 -9 m 0,0,1
 121 -9 121 -9 121 190 c 0,2,3
 121 333 121 333 176 465 c 0,4,5
 238 615 238 615 342 676 c 1,6,7
 401 709 401 709 469 709 c 0,8,9
 543 709 543 709 608 695 c 2,10,-1
 632 690 l 1,11,-1
 624 658 l 1,12,13
 537 675 537 675 464.5 675 c 128,-1,14
 392 675 392 675 331.5 627.5 c 128,-1,15
 271 580 271 580 234 506 c 0,16,17
 159 353 159 353 159 190 c 0,18,19
 159 105 159 105 195.5 65 c 128,-1,20
 232 25 232 25 311 25 c 0,21,22
 387 25 387 25 451 39 c 2,23,-1
 474 44 l 1,24,-1
 473 11 l 1,25,26
 386 -9 386 -9 306 -9 c 0,0,1
480 807 m 1,27,-1
 492 865 l 1,28,-1
 520 865 l 1,29,-1
 509 807 l 1,30,-1
 480 807 l 1,27,-1
EndSplineSet
Position2: "'cpsp' Capital Spacing in Latin lookup 0 subtable" dx=5 dy=0 dh=10 dv=0
EndChar

StartChar: cdotaccent
Encoding: 267 267 204
Width: 403
GlyphClass: 2
Flags: W
LayerCount: 2
Fore
SplineSet
363 509 m 0,0,1
 411 509 411 509 456 501 c 2,2,-1
 472 498 l 1,3,-1
 463 467 l 1,4,5
 406 477 406 477 363 477 c 0,6,7
 288 477 288 477 235 426 c 0,8,9
 136 329 136 329 136 132 c 0,10,11
 136 78 136 78 164.5 50.5 c 128,-1,12
 193 23 193 23 257 23 c 0,13,14
 294 23 294 23 352 37 c 2,15,-1
 372 42 l 1,16,-1
 372 10 l 1,17,18
 305 -9 305 -9 249 -9 c 0,19,20
 99 -9 99 -9 99 129 c 0,21,22
 99 347 99 347 215 452 c 0,23,24
 277 509 277 509 363 509 c 0,0,1
356 620 m 1,25,-1
 370 678 l 1,26,-1
 399 678 l 1,27,-1
 386 620 l 1,28,-1
 356 620 l 1,25,-1
EndSplineSet
EndChar

StartChar: Ccaron
Encoding: 268 268 205
Width: 510
GlyphClass: 2
Flags: W
LayerCount: 2
Fore
SplineSet
306 -9 m 0,0,1
 121 -9 121 -9 121 190 c 0,2,3
 121 333 121 333 176 465 c 0,4,5
 238 615 238 615 342 676 c 1,6,7
 401 709 401 709 469 709 c 0,8,9
 543 709 543 709 608 695 c 2,10,-1
 632 690 l 1,11,-1
 624 658 l 1,12,13
 537 675 537 675 464.5 675 c 128,-1,14
 392 675 392 675 331.5 627.5 c 128,-1,15
 271 580 271 580 234 506 c 0,16,17
 159 353 159 353 159 190 c 0,18,19
 159 105 159 105 195.5 65 c 128,-1,20
 232 25 232 25 311 25 c 0,21,22
 387 25 387 25 451 39 c 2,23,-1
 474 44 l 1,24,-1
 473 11 l 1,25,26
 386 -9 386 -9 306 -9 c 0,0,1
658 931 m 1,27,-1
 503 803 l 1,28,-1
 486 803 l 1,29,-1
 386 931 l 1,30,-1
 421 931 l 1,31,-1
 498 832 l 1,32,-1
 618 931 l 1,33,-1
 658 931 l 1,27,-1
EndSplineSet
Position2: "'cpsp' Capital Spacing in Latin lookup 0 subtable" dx=5 dy=0 dh=10 dv=0
EndChar

StartChar: ccaron
Encoding: 269 269 206
Width: 403
GlyphClass: 2
Flags: W
LayerCount: 2
Fore
SplineSet
379 595 m 1,0,-1
 365 595 l 1,1,-1
 279 730 l 1,2,-1
 311 730 l 1,3,-1
 377 625 l 1,4,-1
 492 730 l 1,5,-1
 531 730 l 1,6,-1
 379 595 l 1,0,-1
363 509 m 0,7,8
 411 509 411 509 456 501 c 2,9,-1
 472 498 l 1,10,-1
 463 467 l 1,11,12
 406 477 406 477 363 477 c 0,13,14
 288 477 288 477 235 426 c 0,15,16
 136 329 136 329 136 132 c 0,17,18
 136 78 136 78 164.5 50.5 c 128,-1,19
 193 23 193 23 257 23 c 0,20,21
 294 23 294 23 352 37 c 2,22,-1
 372 42 l 1,23,-1
 372 10 l 1,24,25
 305 -9 305 -9 249 -9 c 0,26,27
 99 -9 99 -9 99 129 c 0,28,29
 99 347 99 347 215 452 c 0,30,31
 277 509 277 509 363 509 c 0,7,8
EndSplineSet
EndChar

StartChar: Dcaron
Encoding: 270 270 207
Width: 608
GlyphClass: 2
Flags: W
LayerCount: 2
Fore
SplineSet
323 0 m 2,0,-1
 86 0 l 1,1,-1
 248 700 l 1,2,-1
 476 700 l 2,3,4
 567 700 567 700 606.5 650 c 128,-1,5
 646 600 646 600 646 495 c 0,6,7
 646 329 646 329 568 172 c 0,8,9
 531 97 531 97 466.5 48.5 c 128,-1,10
 402 0 402 0 323 0 c 2,0,-1
576.5 626 m 128,-1,12
 545 667 545 667 469 667 c 2,13,-1
 276 667 l 1,14,-1
 131 33 l 1,15,-1
 332 33 l 2,16,17
 396 33 396 33 450 78.5 c 128,-1,18
 504 124 504 124 537.5 194.5 c 128,-1,19
 571 265 571 265 589.5 344 c 128,-1,20
 608 423 608 423 608 504 c 128,-1,11
 608 585 608 585 576.5 626 c 128,-1,12
613 931 m 1,21,-1
 458 803 l 1,22,-1
 441 803 l 1,23,-1
 341 931 l 1,24,-1
 376 931 l 1,25,-1
 453 832 l 1,26,-1
 573 931 l 1,27,-1
 613 931 l 1,21,-1
EndSplineSet
Position2: "'cpsp' Capital Spacing in Latin lookup 0 subtable" dx=5 dy=0 dh=10 dv=0
EndChar

StartChar: dcaron
Encoding: 271 271 208
Width: 494
GlyphClass: 2
Flags: W
LayerCount: 2
Fore
SplineSet
666 700 m 1,0,-1
 615 480 l 1,1,-1
 583 480 l 1,2,-1
 634 700 l 1,3,-1
 666 700 l 1,0,-1
209 -9 m 0,4,5
 95 -9 95 -9 95 117 c 0,6,7
 95 207 95 207 123.5 295 c 128,-1,8
 152 383 152 383 210.5 446 c 128,-1,9
 269 509 269 509 343 509 c 0,10,11
 406 509 406 509 466 497 c 2,12,-1
 486 493 l 1,13,-1
 541 730 l 1,14,-1
 576 730 l 1,15,-1
 407 0 l 1,16,-1
 373 0 l 1,17,-1
 399 114 l 1,18,19
 395 109 395 109 388.5 100.5 c 128,-1,20
 382 92 382 92 361 71 c 128,-1,21
 340 50 340 50 319 34 c 128,-1,22
 298 18 298 18 267.5 4.5 c 128,-1,23
 237 -9 237 -9 209 -9 c 0,4,5
479 462 m 1,24,25
 409 477 409 477 344 477 c 128,-1,26
 279 477 279 477 228.5 416.5 c 128,-1,27
 178 356 178 356 155 275.5 c 128,-1,28
 132 195 132 195 132 117 c 0,29,30
 132 23 132 23 219 23 c 0,31,32
 243 23 243 23 272 38.5 c 128,-1,33
 301 54 301 54 325 76 c 0,34,35
 374 121 374 121 400 156 c 2,36,-1
 412 172 l 1,37,-1
 479 462 l 1,24,25
EndSplineSet
EndChar

StartChar: Dcroat
Encoding: 272 272 209
Width: 610
GlyphClass: 2
Flags: W
LayerCount: 2
Fore
SplineSet
325 0 m 2,0,-1
 88 0 l 1,1,-1
 165 332 l 1,2,-1
 89 332 l 1,3,-1
 96 370 l 1,4,-1
 174 370 l 1,5,-1
 250 700 l 1,6,-1
 478 700 l 2,7,8
 569 700 569 700 608.5 650 c 128,-1,9
 648 600 648 600 648 508 c 128,-1,10
 648 416 648 416 628 332 c 128,-1,11
 608 248 608 248 570.5 172.5 c 128,-1,12
 533 97 533 97 468.5 48.5 c 128,-1,13
 404 0 404 0 325 0 c 2,0,-1
591.5 344 m 128,-1,15
 610 423 610 423 610 504 c 128,-1,16
 610 585 610 585 578.5 626 c 128,-1,17
 547 667 547 667 471 667 c 2,18,-1
 278 667 l 1,19,-1
 210 370 l 1,20,-1
 372 370 l 1,21,-1
 363 332 l 1,22,-1
 201 332 l 1,23,-1
 133 33 l 1,24,-1
 334 33 l 2,25,26
 398 33 398 33 452 78.5 c 128,-1,27
 506 124 506 124 539.5 194.5 c 128,-1,14
 573 265 573 265 591.5 344 c 128,-1,15
EndSplineSet
Position2: "'cpsp' Capital Spacing in Latin lookup 0 subtable" dx=5 dy=0 dh=10 dv=0
EndChar

StartChar: dcroat
Encoding: 273 273 210
Width: 481
GlyphClass: 2
Flags: W
LayerCount: 2
Fore
SplineSet
209 -9 m 0,0,1
 95 -9 95 -9 95 117 c 0,2,3
 95 207 95 207 123.5 295 c 128,-1,4
 152 383 152 383 210.5 446 c 128,-1,5
 269 509 269 509 343 509 c 0,6,7
 406 509 406 509 466 497 c 2,8,-1
 486 493 l 1,9,-1
 515 617 l 1,10,-1
 354 617 l 1,11,-1
 362 653 l 1,12,-1
 523 653 l 1,13,-1
 541 730 l 1,14,-1
 576 730 l 1,15,-1
 558 653 l 1,16,-1
 615 653 l 1,17,-1
 606 617 l 1,18,-1
 550 617 l 1,19,-1
 407 0 l 1,20,-1
 373 0 l 1,21,-1
 399 114 l 1,22,23
 395 109 395 109 388.5 100.5 c 128,-1,24
 382 92 382 92 361 71 c 128,-1,25
 340 50 340 50 319 34 c 128,-1,26
 298 18 298 18 267.5 4.5 c 128,-1,27
 237 -9 237 -9 209 -9 c 0,0,1
479 462 m 1,28,29
 409 477 409 477 344 477 c 128,-1,30
 279 477 279 477 228.5 416.5 c 128,-1,31
 178 356 178 356 155 275.5 c 128,-1,32
 132 195 132 195 132 117 c 0,33,34
 132 23 132 23 219 23 c 0,35,36
 243 23 243 23 272 38.5 c 128,-1,37
 301 54 301 54 325 76 c 0,38,39
 374 121 374 121 400 156 c 2,40,-1
 412 172 l 1,41,-1
 479 462 l 1,28,29
EndSplineSet
EndChar

StartChar: Emacron
Encoding: 274 274 211
Width: 510
GlyphClass: 2
Flags: W
LayerCount: 2
Fore
SplineSet
325 835 m 1,0,-1
 330 861 l 1,1,-1
 602 861 l 1,2,-1
 595 835 l 1,3,-1
 325 835 l 1,0,-1
86 0 m 1,4,-1
 248 700 l 1,5,-1
 625 700 l 1,6,-1
 617 667 l 1,7,-1
 276 667 l 1,8,-1
 209 376 l 1,9,-1
 494 376 l 1,10,-1
 486 343 l 1,11,-1
 201 343 l 1,12,-1
 130 33 l 1,13,-1
 471 33 l 1,14,-1
 463 0 l 1,15,-1
 86 0 l 1,4,-1
EndSplineSet
Position2: "'cpsp' Capital Spacing in Latin lookup 0 subtable" dx=5 dy=0 dh=10 dv=0
EndChar

StartChar: emacron
Encoding: 275 275 212
Width: 452
GlyphClass: 2
Flags: W
LayerCount: 2
Fore
SplineSet
163.5 54.5 m 128,-1,1
 193 25 193 25 236 25 c 0,2,3
 310 25 310 25 385 47 c 2,4,-1
 409 54 l 1,5,-1
 409 21 l 1,6,7
 323 -9 323 -9 237 -9 c 0,8,9
 173 -9 173 -9 135 27.5 c 128,-1,10
 97 64 97 64 97 130 c 128,-1,11
 97 196 97 196 113.5 261 c 128,-1,12
 130 326 130 326 161.5 382.5 c 128,-1,13
 193 439 193 439 245.5 474 c 128,-1,14
 298 509 298 509 364 509 c 0,15,16
 494 509 494 509 494 406 c 0,17,18
 494 321 494 321 425 285.5 c 128,-1,19
 356 250 356 250 212 250 c 2,20,-1
 149 250 l 1,21,22
 134 190 134 190 134 137 c 128,-1,0
 134 84 134 84 163.5 54.5 c 128,-1,1
221 282 m 2,23,24
 344 282 344 282 401 308.5 c 128,-1,25
 458 335 458 335 458 406 c 128,-1,26
 458 477 458 477 363 477 c 0,27,28
 217 477 217 477 156 282 c 1,29,-1
 221 282 l 2,23,24
280 647 m 1,30,-1
 286 673 l 1,31,-1
 539 673 l 1,32,-1
 532 647 l 1,33,-1
 280 647 l 1,30,-1
EndSplineSet
EndChar

StartChar: Ebreve
Encoding: 276 276 213
Width: 510
GlyphClass: 2
Flags: W
LayerCount: 2
Fore
SplineSet
384 921 m 1,0,1
 381 906 381 906 381 886.5 c 128,-1,2
 381 867 381 867 397.5 850.5 c 128,-1,3
 414 834 414 834 456 834 c 128,-1,4
 498 834 498 834 531 858 c 128,-1,5
 564 882 564 882 574 921 c 1,6,-1
 604 921 l 1,7,8
 590 865 590 865 548.5 834.5 c 128,-1,9
 507 804 507 804 451 804 c 0,10,11
 351 804 351 804 351 887 c 0,12,13
 351 903 351 903 354 921 c 1,14,-1
 384 921 l 1,0,1
86 0 m 1,15,-1
 248 700 l 1,16,-1
 625 700 l 1,17,-1
 617 667 l 1,18,-1
 276 667 l 1,19,-1
 209 376 l 1,20,-1
 494 376 l 1,21,-1
 486 343 l 1,22,-1
 201 343 l 1,23,-1
 130 33 l 1,24,-1
 471 33 l 1,25,-1
 463 0 l 1,26,-1
 86 0 l 1,15,-1
EndSplineSet
Position2: "'cpsp' Capital Spacing in Latin lookup 0 subtable" dx=5 dy=0 dh=10 dv=0
EndChar

StartChar: ebreve
Encoding: 277 277 214
Width: 452
GlyphClass: 2
Flags: W
LayerCount: 2
Fore
SplineSet
163.5 54.5 m 128,-1,1
 193 25 193 25 236 25 c 0,2,3
 310 25 310 25 385 47 c 2,4,-1
 409 54 l 1,5,-1
 409 21 l 1,6,7
 323 -9 323 -9 237 -9 c 0,8,9
 173 -9 173 -9 135 27.5 c 128,-1,10
 97 64 97 64 97 130 c 128,-1,11
 97 196 97 196 113.5 261 c 128,-1,12
 130 326 130 326 161.5 382.5 c 128,-1,13
 193 439 193 439 245.5 474 c 128,-1,14
 298 509 298 509 364 509 c 0,15,16
 494 509 494 509 494 406 c 0,17,18
 494 321 494 321 425 285.5 c 128,-1,19
 356 250 356 250 212 250 c 2,20,-1
 149 250 l 1,21,22
 134 190 134 190 134 137 c 128,-1,0
 134 84 134 84 163.5 54.5 c 128,-1,1
221 282 m 2,23,24
 344 282 344 282 401 308.5 c 128,-1,25
 458 335 458 335 458 406 c 128,-1,26
 458 477 458 477 363 477 c 0,27,28
 217 477 217 477 156 282 c 1,29,-1
 221 282 l 2,23,24
316 721 m 1,30,31
 311 705 311 705 311 686.5 c 128,-1,32
 311 668 311 668 324 650 c 0,33,34
 343 623 343 623 391 623 c 128,-1,35
 439 623 439 623 469.5 650 c 128,-1,36
 500 677 500 677 511 721 c 1,37,-1
 539 721 l 1,38,39
 507 595 507 595 382 595 c 0,40,41
 325 595 325 595 300 632 c 0,42,43
 284 656 284 656 284 679.5 c 128,-1,44
 284 703 284 703 288 721 c 1,45,-1
 316 721 l 1,30,31
EndSplineSet
EndChar

StartChar: Edotaccent
Encoding: 278 278 215
Width: 510
GlyphClass: 2
Flags: W
LayerCount: 2
Fore
SplineSet
451 869 m 1,0,-1
 463 927 l 1,1,-1
 491 927 l 1,2,-1
 480 869 l 1,3,-1
 451 869 l 1,0,-1
86 0 m 1,4,-1
 248 700 l 1,5,-1
 625 700 l 1,6,-1
 617 667 l 1,7,-1
 276 667 l 1,8,-1
 209 376 l 1,9,-1
 494 376 l 1,10,-1
 486 343 l 1,11,-1
 201 343 l 1,12,-1
 130 33 l 1,13,-1
 471 33 l 1,14,-1
 463 0 l 1,15,-1
 86 0 l 1,4,-1
EndSplineSet
Position2: "'cpsp' Capital Spacing in Latin lookup 0 subtable" dx=5 dy=0 dh=10 dv=0
EndChar

StartChar: edotaccent
Encoding: 279 279 216
Width: 452
GlyphClass: 2
Flags: W
LayerCount: 2
Fore
SplineSet
163.5 54.5 m 128,-1,1
 193 25 193 25 236 25 c 0,2,3
 310 25 310 25 385 47 c 2,4,-1
 409 54 l 1,5,-1
 409 21 l 1,6,7
 323 -9 323 -9 237 -9 c 0,8,9
 173 -9 173 -9 135 27.5 c 128,-1,10
 97 64 97 64 97 130 c 128,-1,11
 97 196 97 196 113.5 261 c 128,-1,12
 130 326 130 326 161.5 382.5 c 128,-1,13
 193 439 193 439 245.5 474 c 128,-1,14
 298 509 298 509 364 509 c 0,15,16
 494 509 494 509 494 406 c 0,17,18
 494 321 494 321 425 285.5 c 128,-1,19
 356 250 356 250 212 250 c 2,20,-1
 149 250 l 1,21,22
 134 190 134 190 134 137 c 128,-1,0
 134 84 134 84 163.5 54.5 c 128,-1,1
221 282 m 2,23,24
 344 282 344 282 401 308.5 c 128,-1,25
 458 335 458 335 458 406 c 128,-1,26
 458 477 458 477 363 477 c 0,27,28
 217 477 217 477 156 282 c 1,29,-1
 221 282 l 2,23,24
360 620 m 1,30,-1
 374 678 l 1,31,-1
 403 678 l 1,32,-1
 390 620 l 1,33,-1
 360 620 l 1,30,-1
EndSplineSet
EndChar

StartChar: Eogonek
Encoding: 280 280 217
Width: 510
GlyphClass: 2
Flags: W
LayerCount: 2
Fore
SplineSet
334 -141 m 0,0,1
 334 -165 334 -165 366 -165 c 1,2,-1
 422 -158 l 1,3,-1
 418 -190 l 1,4,5
 382 -198 382 -198 356 -198 c 0,6,7
 294 -198 294 -198 294 -144 c 0,8,9
 294 -113 294 -113 325.5 -72.5 c 128,-1,10
 357 -32 357 -32 394 0 c 1,11,-1
 86 0 l 1,12,-1
 248 700 l 1,13,-1
 625 700 l 1,14,-1
 617 667 l 1,15,-1
 276 667 l 1,16,-1
 209 376 l 1,17,-1
 494 376 l 1,18,-1
 486 343 l 1,19,-1
 201 343 l 1,20,-1
 130 33 l 1,21,-1
 471 33 l 1,22,-1
 463 0 l 1,23,-1
 435 0 l 1,24,25
 400 -31 400 -31 367 -72 c 128,-1,26
 334 -113 334 -113 334 -141 c 0,0,1
EndSplineSet
Position2: "'cpsp' Capital Spacing in Latin lookup 0 subtable" dx=5 dy=0 dh=10 dv=0
EndChar

StartChar: eogonek
Encoding: 281 281 218
Width: 452
GlyphClass: 2
Flags: W
LayerCount: 2
Fore
SplineSet
321 -178 m 0,0,1
 259 -178 259 -178 259 -124 c 0,2,3
 259 -74 259 -74 340 2 c 1,4,5
 283 -9 283 -9 228 -9 c 128,-1,6
 173 -9 173 -9 135 27.5 c 128,-1,7
 97 64 97 64 97 130 c 128,-1,8
 97 196 97 196 113.5 261 c 128,-1,9
 130 326 130 326 161.5 382.5 c 128,-1,10
 193 439 193 439 245.5 474 c 128,-1,11
 298 509 298 509 364 509 c 0,12,13
 494 509 494 509 494 406 c 0,14,15
 494 321 494 321 425 285.5 c 128,-1,16
 356 250 356 250 212 250 c 2,17,-1
 149 250 l 1,18,19
 134 190 134 190 134 137 c 128,-1,20
 134 84 134 84 163.5 54.5 c 128,-1,21
 193 25 193 25 236 25 c 0,22,23
 310 25 310 25 385 47 c 2,24,-1
 409 54 l 1,25,-1
 409 21 l 1,26,-1
 397 17 l 1,27,28
 363 -12 363 -12 331 -53 c 128,-1,29
 299 -94 299 -94 299 -121 c 0,30,31
 299 -145 299 -145 331 -145 c 1,32,-1
 387 -138 l 1,33,-1
 383 -170 l 1,34,35
 347 -178 347 -178 321 -178 c 0,0,1
221 282 m 2,36,37
 344 282 344 282 401 308.5 c 128,-1,38
 458 335 458 335 458 406 c 128,-1,39
 458 477 458 477 363 477 c 0,40,41
 217 477 217 477 156 282 c 1,42,-1
 221 282 l 2,36,37
EndSplineSet
EndChar

StartChar: Ecaron
Encoding: 282 282 219
Width: 510
GlyphClass: 2
Flags: W
LayerCount: 2
Fore
SplineSet
610 931 m 1,0,-1
 455 803 l 1,1,-1
 438 803 l 1,2,-1
 338 931 l 1,3,-1
 373 931 l 1,4,-1
 450 832 l 1,5,-1
 570 931 l 1,6,-1
 610 931 l 1,0,-1
86 0 m 1,7,-1
 248 700 l 1,8,-1
 625 700 l 1,9,-1
 617 667 l 1,10,-1
 276 667 l 1,11,-1
 209 376 l 1,12,-1
 494 376 l 1,13,-1
 486 343 l 1,14,-1
 201 343 l 1,15,-1
 130 33 l 1,16,-1
 471 33 l 1,17,-1
 463 0 l 1,18,-1
 86 0 l 1,7,-1
EndSplineSet
Position2: "'cpsp' Capital Spacing in Latin lookup 0 subtable" dx=5 dy=0 dh=10 dv=0
EndChar

StartChar: ecaron
Encoding: 283 283 220
Width: 452
GlyphClass: 2
Flags: W
LayerCount: 2
Fore
SplineSet
163.5 54.5 m 128,-1,1
 193 25 193 25 236 25 c 0,2,3
 310 25 310 25 385 47 c 2,4,-1
 409 54 l 1,5,-1
 409 21 l 1,6,7
 323 -9 323 -9 237 -9 c 0,8,9
 173 -9 173 -9 135 27.5 c 128,-1,10
 97 64 97 64 97 130 c 128,-1,11
 97 196 97 196 113.5 261 c 128,-1,12
 130 326 130 326 161.5 382.5 c 128,-1,13
 193 439 193 439 245.5 474 c 128,-1,14
 298 509 298 509 364 509 c 0,15,16
 494 509 494 509 494 406 c 0,17,18
 494 321 494 321 425 285.5 c 128,-1,19
 356 250 356 250 212 250 c 2,20,-1
 149 250 l 1,21,22
 134 190 134 190 134 137 c 128,-1,0
 134 84 134 84 163.5 54.5 c 128,-1,1
221 282 m 2,23,24
 344 282 344 282 401 308.5 c 128,-1,25
 458 335 458 335 458 406 c 128,-1,26
 458 477 458 477 363 477 c 0,27,28
 217 477 217 477 156 282 c 1,29,-1
 221 282 l 2,23,24
396 595 m 1,30,-1
 382 595 l 1,31,-1
 296 730 l 1,32,-1
 328 730 l 1,33,-1
 394 625 l 1,34,-1
 509 730 l 1,35,-1
 548 730 l 1,36,-1
 396 595 l 1,30,-1
EndSplineSet
EndChar

StartChar: Gcircumflex
Encoding: 284 284 221
Width: 575
GlyphClass: 2
Flags: W
LayerCount: 2
Fore
SplineSet
365 795 m 1,0,-1
 511 930 l 1,1,-1
 533 930 l 1,2,-1
 620 795 l 1,3,-1
 582 795 l 1,4,-1
 518 896 l 1,5,-1
 408 795 l 1,6,-1
 365 795 l 1,0,-1
318 -9 m 0,7,8
 121 -9 121 -9 121 175 c 0,9,10
 121 331 121 331 175 466 c 0,11,12
 203 536 203 536 242.5 590 c 128,-1,13
 282 644 282 644 341.5 676.5 c 128,-1,14
 401 709 401 709 471 709 c 0,15,16
 550 709 550 709 638 690 c 2,17,-1
 665 684 l 1,18,-1
 655 654 l 1,19,20
 553 676 553 676 463 676 c 0,21,22
 402 676 402 676 351 644 c 128,-1,23
 300 612 300 612 265 560 c 128,-1,24
 230 508 230 508 206 442 c 0,25,26
 159 317 159 317 159 175 c 0,27,28
 159 24 159 24 320 24 c 0,29,30
 383 24 383 24 456 40 c 1,31,-1
 481 46 l 1,32,-1
 543 313 l 1,33,-1
 411 313 l 1,34,-1
 419 346 l 1,35,-1
 587 346 l 1,36,-1
 511 19 l 1,37,38
 409 -9 409 -9 318 -9 c 0,7,8
EndSplineSet
Position2: "'cpsp' Capital Spacing in Latin lookup 0 subtable" dx=5 dy=0 dh=10 dv=0
EndChar

StartChar: gcircumflex
Encoding: 285 285 222
Width: 458
GlyphClass: 2
Flags: W
LayerCount: 2
Fore
SplineSet
329 509 m 0,0,1
 378 509 378 509 408 494 c 1,2,-1
 557 500 l 1,3,-1
 549 465 l 1,4,-1
 439 465 l 1,5,6
 464 433 464 433 464 392.5 c 128,-1,7
 464 352 464 352 452 317.5 c 128,-1,8
 440 283 440 283 416 251 c 128,-1,9
 392 219 392 219 349 198.5 c 128,-1,10
 306 178 306 178 252 178 c 1,11,-1
 226 180 l 1,12,13
 185 127 185 127 185 94 c 0,14,15
 185 74 185 74 203.5 66 c 128,-1,16
 222 58 222 58 294.5 50 c 128,-1,17
 367 42 367 42 400 16.5 c 128,-1,18
 433 -9 433 -9 433 -62 c 0,19,20
 433 -132 433 -132 362 -185.5 c 128,-1,21
 291 -239 291 -239 177 -239 c 0,22,23
 107 -239 107 -239 65.5 -203 c 128,-1,24
 24 -167 24 -167 24 -112 c 0,25,26
 24 -22 24 -22 163 53 c 1,27,28
 150 64 150 64 150 87 c 128,-1,29
 150 110 150 110 163 134.5 c 128,-1,30
 176 159 176 159 188 174 c 1,31,-1
 201 188 l 1,32,33
 131 216 131 216 131 304 c 0,34,35
 131 378 131 378 184.5 443.5 c 128,-1,36
 238 509 238 509 329 509 c 0,0,1
98.5 -29 m 128,-1,38
 61 -66 61 -66 61 -108.5 c 128,-1,39
 61 -151 61 -151 93 -179 c 128,-1,40
 125 -207 125 -207 185 -207 c 0,41,42
 272 -207 272 -207 334 -165.5 c 128,-1,43
 396 -124 396 -124 396 -62 c 0,44,45
 396 -23 396 -23 370.5 -6.5 c 128,-1,46
 345 10 345 10 280 16.5 c 128,-1,47
 215 23 215 23 189 34 c 1,48,37
 136 8 136 8 98.5 -29 c 128,-1,38
260 210 m 0,49,50
 303 210 303 210 337 227.5 c 128,-1,51
 371 245 371 245 390 272 c 0,52,53
 428 324 428 324 428 375.5 c 128,-1,54
 428 427 428 427 404.5 452 c 128,-1,55
 381 477 381 477 325 477 c 0,56,57
 253 477 253 477 210 421 c 128,-1,58
 167 365 167 365 167 306 c 0,59,60
 167 210 167 210 260 210 c 0,49,50
231 595 m 1,61,-1
 377 730 l 1,62,-1
 391 730 l 1,63,-1
 478 595 l 1,64,-1
 444 595 l 1,65,-1
 380 696 l 1,66,-1
 270 595 l 1,67,-1
 231 595 l 1,61,-1
EndSplineSet
EndChar

StartChar: Gbreve
Encoding: 286 286 223
Width: 575
GlyphClass: 2
Flags: W
LayerCount: 2
Fore
SplineSet
430 896 m 0,0,1
 430 865 430 865 449.5 845.5 c 128,-1,2
 469 826 469 826 511 826 c 128,-1,3
 553 826 553 826 585 852.5 c 128,-1,4
 617 879 617 879 628 921 c 1,5,-1
 660 921 l 1,6,7
 645 863 645 863 600.5 826.5 c 128,-1,8
 556 790 556 790 502.5 790 c 128,-1,9
 449 790 449 790 422.5 818 c 128,-1,10
 396 846 396 846 396 888 c 0,11,12
 396 906 396 906 400 921 c 1,13,-1
 433 921 l 1,14,15
 430 909 430 909 430 896 c 0,0,1
318 -9 m 0,16,17
 121 -9 121 -9 121 175 c 0,18,19
 121 331 121 331 175 466 c 0,20,21
 203 536 203 536 242.5 590 c 128,-1,22
 282 644 282 644 341.5 676.5 c 128,-1,23
 401 709 401 709 471 709 c 0,24,25
 550 709 550 709 638 690 c 2,26,-1
 665 684 l 1,27,-1
 655 654 l 1,28,29
 553 676 553 676 463 676 c 0,30,31
 402 676 402 676 351 644 c 128,-1,32
 300 612 300 612 265 560 c 128,-1,33
 230 508 230 508 206 442 c 0,34,35
 159 317 159 317 159 175 c 0,36,37
 159 24 159 24 320 24 c 0,38,39
 383 24 383 24 456 40 c 1,40,-1
 481 46 l 1,41,-1
 543 313 l 1,42,-1
 411 313 l 1,43,-1
 419 346 l 1,44,-1
 587 346 l 1,45,-1
 511 19 l 1,46,47
 409 -9 409 -9 318 -9 c 0,16,17
EndSplineSet
Position2: "'cpsp' Capital Spacing in Latin lookup 0 subtable" dx=5 dy=0 dh=10 dv=0
EndChar

StartChar: gbreve
Encoding: 287 287 224
Width: 458
GlyphClass: 2
Flags: W
LayerCount: 2
Fore
SplineSet
329 509 m 0,0,1
 378 509 378 509 408 494 c 1,2,-1
 557 500 l 1,3,-1
 549 465 l 1,4,-1
 439 465 l 1,5,6
 464 433 464 433 464 392.5 c 128,-1,7
 464 352 464 352 452 317.5 c 128,-1,8
 440 283 440 283 416 251 c 128,-1,9
 392 219 392 219 349 198.5 c 128,-1,10
 306 178 306 178 252 178 c 1,11,-1
 226 180 l 1,12,13
 185 127 185 127 185 94 c 0,14,15
 185 74 185 74 203.5 66 c 128,-1,16
 222 58 222 58 294.5 50 c 128,-1,17
 367 42 367 42 400 16.5 c 128,-1,18
 433 -9 433 -9 433 -62 c 0,19,20
 433 -132 433 -132 362 -185.5 c 128,-1,21
 291 -239 291 -239 177 -239 c 0,22,23
 107 -239 107 -239 65.5 -203 c 128,-1,24
 24 -167 24 -167 24 -112 c 0,25,26
 24 -22 24 -22 163 53 c 1,27,28
 150 64 150 64 150 87 c 128,-1,29
 150 110 150 110 163 134.5 c 128,-1,30
 176 159 176 159 188 174 c 1,31,-1
 201 188 l 1,32,33
 131 216 131 216 131 304 c 0,34,35
 131 378 131 378 184.5 443.5 c 128,-1,36
 238 509 238 509 329 509 c 0,0,1
98.5 -29 m 128,-1,38
 61 -66 61 -66 61 -108.5 c 128,-1,39
 61 -151 61 -151 93 -179 c 128,-1,40
 125 -207 125 -207 185 -207 c 0,41,42
 272 -207 272 -207 334 -165.5 c 128,-1,43
 396 -124 396 -124 396 -62 c 0,44,45
 396 -23 396 -23 370.5 -6.5 c 128,-1,46
 345 10 345 10 280 16.5 c 128,-1,47
 215 23 215 23 189 34 c 1,48,37
 136 8 136 8 98.5 -29 c 128,-1,38
260 210 m 0,49,50
 303 210 303 210 337 227.5 c 128,-1,51
 371 245 371 245 390 272 c 0,52,53
 428 324 428 324 428 375.5 c 128,-1,54
 428 427 428 427 404.5 452 c 128,-1,55
 381 477 381 477 325 477 c 0,56,57
 253 477 253 477 210 421 c 128,-1,58
 167 365 167 365 167 306 c 0,59,60
 167 210 167 210 260 210 c 0,49,50
322 721 m 1,61,62
 317 705 317 705 317 686.5 c 128,-1,63
 317 668 317 668 330 650 c 0,64,65
 349 623 349 623 397 623 c 128,-1,66
 445 623 445 623 475.5 650 c 128,-1,67
 506 677 506 677 517 721 c 1,68,-1
 545 721 l 1,69,70
 513 595 513 595 388 595 c 0,71,72
 331 595 331 595 306 632 c 0,73,74
 290 656 290 656 290 679.5 c 128,-1,75
 290 703 290 703 294 721 c 1,76,-1
 322 721 l 1,61,62
EndSplineSet
EndChar

StartChar: Gdotaccent
Encoding: 288 288 225
Width: 575
GlyphClass: 2
Flags: W
LayerCount: 2
Fore
SplineSet
495 840 m 1,0,-1
 509 898 l 1,1,-1
 542 898 l 1,2,-1
 529 840 l 1,3,-1
 495 840 l 1,0,-1
318 -9 m 0,4,5
 121 -9 121 -9 121 175 c 0,6,7
 121 331 121 331 175 466 c 0,8,9
 203 536 203 536 242.5 590 c 128,-1,10
 282 644 282 644 341.5 676.5 c 128,-1,11
 401 709 401 709 471 709 c 0,12,13
 550 709 550 709 638 690 c 2,14,-1
 665 684 l 1,15,-1
 655 654 l 1,16,17
 553 676 553 676 463 676 c 0,18,19
 402 676 402 676 351 644 c 128,-1,20
 300 612 300 612 265 560 c 128,-1,21
 230 508 230 508 206 442 c 0,22,23
 159 317 159 317 159 175 c 0,24,25
 159 24 159 24 320 24 c 0,26,27
 383 24 383 24 456 40 c 1,28,-1
 481 46 l 1,29,-1
 543 313 l 1,30,-1
 411 313 l 1,31,-1
 419 346 l 1,32,-1
 587 346 l 1,33,-1
 511 19 l 1,34,35
 409 -9 409 -9 318 -9 c 0,4,5
EndSplineSet
Position2: "'cpsp' Capital Spacing in Latin lookup 0 subtable" dx=5 dy=0 dh=10 dv=0
EndChar

StartChar: gdotaccent
Encoding: 289 289 226
Width: 458
GlyphClass: 2
Flags: W
LayerCount: 2
Fore
SplineSet
329 509 m 0,0,1
 378 509 378 509 408 494 c 1,2,-1
 557 500 l 1,3,-1
 549 465 l 1,4,-1
 439 465 l 1,5,6
 464 433 464 433 464 392.5 c 128,-1,7
 464 352 464 352 452 317.5 c 128,-1,8
 440 283 440 283 416 251 c 128,-1,9
 392 219 392 219 349 198.5 c 128,-1,10
 306 178 306 178 252 178 c 1,11,-1
 226 180 l 1,12,13
 185 127 185 127 185 94 c 0,14,15
 185 74 185 74 203.5 66 c 128,-1,16
 222 58 222 58 294.5 50 c 128,-1,17
 367 42 367 42 400 16.5 c 128,-1,18
 433 -9 433 -9 433 -62 c 0,19,20
 433 -132 433 -132 362 -185.5 c 128,-1,21
 291 -239 291 -239 177 -239 c 0,22,23
 107 -239 107 -239 65.5 -203 c 128,-1,24
 24 -167 24 -167 24 -112 c 0,25,26
 24 -22 24 -22 163 53 c 1,27,28
 150 64 150 64 150 87 c 128,-1,29
 150 110 150 110 163 134.5 c 128,-1,30
 176 159 176 159 188 174 c 1,31,-1
 201 188 l 1,32,33
 131 216 131 216 131 304 c 0,34,35
 131 378 131 378 184.5 443.5 c 128,-1,36
 238 509 238 509 329 509 c 0,0,1
98.5 -29 m 128,-1,38
 61 -66 61 -66 61 -108.5 c 128,-1,39
 61 -151 61 -151 93 -179 c 128,-1,40
 125 -207 125 -207 185 -207 c 0,41,42
 272 -207 272 -207 334 -165.5 c 128,-1,43
 396 -124 396 -124 396 -62 c 0,44,45
 396 -23 396 -23 370.5 -6.5 c 128,-1,46
 345 10 345 10 280 16.5 c 128,-1,47
 215 23 215 23 189 34 c 1,48,37
 136 8 136 8 98.5 -29 c 128,-1,38
260 210 m 0,49,50
 303 210 303 210 337 227.5 c 128,-1,51
 371 245 371 245 390 272 c 0,52,53
 428 324 428 324 428 375.5 c 128,-1,54
 428 427 428 427 404.5 452 c 128,-1,55
 381 477 381 477 325 477 c 0,56,57
 253 477 253 477 210 421 c 128,-1,58
 167 365 167 365 167 306 c 0,59,60
 167 210 167 210 260 210 c 0,49,50
344 620 m 1,61,-1
 358 678 l 1,62,-1
 387 678 l 1,63,-1
 374 620 l 1,64,-1
 344 620 l 1,61,-1
EndSplineSet
EndChar

StartChar: Gcommaaccent
Encoding: 290 290 227
Width: 575
GlyphClass: 2
Flags: W
LayerCount: 2
Fore
SplineSet
318 -9 m 0,0,1
 121 -9 121 -9 121 175 c 0,2,3
 121 331 121 331 175 466 c 0,4,5
 203 536 203 536 242.5 590 c 128,-1,6
 282 644 282 644 341.5 676.5 c 128,-1,7
 401 709 401 709 471 709 c 0,8,9
 550 709 550 709 638 690 c 2,10,-1
 665 684 l 1,11,-1
 655 654 l 1,12,13
 553 676 553 676 463 676 c 0,14,15
 402 676 402 676 351 644 c 128,-1,16
 300 612 300 612 265 560 c 128,-1,17
 230 508 230 508 206 442 c 0,18,19
 159 317 159 317 159 175 c 0,20,21
 159 24 159 24 320 24 c 0,22,23
 383 24 383 24 456 40 c 1,24,-1
 481 46 l 1,25,-1
 543 313 l 1,26,-1
 411 313 l 1,27,-1
 419 346 l 1,28,-1
 587 346 l 1,29,-1
 511 19 l 1,30,31
 409 -9 409 -9 318 -9 c 0,0,1
274 -73 m 1,32,-1
 308 -73 l 1,33,-1
 220 -265 l 1,34,-1
 194 -265 l 1,35,-1
 274 -73 l 1,32,-1
EndSplineSet
Position2: "'cpsp' Capital Spacing in Latin lookup 0 subtable" dx=5 dy=0 dh=10 dv=0
EndChar

StartChar: gcommaaccent
Encoding: 291 291 228
Width: 458
GlyphClass: 2
Flags: W
LayerCount: 2
Fore
SplineSet
419 780 m 1,0,-1
 446 780 l 1,1,-1
 365 588 l 1,2,-1
 331 588 l 1,3,-1
 419 780 l 1,0,-1
329 509 m 0,4,5
 378 509 378 509 408 494 c 1,6,-1
 557 500 l 1,7,-1
 549 465 l 1,8,-1
 439 465 l 1,9,10
 464 433 464 433 464 392.5 c 128,-1,11
 464 352 464 352 452 317.5 c 128,-1,12
 440 283 440 283 416 251 c 128,-1,13
 392 219 392 219 349 198.5 c 128,-1,14
 306 178 306 178 252 178 c 1,15,-1
 226 180 l 1,16,17
 185 127 185 127 185 94 c 0,18,19
 185 74 185 74 203.5 66 c 128,-1,20
 222 58 222 58 294.5 50 c 128,-1,21
 367 42 367 42 400 16.5 c 128,-1,22
 433 -9 433 -9 433 -62 c 0,23,24
 433 -132 433 -132 362 -185.5 c 128,-1,25
 291 -239 291 -239 177 -239 c 0,26,27
 107 -239 107 -239 65.5 -203 c 128,-1,28
 24 -167 24 -167 24 -112 c 0,29,30
 24 -22 24 -22 163 53 c 1,31,32
 150 64 150 64 150 87 c 128,-1,33
 150 110 150 110 163 134.5 c 128,-1,34
 176 159 176 159 188 174 c 1,35,-1
 201 188 l 1,36,37
 131 216 131 216 131 304 c 0,38,39
 131 378 131 378 184.5 443.5 c 128,-1,40
 238 509 238 509 329 509 c 0,4,5
98.5 -29 m 128,-1,42
 61 -66 61 -66 61 -108.5 c 128,-1,43
 61 -151 61 -151 93 -179 c 128,-1,44
 125 -207 125 -207 185 -207 c 0,45,46
 272 -207 272 -207 334 -165.5 c 128,-1,47
 396 -124 396 -124 396 -62 c 0,48,49
 396 -23 396 -23 370.5 -6.5 c 128,-1,50
 345 10 345 10 280 16.5 c 128,-1,51
 215 23 215 23 189 34 c 1,52,41
 136 8 136 8 98.5 -29 c 128,-1,42
260 210 m 0,53,54
 303 210 303 210 337 227.5 c 128,-1,55
 371 245 371 245 390 272 c 0,56,57
 428 324 428 324 428 375.5 c 128,-1,58
 428 427 428 427 404.5 452 c 128,-1,59
 381 477 381 477 325 477 c 0,60,61
 253 477 253 477 210 421 c 128,-1,62
 167 365 167 365 167 306 c 0,63,64
 167 210 167 210 260 210 c 0,53,54
EndSplineSet
EndChar

StartChar: Hcircumflex
Encoding: 292 292 229
Width: 626
GlyphClass: 2
Flags: W
LayerCount: 2
Fore
SplineSet
504 0 m 1,0,-1
 581 334 l 1,1,-1
 199 334 l 1,2,-1
 122 0 l 1,3,-1
 86 0 l 1,4,-1
 248 700 l 1,5,-1
 284 700 l 1,6,-1
 207 367 l 1,7,-1
 589 367 l 1,8,-1
 666 700 l 1,9,-1
 702 700 l 1,10,-1
 540 0 l 1,11,-1
 504 0 l 1,0,-1
354 803 m 1,12,-1
 510 931 l 1,13,-1
 524 931 l 1,14,-1
 621 803 l 1,15,-1
 587 803 l 1,16,-1
 514 900 l 1,17,-1
 395 803 l 1,18,-1
 354 803 l 1,12,-1
EndSplineSet
Position2: "'cpsp' Capital Spacing in Latin lookup 0 subtable" dx=5 dy=0 dh=10 dv=0
EndChar

StartChar: hcircumflex
Encoding: 293 293 230
Width: 489
GlyphClass: 2
Flags: W
LayerCount: 2
Fore
SplineSet
198 385 m 1,0,1
 297 509 297 509 384 509 c 0,2,3
 438 509 438 509 468.5 478 c 128,-1,4
 499 447 499 447 499 394 c 128,-1,5
 499 341 499 341 479 257 c 2,6,-1
 419 0 l 1,7,-1
 385 0 l 1,8,-1
 445 258 l 2,9,10
 464 336 464 336 464 384 c 0,11,12
 464 476 464 476 378 476 c 0,13,14
 353 476 353 476 324 461 c 128,-1,15
 295 446 295 446 272 424 c 0,16,17
 226 381 226 381 196 343 c 1,18,-1
 185 328 l 1,19,-1
 109 0 l 1,20,-1
 74 0 l 1,21,-1
 243 730 l 1,22,-1
 278 730 l 1,23,-1
 198 385 l 1,0,1
302 773 m 1,24,-1
 458 901 l 1,25,-1
 472 901 l 1,26,-1
 569 773 l 1,27,-1
 535 773 l 1,28,-1
 462 870 l 1,29,-1
 343 773 l 1,30,-1
 302 773 l 1,24,-1
EndSplineSet
EndChar

StartChar: Hbar
Encoding: 294 294 231
Width: 645
GlyphClass: 2
Flags: W
LayerCount: 2
Fore
SplineSet
126 517 m 1,0,-1
 133 553 l 1,1,-1
 223 553 l 1,2,-1
 257 700 l 1,3,-1
 291 700 l 1,4,-1
 257 553 l 1,5,-1
 643 553 l 1,6,-1
 677 700 l 1,7,-1
 711 700 l 1,8,-1
 677 553 l 1,9,-1
 766 553 l 1,10,-1
 756 517 l 1,11,-1
 669 517 l 1,12,-1
 550 0 l 1,13,-1
 516 0 l 1,14,-1
 593 334 l 1,15,-1
 207 334 l 1,16,-1
 130 0 l 1,17,-1
 96 0 l 1,18,-1
 215 517 l 1,19,-1
 126 517 l 1,0,-1
215 370 m 1,20,-1
 601 370 l 1,21,-1
 635 517 l 1,22,-1
 248 517 l 1,23,-1
 215 370 l 1,20,-1
EndSplineSet
Position2: "'cpsp' Capital Spacing in Latin lookup 0 subtable" dx=5 dy=0 dh=10 dv=0
EndChar

StartChar: hbar
Encoding: 295 295 232
Width: 489
GlyphClass: 2
Flags: W
LayerCount: 2
Fore
SplineSet
198 385 m 1,0,1
 297 509 297 509 384 509 c 0,2,3
 438 509 438 509 468.5 478 c 128,-1,4
 499 447 499 447 499 394 c 128,-1,5
 499 341 499 341 479 257 c 2,6,-1
 419 0 l 1,7,-1
 385 0 l 1,8,-1
 445 258 l 2,9,10
 464 336 464 336 464 384 c 0,11,12
 464 476 464 476 378 476 c 0,13,14
 353 476 353 476 324 461 c 128,-1,15
 295 446 295 446 272 424 c 0,16,17
 226 381 226 381 196 343 c 1,18,-1
 185 328 l 1,19,-1
 109 0 l 1,20,-1
 74 0 l 1,21,-1
 215 611 l 1,22,-1
 158 611 l 1,23,-1
 165 643 l 1,24,-1
 223 643 l 1,25,-1
 243 730 l 1,26,-1
 278 730 l 1,27,-1
 258 643 l 1,28,-1
 418 643 l 1,29,-1
 410 611 l 1,30,-1
 250 611 l 1,31,-1
 198 385 l 1,0,1
EndSplineSet
EndChar

StartChar: Itilde
Encoding: 296 296 233
Width: 208
GlyphClass: 2
Flags: W
LayerCount: 2
Fore
SplineSet
454 875 m 1,0,1
 391 818 391 818 366.5 818 c 128,-1,2
 342 818 342 818 291.5 850 c 128,-1,3
 241 882 241 882 230 882 c 0,4,5
 212 882 212 882 157 840 c 1,6,-1
 139 827 l 1,7,-1
 138 855 l 1,8,9
 204 912 204 912 230.5 912 c 128,-1,10
 257 912 257 912 307 880.5 c 128,-1,11
 357 849 357 849 368 849 c 0,12,13
 387 849 387 849 434 887 c 2,14,-1
 450 900 l 1,15,-1
 454 875 l 1,0,1
86 0 m 1,16,-1
 248 700 l 1,17,-1
 284 700 l 1,18,-1
 122 0 l 1,19,-1
 86 0 l 1,16,-1
EndSplineSet
Position2: "'cpsp' Capital Spacing in Latin lookup 0 subtable" dx=5 dy=0 dh=10 dv=0
EndChar

StartChar: itilde
Encoding: 297 297 234
Width: 182
GlyphClass: 2
Flags: W
LayerCount: 2
Fore
SplineSet
73 0 m 1,0,-1
 189 500 l 1,1,-1
 224 500 l 1,2,-1
 108 0 l 1,3,-1
 73 0 l 1,0,-1
298 630 m 0,4,5
 280 630 280 630 232 655.5 c 128,-1,6
 184 681 184 681 174 681 c 0,7,8
 156 681 156 681 110 647 c 2,9,-1
 95 636 l 1,10,-1
 93 667 l 1,11,12
 151 713 151 713 181 713 c 0,13,14
 200 713 200 713 246 687.5 c 128,-1,15
 292 662 292 662 302 662 c 0,16,17
 321 662 321 662 359 692 c 1,18,-1
 372 703 l 1,19,-1
 377 673 l 1,20,21
 327 630 327 630 298 630 c 0,4,5
EndSplineSet
EndChar

StartChar: Imacron
Encoding: 298 298 235
Width: 208
GlyphClass: 2
Flags: W
LayerCount: 2
Fore
SplineSet
155 845 m 1,0,-1
 160 871 l 1,1,-1
 432 871 l 1,2,-1
 425 845 l 1,3,-1
 155 845 l 1,0,-1
86 0 m 1,4,-1
 248 700 l 1,5,-1
 284 700 l 1,6,-1
 122 0 l 1,7,-1
 86 0 l 1,4,-1
EndSplineSet
Position2: "'cpsp' Capital Spacing in Latin lookup 0 subtable" dx=5 dy=0 dh=10 dv=0
EndChar

StartChar: imacron
Encoding: 299 299 236
Width: 182
GlyphClass: 2
Flags: W
LayerCount: 2
Fore
SplineSet
73 0 m 1,0,-1
 189 500 l 1,1,-1
 224 500 l 1,2,-1
 108 0 l 1,3,-1
 73 0 l 1,0,-1
107 647 m 1,4,-1
 113 673 l 1,5,-1
 366 673 l 1,6,-1
 359 647 l 1,7,-1
 107 647 l 1,4,-1
EndSplineSet
EndChar

StartChar: Ibreve
Encoding: 300 300 237
Width: 208
GlyphClass: 2
Flags: W
LayerCount: 2
Fore
SplineSet
218 920 m 1,0,1
 215 905 215 905 215 885.5 c 128,-1,2
 215 866 215 866 231.5 849.5 c 128,-1,3
 248 833 248 833 290 833 c 128,-1,4
 332 833 332 833 365 857 c 128,-1,5
 398 881 398 881 408 920 c 1,6,-1
 438 920 l 1,7,8
 424 864 424 864 382.5 833.5 c 128,-1,9
 341 803 341 803 285 803 c 0,10,11
 185 803 185 803 185 886 c 0,12,13
 185 902 185 902 188 920 c 1,14,-1
 218 920 l 1,0,1
86 0 m 1,15,-1
 248 700 l 1,16,-1
 284 700 l 1,17,-1
 122 0 l 1,18,-1
 86 0 l 1,15,-1
EndSplineSet
Position2: "'cpsp' Capital Spacing in Latin lookup 0 subtable" dx=5 dy=0 dh=10 dv=0
EndChar

StartChar: ibreve
Encoding: 301 301 238
Width: 182
GlyphClass: 2
Flags: W
LayerCount: 2
Fore
SplineSet
73 0 m 1,0,-1
 189 500 l 1,1,-1
 224 500 l 1,2,-1
 108 0 l 1,3,-1
 73 0 l 1,0,-1
157 721 m 1,4,5
 152 705 152 705 152 686.5 c 128,-1,6
 152 668 152 668 164 650 c 1,7,8
 184 623 184 623 232 623 c 128,-1,9
 280 623 280 623 310.5 650 c 128,-1,10
 341 677 341 677 352 721 c 1,11,-1
 380 721 l 1,12,13
 348 595 348 595 223 595 c 0,14,15
 166 595 166 595 141 632 c 0,16,17
 125 656 125 656 125 679.5 c 128,-1,18
 125 703 125 703 129 721 c 1,19,-1
 157 721 l 1,4,5
EndSplineSet
EndChar

StartChar: Iogonek
Encoding: 302 302 239
Width: 208
GlyphClass: 2
Flags: W
LayerCount: 2
Fore
SplineSet
37 -198 m 0,0,1
 -25 -198 -25 -198 -25 -144 c 0,2,3
 -25 -110 -25 -110 12.5 -65.5 c 128,-1,4
 50 -21 50 -21 88 9 c 1,5,-1
 248 700 l 1,6,-1
 284 700 l 1,7,-1
 122 0 l 1,8,9
 86 -28 86 -28 50.5 -70 c 128,-1,10
 15 -112 15 -112 15 -141 c 0,11,12
 15 -165 15 -165 47 -165 c 1,13,-1
 103 -158 l 1,14,-1
 99 -190 l 1,15,16
 63 -198 63 -198 37 -198 c 0,0,1
EndSplineSet
Position2: "'cpsp' Capital Spacing in Latin lookup 0 subtable" dx=5 dy=0 dh=10 dv=0
EndChar

StartChar: iogonek
Encoding: 303 303 240
Width: 183
GlyphClass: 2
Flags: W
LayerCount: 2
Fore
SplineSet
27 -198 m 0,0,1
 -35 -198 -35 -198 -35 -144 c 0,2,3
 -35 -110 -35 -110 2 -65 c 128,-1,4
 39 -20 39 -20 76 9 c 1,5,-1
 190 500 l 1,6,-1
 225 500 l 1,7,-1
 109 0 l 1,8,9
 74 -30 74 -30 39.5 -71 c 128,-1,10
 5 -112 5 -112 5 -141 c 0,11,12
 5 -165 5 -165 37 -165 c 1,13,-1
 93 -158 l 1,14,-1
 89 -190 l 1,15,16
 53 -198 53 -198 27 -198 c 0,0,1
221 638 m 1,17,-1
 235 698 l 1,18,-1
 271 698 l 1,19,-1
 257 638 l 1,20,-1
 221 638 l 1,17,-1
EndSplineSet
EndChar

StartChar: Idotaccent
Encoding: 304 304 241
Width: 208
GlyphClass: 2
Flags: W
LayerCount: 2
Fore
SplineSet
282 869 m 1,0,-1
 294 927 l 1,1,-1
 322 927 l 1,2,-1
 311 869 l 1,3,-1
 282 869 l 1,0,-1
86 0 m 1,4,-1
 248 700 l 1,5,-1
 284 700 l 1,6,-1
 122 0 l 1,7,-1
 86 0 l 1,4,-1
EndSplineSet
Position2: "'cpsp' Capital Spacing in Latin lookup 0 subtable" dx=5 dy=0 dh=10 dv=0
EndChar

StartChar: dotlessi
Encoding: 305 305 242
Width: 182
GlyphClass: 2
Flags: W
LayerCount: 2
Fore
SplineSet
73 0 m 1,0,-1
 189 500 l 1,1,-1
 224 500 l 1,2,-1
 108 0 l 1,3,-1
 73 0 l 1,0,-1
EndSplineSet
EndChar

StartChar: Jcircumflex
Encoding: 308 308 243
Width: 253
GlyphClass: 2
Flags: W
LayerCount: 2
Fore
SplineSet
332 700 m 1,0,-1
 195 107 l 2,1,2
 181 46 181 46 171 17 c 128,-1,3
 161 -12 161 -12 140.5 -35 c 128,-1,4
 120 -58 120 -58 90 -64.5 c 128,-1,5
 60 -71 60 -71 7 -71 c 1,6,-1
 13 -38 l 1,7,8
 88 -38 88 -38 113 -11 c 128,-1,9
 138 16 138 16 161 116 c 2,10,-1
 296 700 l 1,11,-1
 332 700 l 1,0,-1
194 803 m 1,12,-1
 350 931 l 1,13,-1
 364 931 l 1,14,-1
 461 803 l 1,15,-1
 427 803 l 1,16,-1
 354 900 l 1,17,-1
 235 803 l 1,18,-1
 194 803 l 1,12,-1
EndSplineSet
Position2: "'cpsp' Capital Spacing in Latin lookup 0 subtable" dx=5 dy=0 dh=10 dv=0
EndChar

StartChar: jcircumflex
Encoding: 309 309 244
Width: 182
GlyphClass: 2
Flags: W
LayerCount: 2
Fore
SplineSet
73 0 m 2,0,-1
 189 500 l 1,1,-1
 224 500 l 1,2,-1
 108 0 l 2,3,4
 81 -115 81 -115 51 -151.5 c 128,-1,5
 21 -188 21 -188 -87 -239 c 1,6,-1
 -99 -209 l 1,7,8
 -1 -160 -1 -160 25 -128.5 c 128,-1,9
 51 -97 51 -97 73 0 c 2,0,-1
95 595 m 1,10,-1
 241 730 l 1,11,-1
 255 730 l 1,12,-1
 342 595 l 1,13,-1
 308 595 l 1,14,-1
 244 696 l 1,15,-1
 134 595 l 1,16,-1
 95 595 l 1,10,-1
EndSplineSet
EndChar

StartChar: Kcommaaccent
Encoding: 310 310 245
Width: 508
GlyphClass: 2
Flags: W
LayerCount: 2
Fore
SplineSet
239 -73 m 1,0,-1
 273 -73 l 1,1,-1
 185 -265 l 1,2,-1
 159 -265 l 1,3,-1
 239 -73 l 1,0,-1
448 0 m 1,4,-1
 314 329 l 1,5,-1
 198 329 l 1,6,-1
 122 0 l 1,7,-1
 86 0 l 1,8,-1
 248 700 l 1,9,-1
 284 700 l 1,10,-1
 205 362 l 1,11,-1
 315 362 l 1,12,-1
 605 700 l 1,13,-1
 648 700 l 1,14,-1
 344 346 l 1,15,-1
 486 0 l 1,16,-1
 448 0 l 1,4,-1
EndSplineSet
Position2: "'cpsp' Capital Spacing in Latin lookup 0 subtable" dx=5 dy=0 dh=10 dv=0
EndChar

StartChar: kcommaaccent
Encoding: 311 311 246
Width: 431
GlyphClass: 2
Flags: W
LayerCount: 2
Fore
SplineSet
103 -265 m 1,0,-1
 183 -73 l 1,1,-1
 217 -73 l 1,2,-1
 129 -265 l 1,3,-1
 103 -265 l 1,0,-1
109 0 m 1,4,-1
 74 0 l 1,5,-1
 243 730 l 1,6,-1
 278 730 l 1,7,-1
 177 293 l 1,8,-1
 261 293 l 1,9,-1
 478 500 l 1,10,-1
 524 500 l 1,11,-1
 288 274 l 1,12,-1
 401 0 l 1,13,-1
 362 0 l 1,14,-1
 253 261 l 1,15,-1
 169 261 l 1,16,-1
 109 0 l 1,4,-1
EndSplineSet
EndChar

StartChar: Lacute
Encoding: 313 313 247
Width: 441
GlyphClass: 2
Flags: W
LayerCount: 2
Fore
SplineSet
326 798 m 1,0,-1
 318 823 l 1,1,-1
 522 919 l 1,2,-1
 531 890 l 1,3,-1
 326 798 l 1,0,-1
432 0 m 1,4,-1
 86 0 l 1,5,-1
 248 700 l 1,6,-1
 284 700 l 1,7,-1
 130 33 l 1,8,-1
 440 33 l 1,9,-1
 432 0 l 1,4,-1
EndSplineSet
Position2: "'cpsp' Capital Spacing in Latin lookup 0 subtable" dx=5 dy=0 dh=10 dv=0
EndChar

StartChar: lacute
Encoding: 314 314 248
Width: 195
GlyphClass: 2
Flags: W
LayerCount: 2
Fore
SplineSet
80 0 m 1,0,-1
 249 730 l 1,1,-1
 284 730 l 1,2,-1
 115 0 l 1,3,-1
 80 0 l 1,0,-1
258 798 m 1,4,-1
 250 823 l 1,5,-1
 454 919 l 1,6,-1
 463 890 l 1,7,-1
 258 798 l 1,4,-1
EndSplineSet
EndChar

StartChar: Lcommaaccent
Encoding: 315 315 249
Width: 441
GlyphClass: 2
Flags: W
LayerCount: 2
Fore
SplineSet
235 -73 m 1,0,-1
 269 -73 l 1,1,-1
 181 -265 l 1,2,-1
 155 -265 l 1,3,-1
 235 -73 l 1,0,-1
432 0 m 1,4,-1
 86 0 l 1,5,-1
 248 700 l 1,6,-1
 284 700 l 1,7,-1
 130 33 l 1,8,-1
 440 33 l 1,9,-1
 432 0 l 1,4,-1
EndSplineSet
Position2: "'cpsp' Capital Spacing in Latin lookup 0 subtable" dx=5 dy=0 dh=10 dv=0
EndChar

StartChar: lcommaaccent
Encoding: 316 316 250
Width: 195
GlyphClass: 2
Flags: W
LayerCount: 2
Fore
SplineSet
64 -73 m 1,0,-1
 98 -73 l 1,1,-1
 10 -265 l 1,2,-1
 -16 -265 l 1,3,-1
 64 -73 l 1,0,-1
80 0 m 1,4,-1
 249 730 l 1,5,-1
 284 730 l 1,6,-1
 115 0 l 1,7,-1
 80 0 l 1,4,-1
EndSplineSet
EndChar

StartChar: Lcaron
Encoding: 317 317 251
Width: 445
GlyphClass: 2
Flags: W
LayerCount: 2
Fore
SplineSet
530 700 m 1,0,-1
 479 480 l 1,1,-1
 447 480 l 1,2,-1
 498 700 l 1,3,-1
 530 700 l 1,0,-1
432 0 m 1,4,-1
 86 0 l 1,5,-1
 248 700 l 1,6,-1
 284 700 l 1,7,-1
 130 33 l 1,8,-1
 440 33 l 1,9,-1
 432 0 l 1,4,-1
EndSplineSet
Position2: "'cpsp' Capital Spacing in Latin lookup 0 subtable" dx=5 dy=0 dh=10 dv=0
EndChar

StartChar: lcaron
Encoding: 318 318 252
Width: 201
GlyphClass: 2
Flags: W
LayerCount: 2
Fore
SplineSet
373 700 m 1,0,-1
 322 480 l 1,1,-1
 290 480 l 1,2,-1
 341 700 l 1,3,-1
 373 700 l 1,0,-1
80 0 m 1,4,-1
 249 730 l 1,5,-1
 284 730 l 1,6,-1
 115 0 l 1,7,-1
 80 0 l 1,4,-1
EndSplineSet
EndChar

StartChar: Lslash
Encoding: 321 321 253
Width: 442
GlyphClass: 2
Flags: W
LayerCount: 2
Fore
SplineSet
434 0 m 1,0,-1
 88 0 l 1,1,-1
 159 307 l 1,2,-1
 89 263 l 2,3,4
 88 263 88 263 88 265 c 2,5,-1
 75 293 l 1,6,-1
 169 352 l 1,7,-1
 250 700 l 1,8,-1
 286 700 l 1,9,-1
 212 379 l 1,10,-1
 394 493 l 1,11,-1
 405 463 l 1,12,-1
 201 334 l 1,13,-1
 132 33 l 1,14,-1
 442 33 l 1,15,-1
 434 0 l 1,0,-1
EndSplineSet
Position2: "'cpsp' Capital Spacing in Latin lookup 0 subtable" dx=5 dy=0 dh=10 dv=0
EndChar

StartChar: lslash
Encoding: 322 322 254
Width: 256
GlyphClass: 2
Flags: W
LayerCount: 2
Fore
SplineSet
107 0 m 1,0,-1
 180 317 l 1,1,-1
 96 265 l 1,2,-1
 81 292 l 1,3,-1
 190 360 l 1,4,-1
 276 730 l 1,5,-1
 311 730 l 1,6,-1
 231 385 l 1,7,-1
 319 440 l 1,8,-1
 332 411 l 1,9,-1
 221 342 l 1,10,-1
 142 0 l 1,11,-1
 107 0 l 1,0,-1
EndSplineSet
EndChar

StartChar: Nacute
Encoding: 323 323 255
Width: 617
GlyphClass: 2
Flags: W
LayerCount: 2
Fore
SplineSet
411 798 m 1,0,-1
 403 823 l 1,1,-1
 607 919 l 1,2,-1
 616 890 l 1,3,-1
 411 798 l 1,0,-1
86 0 m 1,4,-1
 248 700 l 1,5,-1
 329 700 l 1,6,-1
 479 33 l 1,7,-1
 503 33 l 1,8,-1
 657 700 l 1,9,-1
 693 700 l 1,10,-1
 531 0 l 1,11,-1
 452 0 l 1,12,-1
 301 667 l 1,13,-1
 276 667 l 1,14,-1
 122 0 l 1,15,-1
 86 0 l 1,4,-1
EndSplineSet
Position2: "'cpsp' Capital Spacing in Latin lookup 0 subtable" dx=5 dy=0 dh=10 dv=0
EndChar

StartChar: nacute
Encoding: 324 324 256
Width: 488
GlyphClass: 2
Flags: W
LayerCount: 2
Fore
SplineSet
322.5 460 m 128,-1,1
 293 444 293 444 271 425 c 128,-1,2
 249 406 249 406 223.5 377.5 c 128,-1,3
 198 349 198 349 185 330 c 1,4,-1
 108 0 l 1,5,-1
 73 0 l 1,6,-1
 189 500 l 1,7,-1
 224 500 l 1,8,-1
 198 387 l 1,9,-1
 208 400 l 2,10,11
 230 429 230 429 275 466 c 0,12,13
 297 484 297 484 326.5 496.5 c 128,-1,14
 356 509 356 509 383 509 c 0,15,16
 437 509 437 509 467.5 478 c 128,-1,17
 498 447 498 447 498 395.5 c 128,-1,18
 498 344 498 344 479 260 c 2,19,-1
 418 0 l 1,20,-1
 384 0 l 1,21,-1
 444 258 l 2,22,23
 463 336 463 336 463 383.5 c 128,-1,24
 463 431 463 431 441 453.5 c 128,-1,25
 419 476 419 476 385.5 476 c 128,-1,0
 352 476 352 476 322.5 460 c 128,-1,1
308 610 m 1,26,-1
 303 635 l 1,27,-1
 506 730 l 1,28,-1
 512 700 l 1,29,-1
 308 610 l 1,26,-1
EndSplineSet
EndChar

StartChar: Ncommaaccent
Encoding: 325 325 257
Width: 617
GlyphClass: 2
Flags: W
LayerCount: 2
Fore
SplineSet
281 -73 m 1,0,-1
 315 -73 l 1,1,-1
 227 -265 l 1,2,-1
 201 -265 l 1,3,-1
 281 -73 l 1,0,-1
86 0 m 1,4,-1
 248 700 l 1,5,-1
 329 700 l 1,6,-1
 479 33 l 1,7,-1
 503 33 l 1,8,-1
 657 700 l 1,9,-1
 693 700 l 1,10,-1
 531 0 l 1,11,-1
 452 0 l 1,12,-1
 301 667 l 1,13,-1
 276 667 l 1,14,-1
 122 0 l 1,15,-1
 86 0 l 1,4,-1
EndSplineSet
Position2: "'cpsp' Capital Spacing in Latin lookup 0 subtable" dx=5 dy=0 dh=10 dv=0
EndChar

StartChar: ncommaaccent
Encoding: 326 326 258
Width: 488
GlyphClass: 2
Flags: W
LayerCount: 2
Fore
SplineSet
198 387 m 1,0,1
 296 509 296 509 383 509 c 0,2,3
 437 509 437 509 467.5 478 c 128,-1,4
 498 447 498 447 498 395.5 c 128,-1,5
 498 344 498 344 479 260 c 2,6,-1
 418 0 l 1,7,-1
 384 0 l 1,8,-1
 444 258 l 2,9,10
 463 336 463 336 463 384 c 0,11,12
 463 476 463 476 377 476 c 0,13,14
 352 476 352 476 323 461 c 128,-1,15
 294 446 294 446 270 424 c 0,16,17
 221 379 221 379 196 345 c 2,18,-1
 185 330 l 1,19,-1
 108 0 l 1,20,-1
 73 0 l 1,21,-1
 189 500 l 1,22,-1
 224 500 l 1,23,-1
 198 387 l 1,0,1
145 -265 m 1,24,-1
 225 -73 l 1,25,-1
 259 -73 l 1,26,-1
 171 -265 l 1,27,-1
 145 -265 l 1,24,-1
EndSplineSet
EndChar

StartChar: Ncaron
Encoding: 327 327 259
Width: 617
GlyphClass: 2
Flags: W
LayerCount: 2
Fore
SplineSet
654 926 m 1,0,-1
 499 798 l 1,1,-1
 482 798 l 1,2,-1
 382 926 l 1,3,-1
 417 926 l 1,4,-1
 494 827 l 1,5,-1
 614 926 l 1,6,-1
 654 926 l 1,0,-1
86 0 m 1,7,-1
 248 700 l 1,8,-1
 329 700 l 1,9,-1
 479 33 l 1,10,-1
 503 33 l 1,11,-1
 657 700 l 1,12,-1
 693 700 l 1,13,-1
 531 0 l 1,14,-1
 452 0 l 1,15,-1
 301 667 l 1,16,-1
 276 667 l 1,17,-1
 122 0 l 1,18,-1
 86 0 l 1,7,-1
EndSplineSet
Position2: "'cpsp' Capital Spacing in Latin lookup 0 subtable" dx=5 dy=0 dh=10 dv=0
EndChar

StartChar: ncaron
Encoding: 328 328 260
Width: 488
GlyphClass: 2
Flags: W
LayerCount: 2
Fore
SplineSet
198 387 m 1,0,1
 296 509 296 509 383 509 c 0,2,3
 437 509 437 509 467.5 478 c 128,-1,4
 498 447 498 447 498 395.5 c 128,-1,5
 498 344 498 344 479 260 c 2,6,-1
 418 0 l 1,7,-1
 384 0 l 1,8,-1
 444 258 l 2,9,10
 463 336 463 336 463 384 c 0,11,12
 463 476 463 476 377 476 c 0,13,14
 352 476 352 476 323 461 c 128,-1,15
 294 446 294 446 270 424 c 0,16,17
 221 379 221 379 196 345 c 2,18,-1
 185 330 l 1,19,-1
 108 0 l 1,20,-1
 73 0 l 1,21,-1
 189 500 l 1,22,-1
 224 500 l 1,23,-1
 198 387 l 1,0,1
386 595 m 1,24,-1
 372 595 l 1,25,-1
 286 730 l 1,26,-1
 318 730 l 1,27,-1
 384 625 l 1,28,-1
 499 730 l 1,29,-1
 538 730 l 1,30,-1
 386 595 l 1,24,-1
EndSplineSet
EndChar

StartChar: Eng
Encoding: 330 330 261
Width: 617
GlyphClass: 2
Flags: W
LayerCount: 2
Fore
SplineSet
86 0 m 1,0,-1
 248 700 l 1,1,-1
 331 700 l 1,2,-1
 480 33 l 1,3,-1
 504 33 l 1,4,-1
 658 700 l 1,5,-1
 693 700 l 1,6,-1
 533 7 l 2,7,8
 513 -81 513 -81 496.5 -111 c 128,-1,9
 480 -141 480 -141 462 -150 c 0,10,11
 422 -171 422 -171 346 -171 c 1,12,-1
 352 -138 l 1,13,14
 424 -138 424 -138 450 -113 c 128,-1,15
 476 -88 476 -88 496 0 c 1,16,-1
 450 0 l 1,17,-1
 300 667 l 1,18,-1
 275 667 l 1,19,-1
 121 0 l 1,20,-1
 86 0 l 1,0,-1
EndSplineSet
Position2: "'cpsp' Capital Spacing in Latin lookup 0 subtable" dx=5 dy=0 dh=10 dv=0
EndChar

StartChar: eng
Encoding: 331 331 262
Width: 485
GlyphClass: 2
Flags: W
LayerCount: 2
Fore
SplineSet
285 481.5 m 128,-1,1
 334 509 334 509 389.5 509 c 128,-1,2
 445 509 445 509 472 483.5 c 128,-1,3
 499 458 499 458 499 394 c 0,4,5
 499 358 499 358 475 258 c 2,6,-1
 414 -5 l 2,7,8
 394 -91 394 -91 356 -134 c 128,-1,9
 318 -177 318 -177 221 -228 c 1,10,-1
 215 -193 l 1,11,12
 301 -146 301 -146 333.5 -106.5 c 128,-1,13
 366 -67 366 -67 387 20 c 2,14,-1
 443 258 l 2,15,16
 465 354 465 354 465 395.5 c 128,-1,17
 465 437 465 437 444 455 c 128,-1,18
 423 473 423 473 379 473 c 128,-1,19
 335 473 335 473 291 451 c 128,-1,20
 247 429 247 429 222 407 c 2,21,-1
 196 385 l 1,22,-1
 106 0 l 1,23,-1
 73 0 l 1,24,-1
 190 500 l 1,25,-1
 224 500 l 1,26,-1
 204 423 l 1,27,0
 236 454 236 454 285 481.5 c 128,-1,1
EndSplineSet
EndChar

StartChar: Omacron
Encoding: 332 332 263
Width: 636
GlyphClass: 2
Flags: W
LayerCount: 2
Fore
SplineSet
198.5 63 m 128,-1,1
 238 24 238 24 323 24 c 128,-1,2
 408 24 408 24 469 69 c 0,3,4
 550 130 550 130 593 253.5 c 128,-1,5
 636 377 636 377 636 504 c 0,6,7
 636 593 636 593 594 634.5 c 128,-1,8
 552 676 552 676 473.5 676 c 128,-1,9
 395 676 395 676 336 633 c 0,10,11
 253 572 253 572 206 445 c 128,-1,12
 159 318 159 318 159 196 c 0,13,0
 159 102 159 102 198.5 63 c 128,-1,1
631 246 m 128,-1,15
 588 123 588 123 509 57 c 128,-1,16
 430 -9 430 -9 324 -9 c 128,-1,17
 218 -9 218 -9 170 37.5 c 128,-1,18
 122 84 122 84 122 203.5 c 128,-1,19
 122 323 122 323 164.5 443 c 128,-1,20
 207 563 207 563 285 636 c 128,-1,21
 363 709 363 709 466.5 709 c 128,-1,22
 570 709 570 709 622 659 c 128,-1,23
 674 609 674 609 674 503 c 0,24,14
 674 369 674 369 631 246 c 128,-1,15
374 835 m 1,25,-1
 379 861 l 1,26,-1
 651 861 l 1,27,-1
 644 835 l 1,28,-1
 374 835 l 1,25,-1
EndSplineSet
Position2: "'cpsp' Capital Spacing in Latin lookup 0 subtable" dx=5 dy=0 dh=10 dv=0
EndChar

StartChar: omacron
Encoding: 333 333 264
Width: 493
GlyphClass: 2
Flags: W
LayerCount: 2
Fore
SplineSet
349 509 m 0,0,1
 507 509 507 509 507 352 c 0,2,3
 507 198 507 198 436 94.5 c 128,-1,4
 365 -9 365 -9 252 -9 c 0,5,6
 99 -9 99 -9 99 139 c 0,7,8
 99 295 99 295 171 402 c 128,-1,9
 243 509 243 509 349 509 c 0,0,1
252 23 m 0,10,11
 349 23 349 23 410 118.5 c 128,-1,12
 471 214 471 214 471 352 c 0,13,14
 471 409 471 409 440.5 443 c 128,-1,15
 410 477 410 477 349 477 c 0,16,17
 256 477 256 477 195.5 377.5 c 128,-1,18
 135 278 135 278 135 139 c 0,19,20
 135 23 135 23 252 23 c 0,10,11
259 647 m 1,21,-1
 265 673 l 1,22,-1
 518 673 l 1,23,-1
 511 647 l 1,24,-1
 259 647 l 1,21,-1
EndSplineSet
EndChar

StartChar: Obreve
Encoding: 334 334 265
Width: 636
GlyphClass: 2
Flags: W
LayerCount: 2
Fore
SplineSet
429 921 m 1,0,1
 426 906 426 906 426 886.5 c 128,-1,2
 426 867 426 867 442.5 850.5 c 128,-1,3
 459 834 459 834 501 834 c 128,-1,4
 543 834 543 834 576 858 c 128,-1,5
 609 882 609 882 619 921 c 1,6,-1
 649 921 l 1,7,8
 635 865 635 865 593.5 834.5 c 128,-1,9
 552 804 552 804 496 804 c 0,10,11
 396 804 396 804 396 887 c 0,12,13
 396 903 396 903 399 921 c 1,14,-1
 429 921 l 1,0,1
198.5 63 m 128,-1,16
 238 24 238 24 323 24 c 128,-1,17
 408 24 408 24 469 69 c 0,18,19
 550 130 550 130 593 253.5 c 128,-1,20
 636 377 636 377 636 504 c 0,21,22
 636 593 636 593 594 634.5 c 128,-1,23
 552 676 552 676 473.5 676 c 128,-1,24
 395 676 395 676 336 633 c 0,25,26
 253 572 253 572 206 445 c 128,-1,27
 159 318 159 318 159 196 c 0,28,15
 159 102 159 102 198.5 63 c 128,-1,16
631 246 m 128,-1,30
 588 123 588 123 509 57 c 128,-1,31
 430 -9 430 -9 324 -9 c 128,-1,32
 218 -9 218 -9 170 37.5 c 128,-1,33
 122 84 122 84 122 203.5 c 128,-1,34
 122 323 122 323 164.5 443 c 128,-1,35
 207 563 207 563 285 636 c 128,-1,36
 363 709 363 709 466.5 709 c 128,-1,37
 570 709 570 709 622 659 c 128,-1,38
 674 609 674 609 674 503 c 0,39,29
 674 369 674 369 631 246 c 128,-1,30
EndSplineSet
Position2: "'cpsp' Capital Spacing in Latin lookup 0 subtable" dx=5 dy=0 dh=10 dv=0
EndChar

StartChar: obreve
Encoding: 335 335 266
Width: 493
GlyphClass: 2
Flags: W
LayerCount: 2
Fore
SplineSet
349 509 m 0,0,1
 507 509 507 509 507 352 c 0,2,3
 507 198 507 198 436 94.5 c 128,-1,4
 365 -9 365 -9 252 -9 c 0,5,6
 99 -9 99 -9 99 139 c 0,7,8
 99 295 99 295 171 402 c 128,-1,9
 243 509 243 509 349 509 c 0,0,1
252 23 m 0,10,11
 349 23 349 23 410 118.5 c 128,-1,12
 471 214 471 214 471 352 c 0,13,14
 471 409 471 409 440.5 443 c 128,-1,15
 410 477 410 477 349 477 c 0,16,17
 256 477 256 477 195.5 377.5 c 128,-1,18
 135 278 135 278 135 139 c 0,19,20
 135 23 135 23 252 23 c 0,10,11
318 721 m 1,21,22
 313 705 313 705 313 686.5 c 128,-1,23
 313 668 313 668 326 650 c 0,24,25
 345 623 345 623 393 623 c 128,-1,26
 441 623 441 623 471.5 650 c 128,-1,27
 502 677 502 677 513 721 c 1,28,-1
 541 721 l 1,29,30
 509 595 509 595 384 595 c 0,31,32
 327 595 327 595 302 632 c 0,33,34
 286 656 286 656 286 679.5 c 128,-1,35
 286 703 286 703 290 721 c 1,36,-1
 318 721 l 1,21,22
EndSplineSet
EndChar

StartChar: Ohungarumlaut
Encoding: 336 336 267
Width: 636
GlyphClass: 2
Flags: W
LayerCount: 2
Fore
SplineSet
547 792 m 1,0,-1
 543 816 l 1,1,-1
 742 902 l 1,2,-1
 750 879 l 1,3,-1
 547 792 l 1,0,-1
368 793 m 1,4,-1
 362 816 l 1,5,-1
 565 903 l 1,6,-1
 569 879 l 1,7,-1
 368 793 l 1,4,-1
198.5 63 m 128,-1,9
 238 24 238 24 323 24 c 128,-1,10
 408 24 408 24 469 69 c 0,11,12
 550 130 550 130 593 253.5 c 128,-1,13
 636 377 636 377 636 504 c 0,14,15
 636 593 636 593 594 634.5 c 128,-1,16
 552 676 552 676 473.5 676 c 128,-1,17
 395 676 395 676 336 633 c 0,18,19
 253 572 253 572 206 445 c 128,-1,20
 159 318 159 318 159 196 c 0,21,8
 159 102 159 102 198.5 63 c 128,-1,9
631 246 m 128,-1,23
 588 123 588 123 509 57 c 128,-1,24
 430 -9 430 -9 324 -9 c 128,-1,25
 218 -9 218 -9 170 37.5 c 128,-1,26
 122 84 122 84 122 203.5 c 128,-1,27
 122 323 122 323 164.5 443 c 128,-1,28
 207 563 207 563 285 636 c 128,-1,29
 363 709 363 709 466.5 709 c 128,-1,30
 570 709 570 709 622 659 c 128,-1,31
 674 609 674 609 674 503 c 0,32,22
 674 369 674 369 631 246 c 128,-1,23
EndSplineSet
Position2: "'cpsp' Capital Spacing in Latin lookup 0 subtable" dx=5 dy=0 dh=10 dv=0
EndChar

StartChar: ohungarumlaut
Encoding: 337 337 268
Width: 493
GlyphClass: 2
Flags: W
LayerCount: 2
Fore
SplineSet
349 509 m 0,0,1
 507 509 507 509 507 352 c 0,2,3
 507 198 507 198 436 94.5 c 128,-1,4
 365 -9 365 -9 252 -9 c 0,5,6
 99 -9 99 -9 99 139 c 0,7,8
 99 295 99 295 171 402 c 128,-1,9
 243 509 243 509 349 509 c 0,0,1
252 23 m 0,10,11
 349 23 349 23 410 118.5 c 128,-1,12
 471 214 471 214 471 352 c 0,13,14
 471 409 471 409 440.5 443 c 128,-1,15
 410 477 410 477 349 477 c 0,16,17
 256 477 256 477 195.5 377.5 c 128,-1,18
 135 278 135 278 135 139 c 0,19,20
 135 23 135 23 252 23 c 0,10,11
431 594 m 1,21,-1
 420 619 l 1,22,-1
 598 724 l 1,23,-1
 610 698 l 1,24,-1
 431 594 l 1,21,-1
257 594 m 1,25,-1
 246 619 l 1,26,-1
 423 724 l 1,27,-1
 435 698 l 1,28,-1
 257 594 l 1,25,-1
EndSplineSet
EndChar

StartChar: OE
Encoding: 338 338 269
Width: 876
GlyphClass: 2
Flags: W
LayerCount: 2
Fore
SplineSet
305 -9 m 0,0,1
 205 -9 205 -9 160 36 c 128,-1,2
 115 81 115 81 115 171 c 0,3,4
 115 239 115 239 140 345 c 0,5,6
 184 528 184 528 260.5 618.5 c 128,-1,7
 337 709 337 709 474 709 c 0,8,9
 530 709 530 709 620 700 c 1,10,-1
 992 700 l 1,11,-1
 985 662 l 1,12,-1
 647 662 l 1,13,-1
 578 379 l 1,14,-1
 859 379 l 1,15,-1
 852 341 l 1,16,-1
 571 343 l 1,17,-1
 499 38 l 1,18,-1
 837 38 l 1,19,-1
 827 -1 l 1,20,-1
 456 -1 l 1,21,22
 358 -9 358 -9 305 -9 c 0,0,1
313 29 m 0,23,24
 368 29 368 29 463 38 c 1,25,-1
 611 664 l 1,26,27
 550 671 550 671 466 671 c 0,28,29
 344 671 344 671 280 592.5 c 128,-1,30
 216 514 216 514 177 347 c 0,31,32
 152 242 152 242 152 172 c 128,-1,33
 152 102 152 102 189.5 65.5 c 128,-1,34
 227 29 227 29 313 29 c 0,23,24
EndSplineSet
Position2: "'cpsp' Capital Spacing in Latin lookup 0 subtable" dx=5 dy=0 dh=10 dv=0
EndChar

StartChar: oe
Encoding: 339 339 270
Width: 826
GlyphClass: 2
Flags: W
LayerCount: 2
Fore
SplineSet
734 34 m 1,0,-1
 763 36 l 1,1,-1
 758 0 l 1,2,3
 650 -9 650 -9 580 -9 c 0,4,5
 459 -9 459 -9 446 98 c 1,6,7
 417 42 417 42 370 16.5 c 128,-1,8
 323 -9 323 -9 246 -9 c 128,-1,9
 169 -9 169 -9 132 19.5 c 128,-1,10
 95 48 95 48 95 110 c 128,-1,11
 95 172 95 172 116 261 c 0,12,13
 148 396 148 396 204.5 452.5 c 128,-1,14
 261 509 261 509 370 509 c 0,15,16
 505 509 505 509 514 389 c 1,17,18
 575 509 575 509 715.5 509 c 128,-1,19
 856 509 856 509 856 372 c 0,20,21
 856 328 856 328 841 268 c 2,22,-1
 832 234 l 1,23,-1
 498 236 l 1,24,25
 481 168 481 168 481 123.5 c 128,-1,26
 481 79 481 79 506.5 53 c 128,-1,27
 532 27 532 27 595.5 27 c 128,-1,28
 659 27 659 27 734 34 c 1,0,-1
159.5 49 m 128,-1,30
 188 27 188 27 242.5 27 c 128,-1,31
 297 27 297 27 328 38 c 128,-1,32
 359 49 359 49 379 66 c 128,-1,33
 399 83 399 83 416 116 c 0,34,35
 442 168 442 168 460.5 243 c 128,-1,36
 479 318 479 318 479 351.5 c 128,-1,37
 479 385 479 385 474 404 c 0,38,39
 456 473 456 473 365.5 473 c 128,-1,40
 275 473 275 473 228.5 426 c 128,-1,41
 182 379 182 379 156.5 272.5 c 128,-1,42
 131 166 131 166 131 118.5 c 128,-1,29
 131 71 131 71 159.5 49 c 128,-1,30
803 268 m 1,43,44
 818 328 818 328 818 376 c 0,45,46
 818 473 818 473 708 473 c 0,47,48
 554 473 554 473 506 270 c 1,49,-1
 803 268 l 1,43,44
EndSplineSet
EndChar

StartChar: Racute
Encoding: 340 340 271
Width: 568
GlyphClass: 2
Flags: W
LayerCount: 2
Fore
SplineSet
629 560 m 0,0,1
 629 425 629 425 560 360 c 0,2,3
 502 305 502 305 435 292 c 1,4,-1
 524 0 l 1,5,-1
 488 0 l 1,6,-1
 400 288 l 1,7,-1
 189 288 l 1,8,-1
 122 0 l 1,9,-1
 86 0 l 1,10,-1
 248 700 l 1,11,-1
 470 700 l 2,12,13
 629 700 629 700 629 560 c 0,0,1
591 551 m 0,14,15
 591 615 591 615 560.5 641 c 128,-1,16
 530 667 530 667 462 667 c 2,17,-1
 276 667 l 1,18,-1
 196 321 l 1,19,-1
 383 321 l 2,20,21
 477 321 477 321 534 384 c 128,-1,22
 591 447 591 447 591 551 c 0,14,15
374 798 m 1,23,-1
 366 823 l 1,24,-1
 570 919 l 1,25,-1
 579 890 l 1,26,-1
 374 798 l 1,23,-1
EndSplineSet
Position2: "'cpsp' Capital Spacing in Latin lookup 0 subtable" dx=5 dy=0 dh=10 dv=0
EndChar

StartChar: racute
Encoding: 341 341 272
Width: 304
GlyphClass: 2
Flags: W
LayerCount: 2
Fore
SplineSet
73 0 m 1,0,-1
 190 500 l 1,1,-1
 224 500 l 1,2,-1
 207 424 l 1,3,4
 307 487 307 487 404 510 c 1,5,-1
 396 475 l 1,6,7
 332 459 332 459 232 406 c 1,8,-1
 199 389 l 1,9,-1
 109 0 l 1,10,-1
 73 0 l 1,0,-1
212 610 m 1,11,-1
 207 635 l 1,12,-1
 410 730 l 1,13,-1
 416 700 l 1,14,-1
 212 610 l 1,11,-1
EndSplineSet
EndChar

StartChar: Rcommaaccent
Encoding: 342 342 273
Width: 568
GlyphClass: 2
Flags: W
LayerCount: 2
Fore
SplineSet
186 -265 m 1,0,-1
 266 -73 l 1,1,-1
 300 -73 l 1,2,-1
 212 -265 l 1,3,-1
 186 -265 l 1,0,-1
470 700 m 2,4,5
 550 700 550 700 589.5 665.5 c 128,-1,6
 629 631 629 631 629 560 c 128,-1,7
 629 489 629 489 610 439 c 128,-1,8
 591 389 591 389 560 360 c 0,9,10
 502 305 502 305 435 292 c 1,11,-1
 524 0 l 1,12,-1
 488 0 l 1,13,-1
 400 288 l 1,14,-1
 189 288 l 1,15,-1
 122 0 l 1,16,-1
 86 0 l 1,17,-1
 248 700 l 1,18,-1
 470 700 l 2,4,5
591 551 m 0,19,20
 591 615 591 615 560.5 641 c 128,-1,21
 530 667 530 667 462 667 c 2,22,-1
 276 667 l 1,23,-1
 196 321 l 1,24,-1
 383 321 l 2,25,26
 477 321 477 321 534 384 c 128,-1,27
 591 447 591 447 591 551 c 0,19,20
EndSplineSet
Position2: "'cpsp' Capital Spacing in Latin lookup 0 subtable" dx=5 dy=0 dh=10 dv=0
EndChar

StartChar: rcommaaccent
Encoding: 343 343 274
Width: 304
GlyphClass: 2
Flags: W
LayerCount: 2
Fore
SplineSet
73 0 m 1,0,-1
 190 500 l 1,1,-1
 224 500 l 1,2,-1
 207 424 l 1,3,4
 307 487 307 487 404 510 c 1,5,-1
 396 475 l 1,6,7
 332 459 332 459 232 406 c 1,8,-1
 199 389 l 1,9,-1
 109 0 l 1,10,-1
 73 0 l 1,0,-1
62 -73 m 1,11,-1
 96 -73 l 1,12,-1
 8 -265 l 1,13,-1
 -18 -265 l 1,14,-1
 62 -73 l 1,11,-1
EndSplineSet
EndChar

StartChar: Rcaron
Encoding: 344 344 275
Width: 568
GlyphClass: 2
Flags: W
LayerCount: 2
Fore
SplineSet
604 926 m 1,0,-1
 449 798 l 1,1,-1
 432 798 l 1,2,-1
 332 926 l 1,3,-1
 367 926 l 1,4,-1
 444 827 l 1,5,-1
 564 926 l 1,6,-1
 604 926 l 1,0,-1
629 560 m 0,7,8
 629 425 629 425 560 360 c 0,9,10
 502 305 502 305 435 292 c 1,11,-1
 524 0 l 1,12,-1
 488 0 l 1,13,-1
 400 288 l 1,14,-1
 189 288 l 1,15,-1
 122 0 l 1,16,-1
 86 0 l 1,17,-1
 248 700 l 1,18,-1
 470 700 l 2,19,20
 629 700 629 700 629 560 c 0,7,8
591 551 m 0,21,22
 591 615 591 615 560.5 641 c 128,-1,23
 530 667 530 667 462 667 c 2,24,-1
 276 667 l 1,25,-1
 196 321 l 1,26,-1
 383 321 l 2,27,28
 477 321 477 321 534 384 c 128,-1,29
 591 447 591 447 591 551 c 0,21,22
EndSplineSet
Position2: "'cpsp' Capital Spacing in Latin lookup 0 subtable" dx=5 dy=0 dh=10 dv=0
EndChar

StartChar: rcaron
Encoding: 345 345 276
Width: 304
GlyphClass: 2
Flags: W
LayerCount: 2
Fore
SplineSet
73 0 m 1,0,-1
 190 500 l 1,1,-1
 224 500 l 1,2,-1
 207 424 l 1,3,4
 307 487 307 487 404 510 c 1,5,-1
 396 475 l 1,6,7
 332 459 332 459 232 406 c 1,8,-1
 199 389 l 1,9,-1
 109 0 l 1,10,-1
 73 0 l 1,0,-1
303 595 m 1,11,-1
 289 595 l 1,12,-1
 203 730 l 1,13,-1
 235 730 l 1,14,-1
 301 625 l 1,15,-1
 416 730 l 1,16,-1
 455 730 l 1,17,-1
 303 595 l 1,11,-1
EndSplineSet
EndChar

StartChar: Sacute
Encoding: 346 346 277
Width: 502
GlyphClass: 2
Flags: W
LayerCount: 2
Fore
SplineSet
415 676 m 0,0,1
 318 676 318 676 263.5 629.5 c 128,-1,2
 209 583 209 583 209 492 c 0,3,4
 209 444 209 444 239.5 423.5 c 128,-1,5
 270 403 270 403 351 379 c 128,-1,6
 432 355 432 355 465 326 c 128,-1,7
 498 297 498 297 498 233 c 0,8,9
 498 122 498 122 432.5 56.5 c 128,-1,10
 367 -9 367 -9 256 -9 c 0,11,12
 171 -9 171 -9 90 4 c 1,13,-1
 60 8 l 1,14,-1
 67 41 l 1,15,16
 185 24 185 24 270 24 c 128,-1,17
 355 24 355 24 407.5 80.5 c 128,-1,18
 460 137 460 137 460 232 c 0,19,20
 460 282 460 282 435 303.5 c 128,-1,21
 410 325 410 325 329.5 347.5 c 128,-1,22
 249 370 249 370 210.5 399 c 128,-1,23
 172 428 172 428 172 492 c 0,24,25
 172 598 172 598 239.5 653.5 c 128,-1,26
 307 709 307 709 422 709 c 0,27,28
 488 709 488 709 568 693 c 2,29,-1
 593 688 l 1,30,-1
 587 658 l 1,31,32
 485 676 485 676 415 676 c 0,0,1
360 798 m 1,33,-1
 352 823 l 1,34,-1
 556 919 l 1,35,-1
 565 890 l 1,36,-1
 360 798 l 1,33,-1
EndSplineSet
Position2: "'cpsp' Capital Spacing in Latin lookup 0 subtable" dx=5 dy=0 dh=10 dv=0
EndChar

